<svg width="220" height="220" viewBox="0 0 220 220" fill="none" xmlns="http://www.w3.org/2000/svg">
<g clip-path="url(#clip0_415_544)">
<path d="M110 220.015C170.751 220.015 220 170.767 220 110.015C220 49.2642 170.751 0.0155029 110 0.0155029C49.2487 0.0155029 0 49.2642 0 110.015C0 170.767 49.2487 220.015 110 220.015Z" fill="#1977F3"/>
<path d="M152.818 141.82L157.691 110.016H127.186V89.3799C127.186 80.6863 131.44 72.1938 145.115 72.1938H158.99V45.1231C158.99 45.1231 146.399 42.9729 134.364 42.9729C109.242 42.9729 92.814 58.1944 92.814 85.7756V110.016H64.877V141.82H92.814V218.685C98.4137 219.567 104.153 220.016 110 220.016C115.847 220.016 121.586 219.551 127.186 218.685V141.82H152.818Z" fill="white"/>
</g>
<defs>
<clipPath id="clip0_415_544">
<rect width="220" height="220" fill="white"/>
</clipPath>
</defs>
</svg>
