<svg width="200" height="200" viewBox="0 0 200 200" fill="none" xmlns="http://www.w3.org/2000/svg">
<circle cx="100" cy="100" r="100" fill="#FEE500"/>
<path d="M100.5 48C65.982 48 38 69.9806 38 97.0947C38 114.624 49.6983 130.006 67.2957 138.692C66.3383 141.981 61.1436 159.853 60.9369 161.257C60.9369 161.257 60.8125 162.312 61.4982 162.714C62.1839 163.116 62.9904 162.804 62.9904 162.804C64.9567 162.53 85.7927 147.949 89.399 145.417C93.0018 145.925 96.7115 146.189 100.5 146.189C135.018 146.189 163 124.209 163 97.0947C163 69.9806 135.018 48 100.5 48Z" fill="black" fill-opacity="0.9"/>
</svg>
