<svg width="218" height="218" viewBox="0 0 218 218" fill="none" xmlns="http://www.w3.org/2000/svg">
<path d="M109 218C169.199 218 218 169.199 218 109C218 48.801 169.199 0 109 0C48.801 0 0 48.801 0 109C0 169.199 48.801 218 109 218Z" fill="#1B9DF0"/>
<path d="M89.053 166.498C137.394 166.498 163.827 126.44 163.827 91.7235C163.827 90.579 163.827 89.4345 163.772 88.3445C168.895 84.6385 173.364 80.006 176.907 74.7195C172.22 76.7905 167.151 78.2075 161.81 78.8615C167.26 75.5915 171.402 70.4685 173.364 64.31C168.296 67.3075 162.682 69.4875 156.687 70.6865C151.891 65.5635 145.079 62.4025 137.503 62.4025C123.006 62.4025 111.234 74.1745 111.234 88.6715C111.234 90.7425 111.452 92.759 111.943 94.6665C90.0885 93.5765 70.741 83.1125 57.77 67.1985C55.5355 71.068 54.2275 75.5915 54.2275 80.3875C54.2275 89.489 58.86 97.555 65.945 102.242C61.6395 102.133 57.6065 100.934 54.064 98.972C54.064 99.081 54.064 99.19 54.064 99.299C54.064 112.052 63.111 122.625 75.1555 125.078C72.9755 125.677 70.632 126.004 68.234 126.004C66.5445 126.004 64.9095 125.841 63.2745 125.514C66.599 135.978 76.3 143.553 87.7995 143.771C78.807 150.802 67.471 154.998 55.154 154.998C53.0285 154.998 50.9575 154.889 48.8865 154.617C60.386 162.138 74.229 166.498 89.053 166.498Z" fill="white"/>
</svg>
