<svg width="780" height="780" viewBox="0 0 780 780" fill="none" xmlns="http://www.w3.org/2000/svg">
<g filter="url(#filter0_d_451_475)">
<rect x="2" width="247.867" height="247.867" rx="20" fill="white"/>
<rect x="2.5" y="0.5" width="246.867" height="246.867" rx="19.5" stroke="#E5E5E5"/>
</g>
<path d="M166.582 127.02C170.106 129.883 172.528 132.526 173.849 134.948C175.171 137.37 175.281 139.352 174.18 140.894C172.858 142.766 171.152 144.417 169.06 145.849C166.968 147.17 164.215 147.555 160.802 147.005C159.701 146.784 158.379 146.674 156.838 146.674C155.406 146.564 153.755 146.399 151.883 146.179C151.553 151.464 150.947 156.639 150.066 161.704C149.295 166.769 147.644 171.779 145.111 176.733C144.01 175.853 142.744 174.972 141.313 174.091C139.991 173.21 138.615 172.384 137.184 171.613C135.862 170.843 134.541 170.127 133.22 169.466C132.009 168.806 130.963 168.2 130.082 167.65C128.871 166.989 128.045 165.888 127.604 164.346C127.164 162.915 126.944 161.208 126.944 159.226C126.944 157.245 127.054 155.097 127.274 152.785C127.604 150.363 127.935 147.885 128.265 145.353H122.98C117.144 145.353 111.529 145.408 106.134 145.518C100.849 145.628 96.3892 146.124 92.7557 147.005C89.8929 147.665 87.3604 147.39 85.1583 146.179C83.0663 144.968 81.0293 142.6 79.0474 139.077C77.9463 137.095 77.4508 135.058 77.5609 132.966C77.6711 130.874 78.3317 129.167 79.5429 127.846C79.8732 124.873 81.1945 121.845 83.5067 118.762C86.6998 114.468 90.2783 109.568 94.2421 104.063C98.3161 98.5577 102.39 93.1074 106.464 87.7122C110.648 82.2069 114.667 77.1419 118.521 72.5175C122.374 67.7829 125.733 64.0393 128.595 61.2866C130.467 59.5249 132.009 57.9834 133.22 56.6621C134.431 55.3408 135.477 54.2398 136.358 53.3589C137.349 52.4781 138.23 51.8725 139 51.5421C139.771 51.1017 140.652 50.9366 141.643 51.0467C143.405 50.8265 145.166 51.2118 146.928 52.2028C148.8 53.1937 150.341 54.46 151.553 56.0015C152.874 57.543 153.81 59.1946 154.36 60.9563C155.021 62.718 155.021 64.2044 154.36 65.4156C153.92 66.2964 153.535 67.893 153.204 70.2052C152.984 72.5175 152.819 75.16 152.709 78.1329C152.599 81.326 152.544 84.9045 152.544 88.8683C152.544 92.722 152.544 96.6859 152.544 100.76C152.544 104.834 152.544 108.853 152.544 112.817C152.544 116.78 152.544 120.414 152.544 123.717C156.287 123.607 159.04 123.772 160.802 124.213C162.563 124.543 164.49 125.479 166.582 127.02ZM102.5 124.213C106.244 124.102 109.822 124.047 113.236 124.047C116.649 124.047 120.613 124.102 125.127 124.213H129.421C129.641 118.377 129.752 112.321 129.752 106.045C129.862 99.7689 129.807 93.8231 129.586 88.2077C127.274 91.0704 124.907 94.0984 122.484 97.2915C120.062 100.485 117.64 103.678 115.217 106.871C112.905 109.954 110.648 113.037 108.446 116.12C106.244 119.093 104.262 121.79 102.5 124.213Z" fill="black"/>
<g filter="url(#filter1_d_451_475)">
<rect x="266.133" width="247.867" height="247.867" rx="20" fill="#F3F3F3"/>
<rect x="266.633" y="0.5" width="246.867" height="246.867" rx="19.5" stroke="#E5E5E5"/>
</g>
<g filter="url(#filter2_d_451_475)">
<rect x="2" y="528" width="247.867" height="247.867" rx="20" fill="white"/>
<rect x="2.5" y="528.5" width="246.867" height="246.867" rx="19.5" stroke="#E5E5E5"/>
</g>
<path d="M120.298 603.151C120.408 607.114 120.463 611.243 120.463 615.538C120.463 619.832 120.463 624.181 120.463 628.585C122.995 628.585 125.583 628.585 128.225 628.585C130.868 628.585 133.345 628.585 135.657 628.585C138.08 628.585 140.172 628.585 141.933 628.585C143.805 628.475 145.182 628.42 146.062 628.42C147.604 628.42 149.035 628.42 150.357 628.42C151.788 628.31 153.109 628.42 154.32 628.75C155.642 629.081 156.798 629.631 157.789 630.402C158.78 631.173 159.716 632.329 160.597 633.87C161.147 634.971 161.422 636.017 161.422 637.008C161.532 637.889 161.147 638.935 160.266 640.146C157.514 643.89 154.541 646.753 151.348 648.735C148.265 650.606 144.741 651.542 140.777 651.542C138.906 651.542 136.043 651.542 132.189 651.542C128.445 651.432 124.647 651.322 120.793 651.212C120.793 654.295 120.793 657.103 120.793 659.635C120.793 662.168 120.848 664.37 120.958 666.242C121.068 669.655 120.683 673.178 119.802 676.812C118.921 680.445 117.875 683.804 116.664 686.887C116.003 688.648 115.067 690.41 113.856 692.172C112.755 694.044 111.599 695.86 110.388 697.622C109.287 699.494 108.296 701.2 107.415 702.742C106.534 704.394 106.039 705.825 105.929 707.036C102.735 702.852 100.038 697.952 97.8358 692.337C95.6336 686.832 94.5876 681.381 94.6977 675.986C94.8078 671.912 94.8629 666.627 94.8629 660.131C94.973 653.634 95.028 646.753 95.028 639.486C95.1381 632.219 95.1932 625.007 95.1932 617.85C95.3033 610.693 95.3584 604.307 95.3584 598.691C93.927 597.48 92.6607 596.159 91.5597 594.727C90.5687 593.296 90.1283 591.81 90.2384 590.268C90.2384 589.057 90.6238 587.901 91.3945 586.8C92.1653 585.699 93.2663 584.542 94.6977 583.331C95.5786 582.45 96.6796 581.68 98.0009 581.019C99.4323 580.248 100.754 579.918 101.965 580.028C103.506 580.138 104.662 580.358 105.433 580.689C106.314 581.019 107.415 581.184 108.736 581.184C110.168 581.184 112.26 581.184 115.012 581.184C117.765 581.074 120.793 581.019 124.096 581.019C127.399 580.909 130.703 580.854 134.006 580.854C137.309 580.744 140.172 580.634 142.594 580.524C144.576 580.413 146.338 580.358 147.879 580.358C149.421 580.358 150.797 580.469 152.008 580.689C153.219 580.909 154.32 581.349 155.311 582.01C156.302 582.561 157.348 583.386 158.449 584.487C158.89 585.038 159.44 585.864 160.101 586.965C160.872 588.066 161.532 589.277 162.083 590.598C162.744 591.92 163.294 593.241 163.735 594.562C164.175 595.883 164.395 596.985 164.395 597.865C164.505 599.187 164.01 600.343 162.909 601.334C161.918 602.215 160.817 602.765 159.606 602.985C157.734 603.206 155.587 603.371 153.164 603.481C150.852 603.481 148.32 603.481 145.567 603.481C142.814 603.481 140.007 603.426 137.144 603.316C134.281 603.206 131.528 603.151 128.886 603.151H120.298Z" fill="black"/>
<g filter="url(#filter3_d_451_475)">
<rect x="530" y="1" width="247.867" height="247.867" rx="20" fill="white"/>
<rect x="530.5" y="1.5" width="246.867" height="246.867" rx="19.5" stroke="#E5E5E5"/>
</g>
<path d="M690.395 189.285C689.404 188.514 688.523 187.193 687.753 185.321C687.092 183.56 686.542 181.468 686.101 179.045C685.771 176.623 685.44 173.925 685.11 170.952C684.89 168.09 684.725 165.062 684.615 161.869C684.284 154.932 684.174 147.224 684.284 138.746C684.394 130.158 684.615 121.514 684.945 112.816C685.275 104.007 685.551 95.4192 685.771 87.0511C685.991 78.5728 685.991 71.0305 685.771 64.4241C685.771 62.7725 685.661 61.5063 685.44 60.6255C685.22 59.6345 684.89 58.8087 684.449 58.1481C684.119 57.3773 683.679 56.6616 683.128 56.001C682.688 55.2302 682.192 54.3494 681.642 53.3584C680.871 52.0371 680.32 51.1012 679.99 50.5507C679.66 49.8901 679.66 49.0643 679.99 48.0733C680.32 46.9722 680.981 45.9813 681.972 45.1004C683.073 44.2196 684.284 43.4488 685.606 42.7882C686.927 42.1275 688.303 41.6321 689.735 41.3017C691.276 40.8613 692.707 40.586 694.029 40.4759C696.451 40.2557 698.323 40.8063 699.644 42.1275C701.076 43.5589 702.452 45.0454 703.773 46.5869C705.205 48.0182 706.306 49.4496 707.076 50.881C707.847 52.3124 708.343 53.6887 708.563 55.01C708.893 56.2212 709.058 57.6526 709.058 59.3042C709.168 64.1489 709.223 69.5441 709.223 75.4899C709.223 81.3255 709.223 87.3814 709.223 93.6575C709.223 99.8234 709.168 106.044 709.058 112.321C709.058 118.487 709.003 124.267 708.893 129.662C708.893 134.947 708.838 139.682 708.728 143.866C708.618 148.05 708.508 151.243 708.398 153.445C708.288 154.987 707.902 157.189 707.242 160.052C706.691 162.804 705.535 165.447 703.773 167.979C700.58 172.164 697.607 176.017 694.855 179.541C692.102 183.174 690.615 186.422 690.395 189.285ZM582.876 152.95C587.611 151.739 592.125 150.032 596.419 147.83C600.823 145.628 604.787 142.93 608.311 139.737C615.578 133.131 621.964 125.919 627.469 118.101C632.975 110.284 637.324 102.081 640.517 93.4923C638.755 93.6024 636.883 93.7125 634.901 93.8226C632.92 93.9327 630.938 94.0428 628.956 94.1529C626.974 94.1529 625.047 94.1529 623.175 94.1529C621.413 94.1529 619.872 94.1529 618.551 94.1529C617.009 94.0428 615.578 93.8777 614.256 93.6575C613.045 93.4372 611.724 92.9968 610.293 92.3362C609.192 91.7856 608.035 91.07 606.824 90.1891C605.613 89.1981 604.457 88.2072 603.356 87.2162C602.255 86.1152 601.319 85.0691 600.548 84.0782C599.777 82.9771 599.227 82.0412 598.897 81.2705C598.456 80.2795 598.621 79.2885 599.392 78.2976C600.273 77.1965 601.649 75.9853 603.521 74.6641C605.393 73.2327 606.769 72.4069 607.65 72.1867C608.531 71.9664 609.357 72.0215 610.127 72.3518C611.008 72.572 611.944 72.9024 612.935 73.3428C613.816 73.6731 614.807 73.8933 615.908 74.0034C617.119 74.1135 618.165 74.1686 619.046 74.1686C620.698 74.1686 622.845 74.1135 625.487 74.0034C628.24 73.7832 630.993 73.618 633.745 73.5079C636.608 73.2877 639.251 73.1226 641.673 73.0125C644.206 72.7922 646.132 72.6271 647.454 72.517C648.995 72.2968 650.537 71.9664 652.078 71.526C653.62 70.9755 655.161 70.8103 656.703 71.0305C658.244 71.2507 659.675 71.8013 660.997 72.6821C662.428 73.4529 663.639 74.2787 664.63 75.1595C667.273 77.4718 668.704 79.8391 668.924 82.2614C669.035 83.913 668.759 85.2343 668.099 86.2253C667.438 87.2162 666.943 88.3173 666.612 89.5285C664.961 95.1439 662.979 100.814 660.666 106.54C658.354 112.155 655.712 117.661 652.739 123.056C649.876 128.341 646.683 133.406 643.159 138.251C639.746 143.095 636.058 147.5 632.094 151.463C628.791 154.767 625.487 157.079 622.184 158.4C618.881 159.611 615.523 160.437 612.109 160.878C610.238 161.098 608.586 161.153 607.155 161.043C605.723 160.823 604.402 160.492 603.191 160.052C601.98 159.611 600.823 159.061 599.722 158.4C598.621 157.74 597.41 156.969 596.089 156.088C594.768 155.317 593.501 154.767 592.29 154.436C591.079 153.996 589.923 153.721 588.822 153.611C587.721 153.5 586.675 153.445 585.684 153.445C584.693 153.335 583.757 153.17 582.876 152.95Z" fill="black"/>
<g filter="url(#filter4_d_451_475)">
<rect x="530.133" y="1.13306" width="247.867" height="247.867" rx="20" fill="white"/>
<rect x="530.633" y="1.63306" width="246.867" height="246.867" rx="19.5" stroke="#E5E5E5"/>
</g>
<path d="M694.715 127.153C698.239 130.016 700.661 132.658 701.982 135.081C703.304 137.503 703.414 139.485 702.313 141.026C700.991 142.898 699.285 144.55 697.193 145.981C695.101 147.302 692.348 147.688 688.935 147.137C687.834 146.917 686.512 146.807 684.971 146.807C683.54 146.697 681.888 146.532 680.016 146.311C679.686 151.597 679.08 156.772 678.199 161.836C677.429 166.901 675.777 171.911 673.245 176.866C672.144 175.985 670.877 175.104 669.446 174.223C668.125 173.343 666.748 172.517 665.317 171.746C663.996 170.975 662.674 170.26 661.353 169.599C660.142 168.938 659.096 168.333 658.215 167.782C657.004 167.122 656.178 166.02 655.738 164.479C655.297 163.048 655.077 161.341 655.077 159.359C655.077 157.377 655.187 155.23 655.407 152.918C655.738 150.495 656.068 148.018 656.398 145.486H651.113C645.277 145.486 639.662 145.541 634.267 145.651C628.982 145.761 624.522 146.256 620.889 147.137C618.026 147.798 615.494 147.523 613.291 146.311C611.199 145.1 609.162 142.733 607.181 139.21C606.08 137.228 605.584 135.191 605.694 133.099C605.804 131.007 606.465 129.3 607.676 127.979C608.006 125.006 609.328 121.978 611.64 118.895C614.833 114.601 618.411 109.701 622.375 104.196C626.449 98.6903 630.523 93.24 634.597 87.8448C638.781 82.3394 642.8 77.2745 646.654 72.65C650.508 67.9155 653.866 64.1718 656.729 61.4192C658.6 59.6574 660.142 58.116 661.353 56.7947C662.564 55.4734 663.61 54.3723 664.491 53.4915C665.482 52.6106 666.363 52.005 667.134 51.6747C667.904 51.2343 668.785 51.0691 669.776 51.1792C671.538 50.959 673.3 51.3444 675.061 52.3354C676.933 53.3263 678.475 54.5925 679.686 56.134C681.007 57.6755 681.943 59.3271 682.494 61.0888C683.154 62.8505 683.154 64.337 682.494 65.5482C682.053 66.429 681.668 68.0256 681.337 70.3378C681.117 72.65 680.952 75.2926 680.842 78.2655C680.732 81.4586 680.677 85.037 680.677 89.0009C680.677 92.8546 680.677 96.8185 680.677 100.892C680.677 104.966 680.677 108.985 680.677 112.949C680.677 116.913 680.677 120.546 680.677 123.85C684.42 123.74 687.173 123.905 688.935 124.345C690.696 124.675 692.623 125.611 694.715 127.153ZM630.633 124.345C634.377 124.235 637.955 124.18 641.369 124.18C644.782 124.18 648.746 124.235 653.26 124.345H657.554C657.775 118.509 657.885 112.454 657.885 106.178C657.995 99.9014 657.94 93.9557 657.72 88.3402C655.407 91.203 653.04 94.2309 650.618 97.424C648.195 100.617 645.773 103.81 643.351 107.003C641.038 110.086 638.781 113.169 636.579 116.252C634.377 119.225 632.395 121.923 630.633 124.345Z" fill="black"/>
<g filter="url(#filter5_d_451_475)">
<rect x="266" y="264" width="247.867" height="247.867" rx="20" fill="white"/>
<rect x="266.5" y="264.5" width="246.867" height="246.867" rx="19.5" stroke="#E5E5E5"/>
</g>
<path d="M426.395 452.285C425.404 451.514 424.523 450.193 423.753 448.321C423.092 446.56 422.542 444.468 422.101 442.045C421.771 439.623 421.44 436.925 421.11 433.952C420.89 431.09 420.725 428.062 420.615 424.869C420.284 417.932 420.174 410.224 420.284 401.746C420.394 393.158 420.615 384.514 420.945 375.816C421.275 367.007 421.551 358.419 421.771 350.051C421.991 341.573 421.991 334.031 421.771 327.424C421.771 325.773 421.661 324.506 421.44 323.625C421.22 322.634 420.89 321.809 420.449 321.148C420.119 320.377 419.679 319.662 419.128 319.001C418.688 318.23 418.192 317.349 417.642 316.358C416.871 315.037 416.32 314.101 415.99 313.551C415.66 312.89 415.66 312.064 415.99 311.073C416.32 309.972 416.981 308.981 417.972 308.1C419.073 307.22 420.284 306.449 421.606 305.788C422.927 305.128 424.303 304.632 425.735 304.302C427.276 303.861 428.707 303.586 430.029 303.476C432.451 303.256 434.323 303.806 435.644 305.128C437.076 306.559 438.452 308.045 439.773 309.587C441.205 311.018 442.306 312.45 443.076 313.881C443.847 315.312 444.343 316.689 444.563 318.01C444.893 319.221 445.058 320.653 445.058 322.304C445.168 327.149 445.223 332.544 445.223 338.49C445.223 344.326 445.223 350.381 445.223 356.657C445.223 362.823 445.168 369.044 445.058 375.321C445.058 381.487 445.003 387.267 444.893 392.662C444.893 397.947 444.838 402.682 444.728 406.866C444.618 411.05 444.508 414.243 444.398 416.445C444.288 417.987 443.902 420.189 443.242 423.052C442.691 425.804 441.535 428.447 439.773 430.979C436.58 435.164 433.607 439.017 430.855 442.541C428.102 446.174 426.615 449.422 426.395 452.285ZM318.876 415.95C323.611 414.739 328.125 413.032 332.419 410.83C336.823 408.628 340.787 405.93 344.311 402.737C351.578 396.131 357.964 388.919 363.469 381.101C368.975 373.284 373.324 365.081 376.517 356.492C374.755 356.602 372.883 356.713 370.901 356.823C368.92 356.933 366.938 357.043 364.956 357.153C362.974 357.153 361.047 357.153 359.175 357.153C357.413 357.153 355.872 357.153 354.551 357.153C353.009 357.043 351.578 356.878 350.256 356.657C349.045 356.437 347.724 355.997 346.293 355.336C345.192 354.786 344.035 354.07 342.824 353.189C341.613 352.198 340.457 351.207 339.356 350.216C338.255 349.115 337.319 348.069 336.548 347.078C335.777 345.977 335.227 345.041 334.897 344.27C334.456 343.279 334.621 342.289 335.392 341.298C336.273 340.197 337.649 338.985 339.521 337.664C341.393 336.233 342.769 335.407 343.65 335.187C344.531 334.966 345.357 335.021 346.127 335.352C347.008 335.572 347.944 335.902 348.935 336.343C349.816 336.673 350.807 336.893 351.908 337.003C353.119 337.114 354.165 337.169 355.046 337.169C356.698 337.169 358.845 337.114 361.487 337.003C364.24 336.783 366.993 336.618 369.745 336.508C372.608 336.288 375.251 336.123 377.673 336.012C380.206 335.792 382.132 335.627 383.454 335.517C384.995 335.297 386.537 334.966 388.078 334.526C389.62 333.975 391.161 333.81 392.703 334.031C394.244 334.251 395.675 334.801 396.997 335.682C398.428 336.453 399.639 337.279 400.63 338.16C403.273 340.472 404.704 342.839 404.924 345.261C405.035 346.913 404.759 348.234 404.099 349.225C403.438 350.216 402.943 351.317 402.612 352.528C400.961 358.144 398.979 363.814 396.666 369.54C394.354 375.155 391.712 380.661 388.739 386.056C385.876 391.341 382.683 396.406 379.159 401.251C375.746 406.095 372.058 410.5 368.094 414.463C364.791 417.767 361.487 420.079 358.184 421.4C354.881 422.611 351.523 423.437 348.109 423.878C346.238 424.098 344.586 424.153 343.155 424.043C341.723 423.823 340.402 423.492 339.191 423.052C337.98 422.611 336.823 422.061 335.722 421.4C334.621 420.74 333.41 419.969 332.089 419.088C330.768 418.317 329.501 417.767 328.29 417.436C327.079 416.996 325.923 416.721 324.822 416.611C323.721 416.5 322.675 416.445 321.684 416.445C320.693 416.335 319.757 416.17 318.876 415.95Z" fill="black"/>
<g filter="url(#filter6_d_451_475)">
<rect x="266.133" y="264.133" width="247.867" height="247.867" rx="20" fill="white"/>
<rect x="266.633" y="264.633" width="246.867" height="246.867" rx="19.5" stroke="#E5E5E5"/>
</g>
<path d="M437.806 368.187C438.467 374.683 438.357 381.289 437.476 388.006C436.595 394.612 434.944 400.888 432.521 406.834C430.209 412.78 427.126 418.065 423.272 422.689C419.529 427.204 415.179 430.562 410.225 432.764C409.674 432.984 409.179 433.149 408.738 433.26C408.408 433.37 407.967 433.48 407.417 433.59C406.096 434.801 403.838 435.902 400.645 436.893C397.562 437.884 393.378 438.325 388.093 438.214C383.028 438.214 378.239 437.168 373.724 435.076C369.32 432.984 365.301 430.232 361.668 426.818C358.034 423.295 354.841 419.276 352.088 414.762C349.446 410.137 347.244 405.293 345.482 400.228C343.83 395.053 342.729 389.767 342.179 384.372C341.738 378.977 341.903 373.747 342.674 368.682C343.335 364.718 344.271 360.644 345.482 356.46C346.693 352.276 348.345 348.202 350.437 344.238C352.529 340.164 355.061 336.256 358.034 332.512C361.007 328.658 364.585 325.135 368.769 321.942C368.99 321.281 369.32 320.786 369.76 320.455C373.944 316.822 379.23 314.95 385.616 314.84C391.561 314.62 397.452 315.941 403.288 318.804C409.123 321.666 414.464 325.575 419.308 330.53C424.263 335.485 428.392 341.21 431.695 347.707C434.999 354.203 437.036 361.03 437.806 368.187ZM391.561 413.606C394.975 412.615 398.003 410.908 400.645 408.486C403.398 406.063 405.655 403.145 407.417 399.732C409.289 396.209 410.665 392.3 411.546 388.006C412.427 383.712 412.812 379.142 412.702 374.297C412.482 369.893 411.656 365.709 410.225 361.745C408.903 357.671 406.976 354.038 404.444 350.845C402.022 347.542 399.104 344.734 395.69 342.422C392.387 340.109 388.754 338.458 384.79 337.467C383.579 338.568 382.147 340.054 380.496 341.926C378.844 343.798 377.193 346.11 375.541 348.863C373.999 351.505 372.568 354.643 371.247 358.277C369.926 361.8 368.99 365.764 368.439 370.168C367.558 376.885 367.668 382.886 368.769 388.171C369.981 393.346 371.687 397.805 373.889 401.549C376.091 405.293 378.679 408.21 381.652 410.302C384.735 412.284 387.763 413.385 390.736 413.606H391.396H391.561Z" fill="black"/>
<g filter="url(#filter7_d_451_475)">
<rect x="530" y="528" width="247.867" height="247.867" rx="20" fill="white"/>
<rect x="530.5" y="528.5" width="246.867" height="246.867" rx="19.5" stroke="#E5E5E5"/>
</g>
<path d="M690.395 716.285C689.404 715.514 688.523 714.193 687.753 712.321C687.092 710.56 686.542 708.468 686.101 706.045C685.771 703.623 685.44 700.925 685.11 697.952C684.89 695.09 684.725 692.062 684.615 688.869C684.284 681.932 684.174 674.224 684.284 665.746C684.394 657.158 684.615 648.514 684.945 639.816C685.275 631.007 685.551 622.419 685.771 614.051C685.991 605.573 685.991 598.031 685.771 591.424C685.771 589.773 685.661 588.506 685.44 587.625C685.22 586.634 684.89 585.809 684.449 585.148C684.119 584.377 683.679 583.662 683.128 583.001C682.688 582.23 682.192 581.349 681.642 580.358C680.871 579.037 680.32 578.101 679.99 577.551C679.66 576.89 679.66 576.064 679.99 575.073C680.32 573.972 680.981 572.981 681.972 572.1C683.073 571.22 684.284 570.449 685.606 569.788C686.927 569.128 688.303 568.632 689.735 568.302C691.276 567.861 692.707 567.586 694.029 567.476C696.451 567.256 698.323 567.806 699.644 569.128C701.076 570.559 702.452 572.045 703.773 573.587C705.205 575.018 706.306 576.45 707.076 577.881C707.847 579.312 708.343 580.689 708.563 582.01C708.893 583.221 709.058 584.653 709.058 586.304C709.168 591.149 709.223 596.544 709.223 602.49C709.223 608.326 709.223 614.381 709.223 620.657C709.223 626.823 709.168 633.044 709.058 639.321C709.058 645.487 709.003 651.267 708.893 656.662C708.893 661.947 708.838 666.682 708.728 670.866C708.618 675.05 708.508 678.243 708.398 680.445C708.288 681.987 707.902 684.189 707.242 687.052C706.691 689.804 705.535 692.447 703.773 694.979C700.58 699.164 697.607 703.017 694.855 706.541C692.102 710.174 690.615 713.422 690.395 716.285ZM582.876 679.95C587.611 678.739 592.125 677.032 596.419 674.83C600.823 672.628 604.787 669.93 608.311 666.737C615.578 660.131 621.964 652.919 627.469 645.101C632.975 637.284 637.324 629.081 640.517 620.492C638.755 620.602 636.883 620.713 634.901 620.823C632.92 620.933 630.938 621.043 628.956 621.153C626.974 621.153 625.047 621.153 623.175 621.153C621.413 621.153 619.872 621.153 618.551 621.153C617.009 621.043 615.578 620.878 614.256 620.657C613.045 620.437 611.724 619.997 610.293 619.336C609.192 618.786 608.035 618.07 606.824 617.189C605.613 616.198 604.457 615.207 603.356 614.216C602.255 613.115 601.319 612.069 600.548 611.078C599.777 609.977 599.227 609.041 598.897 608.27C598.456 607.279 598.621 606.289 599.392 605.298C600.273 604.197 601.649 602.985 603.521 601.664C605.393 600.233 606.769 599.407 607.65 599.187C608.531 598.966 609.357 599.021 610.127 599.352C611.008 599.572 611.944 599.902 612.935 600.343C613.816 600.673 614.807 600.893 615.908 601.003C617.119 601.114 618.165 601.169 619.046 601.169C620.698 601.169 622.845 601.114 625.487 601.003C628.24 600.783 630.993 600.618 633.745 600.508C636.608 600.288 639.251 600.123 641.673 600.012C644.206 599.792 646.132 599.627 647.454 599.517C648.995 599.297 650.537 598.966 652.078 598.526C653.62 597.975 655.161 597.81 656.703 598.031C658.244 598.251 659.675 598.801 660.997 599.682C662.428 600.453 663.639 601.279 664.63 602.16C667.273 604.472 668.704 606.839 668.924 609.261C669.035 610.913 668.759 612.234 668.099 613.225C667.438 614.216 666.943 615.317 666.612 616.528C664.961 622.144 662.979 627.814 660.666 633.54C658.354 639.155 655.712 644.661 652.739 650.056C649.876 655.341 646.683 660.406 643.159 665.251C639.746 670.095 636.058 674.5 632.094 678.463C628.791 681.767 625.487 684.079 622.184 685.4C618.881 686.611 615.523 687.437 612.109 687.878C610.238 688.098 608.586 688.153 607.155 688.043C605.723 687.823 604.402 687.492 603.191 687.052C601.98 686.611 600.823 686.061 599.722 685.4C598.621 684.74 597.41 683.969 596.089 683.088C594.768 682.317 593.501 681.767 592.29 681.436C591.079 680.996 589.923 680.721 588.822 680.611C587.721 680.5 586.675 680.445 585.684 680.445C584.693 680.335 583.757 680.17 582.876 679.95Z" fill="black"/>
<g filter="url(#filter8_d_451_475)">
<rect x="530.133" y="528.133" width="247.867" height="247.867" rx="20" fill="white"/>
<rect x="530.633" y="528.633" width="246.867" height="246.867" rx="19.5" stroke="#E5E5E5"/>
</g>
<path d="M653.437 579.666C659.823 579.886 665.769 581.537 671.274 584.62C676.89 587.703 681.734 591.832 685.808 597.007C689.882 602.072 693.075 608.018 695.388 614.845C697.7 621.561 698.856 628.663 698.856 636.15C698.856 639.233 698.691 642.647 698.361 646.39C698.03 650.134 697.425 653.878 696.544 657.621C695.773 661.255 694.727 664.833 693.406 668.357C692.084 671.77 690.433 674.798 688.451 677.44C687.24 680.633 685.478 683.606 683.166 686.359C680.964 689.112 678.321 691.479 675.238 693.461C672.265 695.553 668.907 697.149 665.163 698.251C661.53 699.462 657.621 700.067 653.437 700.067C649.914 700.067 646.335 699.627 642.702 698.746C639.068 697.975 635.71 696.929 632.627 695.608C631.416 697.149 630.204 698.471 628.993 699.572C627.782 700.783 626.681 701.829 625.69 702.71L617.928 692.635C616.716 690.984 615.725 688.891 614.955 686.359C614.184 683.827 613.799 681.569 613.799 679.587C613.799 676.504 613.799 672.32 613.799 667.035C613.799 661.75 613.799 656.245 613.799 650.519C613.909 644.684 613.964 639.123 613.964 633.838C614.074 628.553 614.129 624.424 614.129 621.451C614.129 618.698 614.074 615.726 613.964 612.533C613.964 609.229 613.799 605.265 613.468 600.641C613.358 599.54 613.193 598.329 612.973 597.007C612.753 595.576 612.147 594.2 611.156 592.878C609.945 591.227 609.394 589.906 609.504 588.915C609.615 587.814 610.275 586.602 611.486 585.281C612.477 584.29 613.799 583.299 615.45 582.308C617.102 581.207 618.698 580.216 620.24 579.335C621.781 578.565 623.158 578.289 624.369 578.51C625.69 578.73 627.066 579.28 628.498 580.161C630.59 581.593 632.407 583.134 633.948 584.786C636.26 583.464 639.068 582.253 642.371 581.152C645.785 579.941 649.473 579.445 653.437 579.666ZM668.301 666.705C670.063 663.182 671.439 658.942 672.43 653.988C673.421 649.033 673.917 643.803 673.917 638.297C673.917 633.453 673.421 628.938 672.43 624.754C671.439 620.46 669.953 616.717 667.971 613.523C665.989 610.33 663.512 607.798 660.539 605.926C657.566 604.054 654.098 603.008 650.134 602.788C648.042 602.678 646.06 602.898 644.188 603.449C642.426 603.889 640.555 604.55 638.573 605.431C638.793 610.385 638.958 615.891 639.068 621.947C639.178 628.003 639.233 634.168 639.233 640.445C639.233 646.611 639.178 652.721 639.068 658.777C638.958 664.723 638.848 670.063 638.738 674.798C641.38 675.679 643.968 676.284 646.5 676.615C649.143 676.835 651.62 676.835 653.932 676.615C657.126 676.394 659.823 675.403 662.025 673.642C664.338 671.77 666.43 669.458 668.301 666.705Z" fill="black"/>
<g filter="url(#filter9_d_451_475)">
<rect x="2" y="264.133" width="247.867" height="247.867" rx="20" fill="#F3F3F3"/>
<rect x="2.5" y="264.633" width="246.867" height="246.867" rx="19.5" stroke="#E5E5E5"/>
</g>
<path d="M170.297 331.356C170.407 333.558 170.462 336.751 170.462 340.935C170.462 345.119 170.462 349.854 170.462 355.139C170.462 360.314 170.407 365.764 170.297 371.49C170.187 377.105 170.077 382.555 169.967 387.841C169.857 393.016 169.691 397.75 169.471 402.044C169.361 406.228 169.251 409.422 169.141 411.624C168.921 414.156 168.535 416.909 167.985 419.882C167.434 422.855 166.663 425.552 165.673 427.974C165.342 428.855 164.682 429.736 163.691 430.617C162.81 431.498 161.764 432.269 160.553 432.929C159.341 433.59 158.075 434.14 156.754 434.581C155.433 435.021 154.221 435.242 153.12 435.242C151.138 435.242 149.487 434.636 148.166 433.425C146.844 432.324 146.018 431.168 145.688 429.956C145.468 429.186 145.248 428.14 145.028 426.818C144.037 425.827 143.101 424.781 142.22 423.68C141.449 422.579 140.733 421.533 140.073 420.542C138.091 417.129 135.834 413.385 133.301 409.311C130.769 405.237 128.071 400.998 125.208 396.594C122.456 392.08 119.593 387.51 116.62 382.886C113.757 378.151 110.894 373.527 108.032 369.012C108.032 375.399 108.032 381.454 108.032 387.18C108.032 392.795 107.977 397.53 107.867 401.384C107.756 408.431 107.206 413.991 106.215 418.065C105.224 422.029 103.903 425.222 102.251 427.644C100.71 430.177 98.8928 432.269 96.8008 433.92C94.8189 435.572 92.7819 437.609 90.6899 440.031C90.8 437.719 90.1393 435.297 88.7079 432.764C87.3867 430.342 86.1755 427.864 85.0744 425.332C83.7531 422.139 82.9273 418.615 82.597 414.762C82.3768 410.908 82.3768 406.559 82.597 401.714C82.7071 396.539 82.8172 391.254 82.9273 385.859C83.0375 380.353 83.0925 375.013 83.0925 369.838C83.0925 364.663 83.0925 359.653 83.0925 354.809C83.0925 349.964 83.0375 345.56 82.9273 341.596C82.8172 337.742 82.7071 334.879 82.597 333.007C82.4869 331.136 81.7712 329.429 80.4499 327.888C78.5781 325.795 77.9725 324.144 78.6332 322.933C79.2938 321.611 80.8904 319.905 83.4228 317.813C85.9553 315.611 88.5428 314.62 91.1853 314.84C93.8279 315.06 96.4154 316.106 98.9479 317.978C102.031 320.29 104.233 322.492 105.554 324.584C106.876 325.575 108.142 326.952 109.353 328.713L144.862 385.363C144.972 380.959 145.083 376.445 145.193 371.82C145.303 367.196 145.413 362.846 145.523 358.772C145.633 354.588 145.688 350.9 145.688 347.707C145.798 344.404 145.853 341.926 145.853 340.275C145.853 338.182 145.798 336.421 145.688 334.989C145.688 333.558 145.578 332.292 145.358 331.191C145.138 329.98 144.807 328.878 144.367 327.888C144.037 326.786 143.486 325.575 142.715 324.254C142.165 323.263 142.11 322.327 142.55 321.446C142.991 320.455 143.651 319.409 144.532 318.308C145.523 317.097 146.514 316.161 147.505 315.501C148.606 314.73 149.762 314.014 150.973 313.353C152.405 312.583 154.001 312.197 155.763 312.197C157.635 312.087 159.341 312.748 160.883 314.179C163.856 316.932 166.113 319.574 167.654 322.107C169.196 324.639 170.077 327.722 170.297 331.356Z" fill="black"/>
<g filter="url(#filter10_d_451_475)">
<rect x="530" y="264" width="247.867" height="247.867" rx="20" fill="#F3F3F3"/>
<rect x="530.5" y="264.5" width="246.867" height="246.867" rx="19.5" stroke="#E5E5E5"/>
</g>
<path d="M700.424 327.259C701.195 328.36 701.69 329.296 701.911 330.067C702.241 330.727 702.351 331.388 702.241 332.049C702.241 332.709 701.966 333.425 701.415 334.196C700.975 334.856 700.369 335.682 699.598 336.673C698.717 337.774 697.231 338.49 695.139 338.82C693.157 339.15 690.514 339.261 687.211 339.151C685.119 339.04 682.312 338.985 678.788 338.985C675.265 338.985 671.301 338.985 666.897 338.985C666.786 342.068 666.676 345.592 666.566 349.556C666.566 353.519 666.566 357.593 666.566 361.777C666.566 368.384 666.621 375.596 666.731 383.413C666.842 391.231 666.897 398.773 666.897 406.04C666.897 411.325 666.456 415.895 665.575 419.749C664.694 423.602 663.483 426.795 661.942 429.328C660.841 431.2 659.354 433.127 657.482 435.108C655.611 437.09 653.574 438.797 651.372 440.228C651.702 438.357 651.206 436.485 649.885 434.613C648.674 432.851 646.637 430.154 643.774 426.52C641.572 423.657 640.416 419.473 640.306 413.968C640.196 408.463 640.251 402.242 640.471 395.305C640.581 392.552 640.691 388.699 640.801 383.744C640.911 378.789 641.022 373.559 641.132 368.053C641.242 362.548 641.352 357.208 641.462 352.033C641.572 346.858 641.627 342.619 641.627 339.316C638.985 339.426 636.342 339.536 633.699 339.646C631.057 339.646 628.469 339.756 625.937 339.976C624.395 340.086 622.689 339.866 620.817 339.316C618.945 338.655 617.018 337.499 615.036 335.847C613.495 334.636 612.119 333.535 610.907 332.544C609.806 331.443 608.485 329.957 606.944 328.085C606.393 327.534 606.008 326.763 605.787 325.773C605.677 324.671 605.897 323.46 606.448 322.139C606.999 320.928 607.879 319.772 609.091 318.671C610.412 317.459 611.568 316.469 612.559 315.698C613.44 315.147 614.376 314.927 615.367 315.037C616.468 315.037 617.624 315.257 618.835 315.698C620.377 316.248 621.643 316.634 622.634 316.854C623.625 317.074 624.946 317.184 626.598 317.184C627.699 317.184 629.405 317.184 631.718 317.184C634.14 317.184 636.782 317.184 639.645 317.184C642.618 317.074 645.701 317.019 648.894 317.019C652.087 316.909 655.06 316.854 657.813 316.854C660.676 316.744 663.153 316.689 665.245 316.689C667.447 316.579 668.989 316.524 669.869 316.524C672.732 316.413 675.265 316.303 677.467 316.193C679.779 315.973 681.871 315.753 683.743 315.533C685.945 315.312 687.652 315.588 688.863 316.358C690.184 317.129 691.395 317.955 692.496 318.836C693.487 319.717 694.754 320.928 696.295 322.469C697.837 324.011 699.213 325.607 700.424 327.259Z" fill="black"/>
<g filter="url(#filter11_d_451_475)">
<rect x="266" y="528" width="247.867" height="247.867" rx="20" fill="#F3F3F3"/>
<rect x="266.5" y="528.5" width="246.867" height="246.867" rx="19.5" stroke="#E5E5E5"/>
</g>
<path d="M434.297 595.223C434.407 597.425 434.462 600.618 434.462 604.802C434.462 608.986 434.462 613.721 434.462 619.006C434.462 624.181 434.407 629.631 434.297 635.357C434.187 640.972 434.077 646.422 433.967 651.708C433.857 656.883 433.691 661.617 433.471 665.911C433.361 670.095 433.251 673.288 433.141 675.491C432.921 678.023 432.535 680.776 431.985 683.749C431.434 686.721 430.663 689.419 429.673 691.841C429.342 692.722 428.682 693.603 427.691 694.484C426.81 695.365 425.764 696.136 424.553 696.796C423.341 697.457 422.075 698.007 420.754 698.448C419.433 698.888 418.221 699.108 417.12 699.108C415.138 699.108 413.487 698.503 412.166 697.292C410.844 696.191 410.018 695.035 409.688 693.823C409.468 693.053 409.248 692.007 409.028 690.685C408.037 689.694 407.101 688.648 406.22 687.547C405.449 686.446 404.733 685.4 404.073 684.409C402.091 680.996 399.834 677.252 397.301 673.178C394.769 669.104 392.071 664.865 389.208 660.461C386.456 655.947 383.593 651.377 380.62 646.753C377.757 642.018 374.894 637.394 372.032 632.879C372.032 639.265 372.032 645.321 372.032 651.047C372.032 656.662 371.977 661.397 371.867 665.251C371.756 672.297 371.206 677.858 370.215 681.932C369.224 685.896 367.903 689.089 366.251 691.511C364.71 694.044 362.893 696.136 360.801 697.787C358.819 699.439 356.782 701.476 354.69 703.898C354.8 701.586 354.139 699.164 352.708 696.631C351.387 694.209 350.175 691.731 349.074 689.199C347.753 686.006 346.927 682.482 346.597 678.629C346.377 674.775 346.377 670.426 346.597 665.581C346.707 660.406 346.817 655.121 346.927 649.726C347.037 644.22 347.093 638.88 347.093 633.705C347.093 628.53 347.093 623.52 347.093 618.676C347.093 613.831 347.037 609.427 346.927 605.463C346.817 601.609 346.707 598.746 346.597 596.874C346.487 595.003 345.771 593.296 344.45 591.754C342.578 589.662 341.973 588.011 342.633 586.8C343.294 585.478 344.89 583.772 347.423 581.68C349.955 579.478 352.543 578.487 355.185 578.707C357.828 578.927 360.415 579.973 362.948 581.845C366.031 584.157 368.233 586.359 369.554 588.451C370.876 589.442 372.142 590.819 373.353 592.58L408.862 649.23C408.972 644.826 409.083 640.312 409.193 635.687C409.303 631.063 409.413 626.713 409.523 622.639C409.633 618.455 409.688 614.767 409.688 611.574C409.798 608.27 409.853 605.793 409.853 604.141C409.853 602.049 409.798 600.288 409.688 598.856C409.688 597.425 409.578 596.159 409.358 595.058C409.138 593.846 408.807 592.745 408.367 591.754C408.037 590.653 407.486 589.442 406.715 588.121C406.165 587.13 406.11 586.194 406.55 585.313C406.991 584.322 407.651 583.276 408.532 582.175C409.523 580.964 410.514 580.028 411.505 579.367C412.606 578.597 413.762 577.881 414.973 577.22C416.405 576.45 418.001 576.064 419.763 576.064C421.635 575.954 423.341 576.615 424.883 578.046C427.856 580.799 430.113 583.441 431.654 585.974C433.196 588.506 434.077 591.589 434.297 595.223Z" fill="black"/>
<path d="M434.276 100.925C435.047 109.403 434.992 117.331 434.111 124.708C433.23 132.085 431.578 138.802 429.156 144.858C426.844 150.803 423.816 155.978 420.072 160.383C416.439 164.787 412.2 168.145 407.355 170.457C404.492 171.779 401.905 172.439 399.592 172.439C396.95 174.531 393.151 175.577 388.196 175.577C381.7 175.467 375.754 173.65 370.359 170.127C364.964 166.714 360.339 162.199 356.486 156.584C352.742 150.968 349.879 144.637 347.897 137.591C346.026 130.434 345.255 123.222 345.585 115.955C345.805 110.339 346.576 104.724 347.897 99.1082C349.329 93.4928 351.201 88.2077 353.513 83.2529C355.825 78.188 358.468 73.6185 361.44 69.5446C364.523 65.3605 367.827 62.0023 371.35 59.4698C371.57 58.6991 371.846 58.1485 372.176 57.8182C374.598 55.3959 376.965 53.7993 379.278 53.0286C381.59 52.1477 384.343 51.7073 387.536 51.7073C393.371 51.7073 398.987 53.0286 404.382 55.6711C409.777 58.3137 414.567 61.8922 418.751 66.4065C423.045 70.8108 426.569 76.0409 429.321 82.0967C432.074 88.0425 433.725 94.3186 434.276 100.925ZM392.986 152.29C395.959 151.409 398.601 149.702 400.914 147.17C403.336 144.527 405.318 141.334 406.859 137.591C408.511 133.847 409.722 129.608 410.493 124.873C411.264 120.139 411.539 115.129 411.319 109.844C411.099 105.439 410.383 101.31 409.172 97.4566C407.961 93.4928 406.309 89.9143 404.217 86.7212C402.125 83.5281 399.647 80.8305 396.785 78.6284C393.922 76.3161 390.784 74.6095 387.371 73.5084C385.719 74.8297 383.902 76.8667 381.92 79.6193C379.938 82.372 378.011 85.6202 376.14 89.3638C374.378 93.1074 372.892 97.1814 371.68 101.586C370.469 105.99 369.809 110.559 369.698 115.294C369.368 135.113 375.864 147.005 389.187 150.968C390.288 151.299 391.445 151.794 392.656 152.455C392.766 152.455 392.821 152.455 392.821 152.455C392.821 152.345 392.876 152.29 392.986 152.29Z" fill="black"/>
<defs>
<filter id="filter0_d_451_475" x="0" y="0" width="251.867" height="251.867" filterUnits="userSpaceOnUse" color-interpolation-filters="sRGB">
<feFlood flood-opacity="0" result="BackgroundImageFix"/>
<feColorMatrix in="SourceAlpha" type="matrix" values="0 0 0 0 0 0 0 0 0 0 0 0 0 0 0 0 0 0 127 0" result="hardAlpha"/>
<feOffset dy="2"/>
<feGaussianBlur stdDeviation="1"/>
<feComposite in2="hardAlpha" operator="out"/>
<feColorMatrix type="matrix" values="0 0 0 0 0 0 0 0 0 0 0 0 0 0 0 0 0 0 0.1 0"/>
<feBlend mode="normal" in2="BackgroundImageFix" result="effect1_dropShadow_451_475"/>
<feBlend mode="normal" in="SourceGraphic" in2="effect1_dropShadow_451_475" result="shape"/>
</filter>
<filter id="filter1_d_451_475" x="264.133" y="0" width="251.867" height="251.867" filterUnits="userSpaceOnUse" color-interpolation-filters="sRGB">
<feFlood flood-opacity="0" result="BackgroundImageFix"/>
<feColorMatrix in="SourceAlpha" type="matrix" values="0 0 0 0 0 0 0 0 0 0 0 0 0 0 0 0 0 0 127 0" result="hardAlpha"/>
<feOffset dy="2"/>
<feGaussianBlur stdDeviation="1"/>
<feComposite in2="hardAlpha" operator="out"/>
<feColorMatrix type="matrix" values="0 0 0 0 0 0 0 0 0 0 0 0 0 0 0 0 0 0 0.1 0"/>
<feBlend mode="normal" in2="BackgroundImageFix" result="effect1_dropShadow_451_475"/>
<feBlend mode="normal" in="SourceGraphic" in2="effect1_dropShadow_451_475" result="shape"/>
</filter>
<filter id="filter2_d_451_475" x="0" y="528" width="251.867" height="251.867" filterUnits="userSpaceOnUse" color-interpolation-filters="sRGB">
<feFlood flood-opacity="0" result="BackgroundImageFix"/>
<feColorMatrix in="SourceAlpha" type="matrix" values="0 0 0 0 0 0 0 0 0 0 0 0 0 0 0 0 0 0 127 0" result="hardAlpha"/>
<feOffset dy="2"/>
<feGaussianBlur stdDeviation="1"/>
<feComposite in2="hardAlpha" operator="out"/>
<feColorMatrix type="matrix" values="0 0 0 0 0 0 0 0 0 0 0 0 0 0 0 0 0 0 0.1 0"/>
<feBlend mode="normal" in2="BackgroundImageFix" result="effect1_dropShadow_451_475"/>
<feBlend mode="normal" in="SourceGraphic" in2="effect1_dropShadow_451_475" result="shape"/>
</filter>
<filter id="filter3_d_451_475" x="528" y="1" width="251.867" height="251.867" filterUnits="userSpaceOnUse" color-interpolation-filters="sRGB">
<feFlood flood-opacity="0" result="BackgroundImageFix"/>
<feColorMatrix in="SourceAlpha" type="matrix" values="0 0 0 0 0 0 0 0 0 0 0 0 0 0 0 0 0 0 127 0" result="hardAlpha"/>
<feOffset dy="2"/>
<feGaussianBlur stdDeviation="1"/>
<feComposite in2="hardAlpha" operator="out"/>
<feColorMatrix type="matrix" values="0 0 0 0 0 0 0 0 0 0 0 0 0 0 0 0 0 0 0.1 0"/>
<feBlend mode="normal" in2="BackgroundImageFix" result="effect1_dropShadow_451_475"/>
<feBlend mode="normal" in="SourceGraphic" in2="effect1_dropShadow_451_475" result="shape"/>
</filter>
<filter id="filter4_d_451_475" x="528.133" y="1.13306" width="251.867" height="251.867" filterUnits="userSpaceOnUse" color-interpolation-filters="sRGB">
<feFlood flood-opacity="0" result="BackgroundImageFix"/>
<feColorMatrix in="SourceAlpha" type="matrix" values="0 0 0 0 0 0 0 0 0 0 0 0 0 0 0 0 0 0 127 0" result="hardAlpha"/>
<feOffset dy="2"/>
<feGaussianBlur stdDeviation="1"/>
<feComposite in2="hardAlpha" operator="out"/>
<feColorMatrix type="matrix" values="0 0 0 0 0 0 0 0 0 0 0 0 0 0 0 0 0 0 0.1 0"/>
<feBlend mode="normal" in2="BackgroundImageFix" result="effect1_dropShadow_451_475"/>
<feBlend mode="normal" in="SourceGraphic" in2="effect1_dropShadow_451_475" result="shape"/>
</filter>
<filter id="filter5_d_451_475" x="264" y="264" width="251.867" height="251.867" filterUnits="userSpaceOnUse" color-interpolation-filters="sRGB">
<feFlood flood-opacity="0" result="BackgroundImageFix"/>
<feColorMatrix in="SourceAlpha" type="matrix" values="0 0 0 0 0 0 0 0 0 0 0 0 0 0 0 0 0 0 127 0" result="hardAlpha"/>
<feOffset dy="2"/>
<feGaussianBlur stdDeviation="1"/>
<feComposite in2="hardAlpha" operator="out"/>
<feColorMatrix type="matrix" values="0 0 0 0 0 0 0 0 0 0 0 0 0 0 0 0 0 0 0.1 0"/>
<feBlend mode="normal" in2="BackgroundImageFix" result="effect1_dropShadow_451_475"/>
<feBlend mode="normal" in="SourceGraphic" in2="effect1_dropShadow_451_475" result="shape"/>
</filter>
<filter id="filter6_d_451_475" x="264.133" y="264.133" width="251.867" height="251.867" filterUnits="userSpaceOnUse" color-interpolation-filters="sRGB">
<feFlood flood-opacity="0" result="BackgroundImageFix"/>
<feColorMatrix in="SourceAlpha" type="matrix" values="0 0 0 0 0 0 0 0 0 0 0 0 0 0 0 0 0 0 127 0" result="hardAlpha"/>
<feOffset dy="2"/>
<feGaussianBlur stdDeviation="1"/>
<feComposite in2="hardAlpha" operator="out"/>
<feColorMatrix type="matrix" values="0 0 0 0 0 0 0 0 0 0 0 0 0 0 0 0 0 0 0.1 0"/>
<feBlend mode="normal" in2="BackgroundImageFix" result="effect1_dropShadow_451_475"/>
<feBlend mode="normal" in="SourceGraphic" in2="effect1_dropShadow_451_475" result="shape"/>
</filter>
<filter id="filter7_d_451_475" x="528" y="528" width="251.867" height="251.867" filterUnits="userSpaceOnUse" color-interpolation-filters="sRGB">
<feFlood flood-opacity="0" result="BackgroundImageFix"/>
<feColorMatrix in="SourceAlpha" type="matrix" values="0 0 0 0 0 0 0 0 0 0 0 0 0 0 0 0 0 0 127 0" result="hardAlpha"/>
<feOffset dy="2"/>
<feGaussianBlur stdDeviation="1"/>
<feComposite in2="hardAlpha" operator="out"/>
<feColorMatrix type="matrix" values="0 0 0 0 0 0 0 0 0 0 0 0 0 0 0 0 0 0 0.1 0"/>
<feBlend mode="normal" in2="BackgroundImageFix" result="effect1_dropShadow_451_475"/>
<feBlend mode="normal" in="SourceGraphic" in2="effect1_dropShadow_451_475" result="shape"/>
</filter>
<filter id="filter8_d_451_475" x="528.133" y="528.133" width="251.867" height="251.867" filterUnits="userSpaceOnUse" color-interpolation-filters="sRGB">
<feFlood flood-opacity="0" result="BackgroundImageFix"/>
<feColorMatrix in="SourceAlpha" type="matrix" values="0 0 0 0 0 0 0 0 0 0 0 0 0 0 0 0 0 0 127 0" result="hardAlpha"/>
<feOffset dy="2"/>
<feGaussianBlur stdDeviation="1"/>
<feComposite in2="hardAlpha" operator="out"/>
<feColorMatrix type="matrix" values="0 0 0 0 0 0 0 0 0 0 0 0 0 0 0 0 0 0 0.1 0"/>
<feBlend mode="normal" in2="BackgroundImageFix" result="effect1_dropShadow_451_475"/>
<feBlend mode="normal" in="SourceGraphic" in2="effect1_dropShadow_451_475" result="shape"/>
</filter>
<filter id="filter9_d_451_475" x="0" y="264.133" width="251.867" height="251.867" filterUnits="userSpaceOnUse" color-interpolation-filters="sRGB">
<feFlood flood-opacity="0" result="BackgroundImageFix"/>
<feColorMatrix in="SourceAlpha" type="matrix" values="0 0 0 0 0 0 0 0 0 0 0 0 0 0 0 0 0 0 127 0" result="hardAlpha"/>
<feOffset dy="2"/>
<feGaussianBlur stdDeviation="1"/>
<feComposite in2="hardAlpha" operator="out"/>
<feColorMatrix type="matrix" values="0 0 0 0 0 0 0 0 0 0 0 0 0 0 0 0 0 0 0.1 0"/>
<feBlend mode="normal" in2="BackgroundImageFix" result="effect1_dropShadow_451_475"/>
<feBlend mode="normal" in="SourceGraphic" in2="effect1_dropShadow_451_475" result="shape"/>
</filter>
<filter id="filter10_d_451_475" x="528" y="264" width="251.867" height="251.867" filterUnits="userSpaceOnUse" color-interpolation-filters="sRGB">
<feFlood flood-opacity="0" result="BackgroundImageFix"/>
<feColorMatrix in="SourceAlpha" type="matrix" values="0 0 0 0 0 0 0 0 0 0 0 0 0 0 0 0 0 0 127 0" result="hardAlpha"/>
<feOffset dy="2"/>
<feGaussianBlur stdDeviation="1"/>
<feComposite in2="hardAlpha" operator="out"/>
<feColorMatrix type="matrix" values="0 0 0 0 0 0 0 0 0 0 0 0 0 0 0 0 0 0 0.1 0"/>
<feBlend mode="normal" in2="BackgroundImageFix" result="effect1_dropShadow_451_475"/>
<feBlend mode="normal" in="SourceGraphic" in2="effect1_dropShadow_451_475" result="shape"/>
</filter>
<filter id="filter11_d_451_475" x="264" y="528" width="251.867" height="251.867" filterUnits="userSpaceOnUse" color-interpolation-filters="sRGB">
<feFlood flood-opacity="0" result="BackgroundImageFix"/>
<feColorMatrix in="SourceAlpha" type="matrix" values="0 0 0 0 0 0 0 0 0 0 0 0 0 0 0 0 0 0 127 0" result="hardAlpha"/>
<feOffset dy="2"/>
<feGaussianBlur stdDeviation="1"/>
<feComposite in2="hardAlpha" operator="out"/>
<feColorMatrix type="matrix" values="0 0 0 0 0 0 0 0 0 0 0 0 0 0 0 0 0 0 0.1 0"/>
<feBlend mode="normal" in2="BackgroundImageFix" result="effect1_dropShadow_451_475"/>
<feBlend mode="normal" in="SourceGraphic" in2="effect1_dropShadow_451_475" result="shape"/>
</filter>
</defs>
</svg>
