<svg width="772" height="756" viewBox="0 0 772 756" fill="none" xmlns="http://www.w3.org/2000/svg">
<g filter="url(#filter0_d_390_453)">
<rect x="2" width="240" height="240" rx="20" fill="white"/>
<rect x="4" y="2" width="236" height="236" rx="18" stroke="#E5E5E5" stroke-width="4"/>
</g>
<g filter="url(#filter1_d_390_453)">
<rect x="266" width="240" height="240" rx="20" fill="#F3F3F3"/>
<rect x="268" y="2" width="236" height="236" rx="18" stroke="#E5E5E5" stroke-width="4"/>
</g>
<g filter="url(#filter2_d_390_453)">
<rect x="266" y="256" width="240" height="240" rx="20" fill="white"/>
<rect x="268" y="258" width="236" height="236" rx="18" stroke="#E5E5E5" stroke-width="4"/>
</g>
<g filter="url(#filter3_d_390_453)">
<rect x="530" width="240" height="240" rx="20" fill="white"/>
<rect x="532" y="2" width="236" height="236" rx="18" stroke="#E5E5E5" stroke-width="4"/>
</g>
<g filter="url(#filter4_d_390_453)">
<rect x="2" y="512" width="240" height="240" rx="20" fill="white"/>
<rect x="4" y="514" width="236" height="236" rx="18" stroke="#E5E5E5" stroke-width="4"/>
</g>
<g filter="url(#filter5_d_390_453)">
<rect x="530" y="512" width="240" height="240" rx="20" fill="white"/>
<rect x="532" y="514" width="236" height="236" rx="18" stroke="#E5E5E5" stroke-width="4"/>
</g>
<g filter="url(#filter6_d_390_453)">
<rect x="2" y="256" width="240" height="240" rx="20" fill="#F3F3F3"/>
<rect x="4" y="258" width="236" height="236" rx="18" stroke="#E5E5E5" stroke-width="4"/>
</g>
<g filter="url(#filter7_d_390_453)">
<rect x="530" y="256" width="240" height="240" rx="20" fill="#F3F3F3"/>
<rect x="532" y="258" width="236" height="236" rx="18" stroke="#E5E5E5" stroke-width="4"/>
</g>
<g filter="url(#filter8_d_390_453)">
<rect x="266" y="512" width="240" height="240" rx="20" fill="#F3F3F3"/>
<rect x="268" y="514" width="236" height="236" rx="18" stroke="#E5E5E5" stroke-width="4"/>
</g>
<path d="M169.104 134.992C173.201 138.32 176.017 141.392 177.553 144.208C179.089 147.024 179.217 149.328 177.937 151.12C176.401 153.296 174.417 155.216 171.985 156.88C169.553 158.416 166.353 158.864 162.385 158.224C161.105 157.968 159.569 157.84 157.777 157.84C156.113 157.712 154.193 157.52 152.017 157.264C151.633 163.408 150.929 169.424 149.905 175.312C149.009 181.2 147.089 187.024 144.145 192.784C142.865 191.76 141.393 190.736 139.729 189.712C138.193 188.688 136.593 187.728 134.929 186.832C133.393 185.936 131.857 185.104 130.321 184.336C128.913 183.568 127.697 182.864 126.673 182.224C125.265 181.456 124.305 180.176 123.793 178.384C123.281 176.72 123.025 174.736 123.025 172.432C123.025 170.128 123.153 167.632 123.409 164.944C123.793 162.128 124.177 159.248 124.561 156.304H118.417C111.633 156.304 105.105 156.368 98.8325 156.496C92.6885 156.624 87.5045 157.2 83.2805 158.224C79.9525 158.992 77.0085 158.672 74.4485 157.264C72.0165 155.856 69.6485 153.104 67.3445 149.008C66.0645 146.704 65.4885 144.336 65.6165 141.904C65.7445 139.472 66.5125 137.488 67.9205 135.952C68.3045 132.496 69.8405 128.976 72.5285 125.392C76.2405 120.4 80.4005 114.704 85.0085 108.304C89.7445 101.904 94.4805 95.568 99.2165 89.296C104.081 82.896 108.753 77.008 113.233 71.632C117.713 66.128 121.617 61.776 124.945 58.576C127.121 56.528 128.913 54.736 130.321 53.2C131.729 51.664 132.945 50.384 133.969 49.36C135.121 48.336 136.145 47.632 137.041 47.248C137.937 46.736 138.961 46.544 140.113 46.672C142.161 46.416 144.209 46.864 146.257 48.016C148.433 49.168 150.225 50.64 151.633 52.432C153.169 54.224 154.257 56.144 154.897 58.192C155.665 60.24 155.665 61.968 154.897 63.376C154.385 64.4 153.937 66.256 153.553 68.944C153.297 71.632 153.105 74.704 152.977 78.16C152.849 81.872 152.785 86.032 152.785 90.64C152.785 95.12 152.785 99.728 152.785 104.464C152.785 109.2 152.785 113.872 152.785 118.48C152.785 123.088 152.785 127.312 152.785 131.152C157.137 131.024 160.337 131.216 162.385 131.728C164.433 132.112 166.673 133.2 169.104 134.992ZM94.6085 131.728C98.9605 131.6 103.121 131.536 107.089 131.536C111.057 131.536 115.665 131.6 120.913 131.728H125.905C126.161 124.944 126.289 117.904 126.289 110.608C126.417 103.312 126.353 96.4 126.097 89.872C123.409 93.2 120.657 96.72 117.841 100.432C115.025 104.144 112.209 107.856 109.393 111.568C106.705 115.152 104.081 118.736 101.521 122.32C98.9605 125.776 96.6565 128.912 94.6085 131.728Z" fill="black"/>
<path d="M437.244 104.656C438.14 114.512 438.076 123.728 437.052 132.304C436.028 140.88 434.108 148.688 431.292 155.728C428.604 162.64 425.084 168.656 420.732 173.776C416.508 178.896 411.58 182.8 405.948 185.488C402.62 187.024 399.612 187.792 396.924 187.792C393.852 190.224 389.436 191.44 383.676 191.44C376.124 191.312 369.212 189.2 362.94 185.104C356.668 181.136 351.292 175.888 346.812 169.36C342.46 162.832 339.132 155.472 336.828 147.28C334.652 138.96 333.756 130.576 334.14 122.128C334.396 115.6 335.292 109.072 336.828 102.544C338.492 96.016 340.668 89.872 343.356 84.112C346.044 78.224 349.116 72.912 352.572 68.176C356.156 63.312 359.996 59.408 364.092 56.464C364.348 55.568 364.668 54.928 365.052 54.544C367.868 51.728 370.62 49.872 373.308 48.976C375.996 47.952 379.196 47.44 382.908 47.44C389.692 47.44 396.22 48.976 402.492 52.048C408.764 55.12 414.332 59.28 419.196 64.528C424.188 69.648 428.284 75.728 431.484 82.768C434.684 89.68 436.604 96.976 437.244 104.656ZM389.244 164.368C392.7 163.344 395.772 161.36 398.46 158.416C401.276 155.344 403.58 151.632 405.372 147.28C407.292 142.928 408.7 138 409.596 132.496C410.492 126.992 410.812 121.168 410.556 115.024C410.3 109.904 409.468 105.104 408.06 100.624C406.652 96.016 404.732 91.856 402.3 88.144C399.868 84.432 396.988 81.296 393.66 78.736C390.332 76.048 386.684 74.064 382.716 72.784C380.796 74.32 378.684 76.688 376.38 79.888C374.076 83.088 371.836 86.864 369.66 91.216C367.612 95.568 365.884 100.304 364.476 105.424C363.068 110.544 362.3 115.856 362.172 121.36C361.788 144.4 369.34 158.224 384.828 162.832C386.108 163.216 387.452 163.792 388.86 164.56C388.988 164.56 389.052 164.56 389.052 164.56C389.052 164.432 389.116 164.368 389.244 164.368Z" fill="black"/>
<path d="M697.104 134.992C701.201 138.32 704.017 141.392 705.553 144.208C707.089 147.024 707.217 149.328 705.937 151.12C704.401 153.296 702.417 155.216 699.985 156.88C697.553 158.416 694.353 158.864 690.385 158.224C689.105 157.968 687.569 157.84 685.777 157.84C684.113 157.712 682.193 157.52 680.017 157.264C679.633 163.408 678.929 169.424 677.905 175.312C677.009 181.2 675.089 187.024 672.145 192.784C670.865 191.76 669.393 190.736 667.729 189.712C666.193 188.688 664.593 187.728 662.929 186.832C661.393 185.936 659.857 185.104 658.321 184.336C656.913 183.568 655.697 182.864 654.673 182.224C653.265 181.456 652.305 180.176 651.793 178.384C651.281 176.72 651.025 174.736 651.025 172.432C651.025 170.128 651.153 167.632 651.409 164.944C651.793 162.128 652.177 159.248 652.561 156.304H646.417C639.633 156.304 633.105 156.368 626.833 156.496C620.689 156.624 615.505 157.2 611.281 158.224C607.953 158.992 605.009 158.672 602.449 157.264C600.017 155.856 597.649 153.104 595.345 149.008C594.065 146.704 593.489 144.336 593.617 141.904C593.745 139.472 594.513 137.488 595.921 135.952C596.305 132.496 597.841 128.976 600.529 125.392C604.241 120.4 608.401 114.704 613.009 108.304C617.745 101.904 622.481 95.568 627.217 89.296C632.081 82.896 636.753 77.008 641.233 71.632C645.713 66.128 649.617 61.776 652.945 58.576C655.121 56.528 656.913 54.736 658.321 53.2C659.729 51.664 660.945 50.384 661.969 49.36C663.121 48.336 664.145 47.632 665.041 47.248C665.937 46.736 666.961 46.544 668.113 46.672C670.161 46.416 672.209 46.864 674.257 48.016C676.433 49.168 678.225 50.64 679.633 52.432C681.169 54.224 682.257 56.144 682.897 58.192C683.665 60.24 683.665 61.968 682.897 63.376C682.385 64.4 681.937 66.256 681.553 68.944C681.297 71.632 681.105 74.704 680.977 78.16C680.849 81.872 680.785 86.032 680.785 90.64C680.785 95.12 680.785 99.728 680.785 104.464C680.785 109.2 680.785 113.872 680.785 118.48C680.785 123.088 680.785 127.312 680.785 131.152C685.137 131.024 688.337 131.216 690.385 131.728C692.433 132.112 694.673 133.2 697.104 134.992ZM622.609 131.728C626.961 131.6 631.121 131.536 635.089 131.536C639.057 131.536 643.665 131.6 648.913 131.728H653.905C654.161 124.944 654.289 117.904 654.289 110.608C654.417 103.312 654.353 96.4 654.097 89.872C651.409 93.2 648.657 96.72 645.841 100.432C643.025 104.144 640.209 107.856 637.393 111.568C634.705 115.152 632.081 118.736 629.521 122.32C626.961 125.776 624.657 128.912 622.609 131.728Z" fill="black"/>
<path d="M441.348 365.456C442.116 373.008 441.988 380.688 440.964 388.496C439.94 396.176 438.02 403.472 435.204 410.384C432.516 417.296 428.932 423.44 424.452 428.816C420.1 434.064 415.044 437.968 409.284 440.528C408.644 440.784 408.068 440.976 407.556 441.104C407.172 441.232 406.66 441.36 406.02 441.488C404.484 442.896 401.86 444.176 398.148 445.328C394.564 446.48 389.7 446.992 383.556 446.864C377.668 446.864 372.1 445.648 366.852 443.216C361.732 440.784 357.06 437.584 352.836 433.616C348.612 429.52 344.9 424.848 341.7 419.6C338.628 414.224 336.068 408.592 334.02 402.704C332.1 396.688 330.82 390.544 330.18 384.272C329.668 378 329.86 371.92 330.756 366.032C331.524 361.424 332.612 356.688 334.02 351.824C335.428 346.96 337.348 342.224 339.78 337.616C342.212 332.88 345.156 328.336 348.612 323.984C352.068 319.504 356.228 315.408 361.092 311.696C361.348 310.928 361.732 310.352 362.244 309.968C367.108 305.744 373.252 303.568 380.676 303.44C387.588 303.184 394.436 304.72 401.22 308.048C408.004 311.376 414.212 315.92 419.844 321.68C425.604 327.44 430.404 334.096 434.244 341.648C438.084 349.2 440.452 357.136 441.348 365.456ZM387.588 418.256C391.556 417.104 395.076 415.12 398.148 412.304C401.348 409.488 403.972 406.096 406.02 402.128C408.196 398.032 409.796 393.488 410.82 388.496C411.844 383.504 412.292 378.192 412.164 372.56C411.908 367.44 410.948 362.576 409.284 357.968C407.748 353.232 405.508 349.008 402.564 345.296C399.748 341.456 396.356 338.192 392.388 335.504C388.548 332.816 384.324 330.896 379.716 329.744C378.308 331.024 376.644 332.752 374.724 334.928C372.804 337.104 370.884 339.792 368.964 342.992C367.172 346.064 365.508 349.712 363.972 353.936C362.436 358.032 361.348 362.64 360.708 367.76C359.684 375.568 359.812 382.544 361.092 388.688C362.5 394.704 364.484 399.888 367.044 404.24C369.604 408.592 372.612 411.984 376.068 414.416C379.652 416.72 383.172 418 386.628 418.256H387.396H387.588Z" fill="black"/>
<path d="M703.896 318.032C704.792 319.312 705.368 320.4 705.624 321.296C706.008 322.064 706.136 322.832 706.008 323.6C706.008 324.368 705.688 325.2 705.048 326.096C704.536 326.864 703.832 327.824 702.936 328.976C701.912 330.256 700.184 331.088 697.752 331.472C695.448 331.856 692.376 331.984 688.536 331.856C686.104 331.728 682.84 331.664 678.744 331.664C674.648 331.664 670.04 331.664 664.92 331.664C664.792 335.248 664.664 339.344 664.536 343.952C664.536 348.56 664.536 353.296 664.536 358.16C664.536 365.84 664.6 374.224 664.728 383.312C664.856 392.4 664.92 401.168 664.92 409.616C664.92 415.76 664.408 421.072 663.384 425.552C662.36 430.032 660.952 433.744 659.16 436.688C657.88 438.864 656.152 441.104 653.976 443.408C651.8 445.712 649.432 447.696 646.872 449.36C647.256 447.184 646.68 445.008 645.144 442.832C643.736 440.784 641.368 437.648 638.04 433.424C635.48 430.096 634.136 425.232 634.008 418.832C633.88 412.432 633.944 405.2 634.2 397.136C634.328 393.936 634.456 389.456 634.584 383.696C634.712 377.936 634.84 371.856 634.968 365.456C635.096 359.056 635.224 352.848 635.352 346.832C635.48 340.816 635.544 335.888 635.544 332.048C632.472 332.176 629.4 332.304 626.328 332.432C623.256 332.432 620.248 332.56 617.304 332.816C615.512 332.944 613.528 332.688 611.352 332.048C609.176 331.28 606.936 329.936 604.632 328.016C602.84 326.608 601.24 325.328 599.832 324.176C598.552 322.896 597.016 321.168 595.224 318.992C594.584 318.352 594.136 317.456 593.88 316.304C593.752 315.024 594.008 313.616 594.648 312.08C595.288 310.672 596.312 309.328 597.72 308.048C599.256 306.64 600.6 305.488 601.752 304.592C602.776 303.952 603.864 303.696 605.016 303.824C606.296 303.824 607.64 304.08 609.048 304.592C610.84 305.232 612.312 305.68 613.464 305.936C614.616 306.192 616.152 306.32 618.072 306.32C619.352 306.32 621.336 306.32 624.024 306.32C626.84 306.32 629.912 306.32 633.24 306.32C636.696 306.192 640.28 306.128 643.992 306.128C647.704 306 651.16 305.936 654.36 305.936C657.688 305.808 660.568 305.744 663 305.744C665.56 305.616 667.352 305.552 668.376 305.552C671.704 305.424 674.648 305.296 677.208 305.168C679.896 304.912 682.328 304.656 684.504 304.4C687.064 304.144 689.048 304.464 690.456 305.36C691.992 306.256 693.4 307.216 694.68 308.24C695.832 309.264 697.304 310.672 699.096 312.464C700.888 314.256 702.488 316.112 703.896 318.032Z" fill="black"/>
<path d="M649.118 560.4C656.542 560.656 663.454 562.576 669.854 566.16C676.382 569.744 682.014 574.544 686.75 580.56C691.486 586.448 695.198 593.36 697.886 601.296C700.574 609.104 701.918 617.36 701.918 626.064C701.918 629.648 701.726 633.616 701.342 637.968C700.958 642.32 700.254 646.672 699.23 651.024C698.334 655.248 697.118 659.408 695.582 663.504C694.046 667.472 692.126 670.992 689.822 674.064C688.414 677.776 686.366 681.232 683.678 684.432C681.118 687.632 678.046 690.384 674.462 692.688C671.006 695.12 667.102 696.976 662.75 698.256C658.526 699.664 653.982 700.368 649.118 700.368C645.022 700.368 640.862 699.856 636.638 698.832C632.414 697.936 628.51 696.72 624.926 695.184C623.518 696.976 622.11 698.512 620.702 699.792C619.294 701.2 618.014 702.416 616.862 703.44L607.838 691.728C606.43 689.808 605.278 687.376 604.382 684.432C603.486 681.488 603.038 678.864 603.038 676.56C603.038 672.976 603.038 668.112 603.038 661.968C603.038 655.824 603.038 649.424 603.038 642.768C603.166 635.984 603.23 629.52 603.23 623.376C603.358 617.232 603.422 612.432 603.422 608.976C603.422 605.776 603.358 602.32 603.23 598.608C603.23 594.768 603.038 590.16 602.654 584.784C602.526 583.504 602.334 582.096 602.078 580.56C601.822 578.896 601.118 577.296 599.966 575.76C598.558 573.84 597.918 572.304 598.046 571.152C598.174 569.872 598.942 568.464 600.35 566.928C601.502 565.776 603.038 564.624 604.958 563.472C606.878 562.192 608.734 561.04 610.526 560.016C612.318 559.12 613.918 558.8 615.326 559.056C616.862 559.312 618.462 559.952 620.126 560.976C622.558 562.64 624.67 564.432 626.462 566.352C629.15 564.816 632.414 563.408 636.254 562.128C640.222 560.72 644.51 560.144 649.118 560.4ZM666.398 661.584C668.446 657.488 670.046 652.56 671.198 646.8C672.35 641.04 672.926 634.96 672.926 628.56C672.926 622.928 672.35 617.68 671.198 612.816C670.046 607.824 668.318 603.472 666.014 599.76C663.71 596.048 660.83 593.104 657.374 590.928C653.918 588.752 649.886 587.536 645.278 587.28C642.846 587.152 640.542 587.408 638.366 588.048C636.318 588.56 634.142 589.328 631.838 590.352C632.094 596.112 632.286 602.512 632.414 609.552C632.542 616.592 632.606 623.76 632.606 631.056C632.606 638.224 632.542 645.328 632.414 652.368C632.286 659.28 632.158 665.488 632.03 670.992C635.102 672.016 638.11 672.72 641.054 673.104C644.126 673.36 647.006 673.36 649.694 673.104C653.406 672.848 656.542 671.696 659.102 669.648C661.79 667.472 664.222 664.784 666.398 661.584Z" fill="black"/>
<path d="M437.423 578.64C437.551 581.2 437.615 584.912 437.615 589.776C437.615 594.64 437.615 600.144 437.615 606.288C437.615 612.304 437.551 618.64 437.423 625.296C437.295 631.824 437.167 638.16 437.039 644.304C436.911 650.32 436.719 655.824 436.463 660.816C436.335 665.68 436.207 669.392 436.079 671.952C435.823 674.896 435.375 678.096 434.735 681.552C434.095 685.008 433.199 688.144 432.047 690.96C431.663 691.984 430.895 693.008 429.743 694.032C428.719 695.056 427.503 695.952 426.095 696.72C424.687 697.488 423.215 698.128 421.679 698.64C420.143 699.152 418.735 699.408 417.455 699.408C415.151 699.408 413.231 698.704 411.695 697.296C410.159 696.016 409.199 694.672 408.815 693.264C408.559 692.368 408.303 691.152 408.047 689.616C406.895 688.464 405.807 687.248 404.783 685.968C403.887 684.688 403.055 683.472 402.287 682.32C399.983 678.352 397.359 674 394.415 669.264C391.471 664.528 388.335 659.6 385.007 654.48C381.807 649.232 378.479 643.92 375.023 638.544C371.695 633.04 368.367 627.664 365.039 622.416C365.039 629.84 365.039 636.88 365.039 643.536C365.039 650.064 364.975 655.568 364.847 660.048C364.719 668.24 364.079 674.704 362.927 679.44C361.775 684.048 360.239 687.76 358.319 690.576C356.527 693.52 354.415 695.952 351.983 697.872C349.679 699.792 347.311 702.16 344.879 704.976C345.007 702.288 344.239 699.472 342.575 696.528C341.039 693.712 339.631 690.832 338.351 687.888C336.815 684.176 335.855 680.08 335.471 675.6C335.215 671.12 335.215 666.064 335.471 660.432C335.599 654.416 335.727 648.272 335.855 642C335.983 635.6 336.047 629.392 336.047 623.376C336.047 617.36 336.047 611.536 336.047 605.904C336.047 600.272 335.983 595.152 335.855 590.544C335.727 586.064 335.599 582.736 335.471 580.56C335.343 578.384 334.511 576.4 332.975 574.608C330.799 572.176 330.095 570.256 330.863 568.848C331.631 567.312 333.487 565.328 336.431 562.896C339.375 560.336 342.383 559.184 345.455 559.44C348.527 559.696 351.535 560.912 354.479 563.088C358.063 565.776 360.623 568.336 362.159 570.768C363.695 571.92 365.167 573.52 366.575 575.568L407.855 641.424C407.983 636.304 408.111 631.056 408.239 625.68C408.367 620.304 408.495 615.248 408.623 610.512C408.751 605.648 408.815 601.36 408.815 597.648C408.943 593.808 409.007 590.928 409.007 589.008C409.007 586.576 408.943 584.528 408.815 582.864C408.815 581.2 408.687 579.728 408.431 578.448C408.175 577.04 407.791 575.76 407.279 574.608C406.895 573.328 406.255 571.92 405.359 570.384C404.719 569.232 404.655 568.144 405.167 567.12C405.679 565.968 406.447 564.752 407.471 563.472C408.623 562.064 409.775 560.976 410.927 560.208C412.207 559.312 413.551 558.48 414.959 557.712C416.623 556.816 418.479 556.368 420.527 556.368C422.703 556.24 424.687 557.008 426.479 558.672C429.935 561.872 432.559 564.944 434.351 567.888C436.143 570.832 437.167 574.416 437.423 578.64Z" fill="black"/>
<path d="M111.298 587.856C111.426 592.464 111.49 597.264 111.49 602.256C111.49 607.248 111.49 612.304 111.49 617.424C114.434 617.424 117.442 617.424 120.514 617.424C123.586 617.424 126.466 617.424 129.154 617.424C131.97 617.424 134.402 617.424 136.45 617.424C138.626 617.296 140.226 617.232 141.25 617.232C143.042 617.232 144.706 617.232 146.242 617.232C147.906 617.104 149.442 617.232 150.85 617.616C152.386 618 153.73 618.64 154.882 619.536C156.034 620.432 157.122 621.776 158.146 623.568C158.786 624.848 159.106 626.064 159.106 627.216C159.234 628.24 158.786 629.456 157.762 630.864C154.562 635.216 151.106 638.544 147.394 640.848C143.81 643.024 139.714 644.112 135.106 644.112C132.93 644.112 129.602 644.112 125.122 644.112C120.77 643.984 116.354 643.856 111.874 643.728C111.874 647.312 111.874 650.576 111.874 653.52C111.874 656.464 111.938 659.024 112.066 661.2C112.194 665.168 111.746 669.264 110.722 673.488C109.698 677.712 108.482 681.616 107.074 685.2C106.306 687.248 105.218 689.296 103.81 691.344C102.53 693.52 101.186 695.632 99.778 697.68C98.498 699.856 97.346 701.84 96.322 703.632C95.298 705.552 94.722 707.216 94.594 708.624C90.882 703.76 87.746 698.064 85.186 691.536C82.626 685.136 81.41 678.8 81.538 672.528C81.666 667.792 81.73 661.648 81.73 654.096C81.858 646.544 81.922 638.544 81.922 630.096C82.05 621.648 82.114 613.264 82.114 604.944C82.242 596.624 82.306 589.2 82.306 582.672C80.642 581.264 79.17 579.728 77.89 578.064C76.738 576.4 76.226 574.672 76.354 572.88C76.354 571.472 76.802 570.128 77.698 568.848C78.594 567.568 79.874 566.224 81.538 564.816C82.562 563.792 83.842 562.896 85.378 562.128C87.042 561.232 88.578 560.848 89.986 560.976C91.778 561.104 93.122 561.36 94.018 561.744C95.042 562.128 96.322 562.32 97.858 562.32C99.522 562.32 101.954 562.32 105.154 562.32C108.354 562.192 111.874 562.128 115.714 562.128C119.554 562 123.394 561.936 127.234 561.936C131.074 561.808 134.402 561.68 137.218 561.552C139.522 561.424 141.57 561.36 143.362 561.36C145.154 561.36 146.754 561.488 148.162 561.744C149.57 562 150.85 562.512 152.002 563.28C153.154 563.92 154.37 564.88 155.65 566.16C156.162 566.8 156.802 567.76 157.57 569.04C158.466 570.32 159.234 571.728 159.874 573.264C160.642 574.8 161.282 576.336 161.794 577.872C162.306 579.408 162.562 580.688 162.562 581.712C162.69 583.248 162.114 584.592 160.834 585.744C159.682 586.768 158.402 587.408 156.994 587.664C154.818 587.92 152.322 588.112 149.506 588.24C146.818 588.24 143.874 588.24 140.674 588.24C137.474 588.24 134.21 588.176 130.882 588.048C127.554 587.92 124.354 587.856 121.282 587.856H111.298Z" fill="black"/>
<path d="M173.423 322.64C173.551 325.2 173.615 328.912 173.615 333.776C173.615 338.64 173.615 344.144 173.615 350.288C173.615 356.304 173.551 362.64 173.423 369.296C173.295 375.824 173.167 382.16 173.039 388.304C172.911 394.32 172.719 399.824 172.463 404.816C172.335 409.68 172.207 413.392 172.079 415.952C171.823 418.896 171.375 422.096 170.735 425.552C170.095 429.008 169.199 432.144 168.047 434.96C167.663 435.984 166.895 437.008 165.743 438.032C164.719 439.056 163.503 439.952 162.095 440.72C160.687 441.488 159.215 442.128 157.679 442.64C156.143 443.152 154.735 443.408 153.455 443.408C151.151 443.408 149.231 442.704 147.695 441.296C146.159 440.016 145.199 438.672 144.815 437.264C144.559 436.368 144.303 435.152 144.047 433.616C142.895 432.464 141.807 431.248 140.783 429.968C139.887 428.688 139.055 427.472 138.287 426.32C135.983 422.352 133.359 418 130.415 413.264C127.471 408.528 124.335 403.6 121.007 398.48C117.807 393.232 114.479 387.92 111.023 382.544C107.695 377.04 104.367 371.664 101.039 366.416C101.039 373.84 101.039 380.88 101.039 387.536C101.039 394.064 100.975 399.568 100.847 404.048C100.719 412.24 100.079 418.704 98.927 423.44C97.775 428.048 96.239 431.76 94.319 434.576C92.527 437.52 90.415 439.952 87.983 441.872C85.679 443.792 83.311 446.16 80.879 448.976C81.007 446.288 80.239 443.472 78.575 440.528C77.039 437.712 75.631 434.832 74.351 431.888C72.815 428.176 71.855 424.08 71.471 419.6C71.215 415.12 71.215 410.064 71.471 404.432C71.599 398.416 71.727 392.272 71.855 386C71.983 379.6 72.047 373.392 72.047 367.376C72.047 361.36 72.047 355.536 72.047 349.904C72.047 344.272 71.983 339.152 71.855 334.544C71.727 330.064 71.599 326.736 71.471 324.56C71.343 322.384 70.511 320.4 68.975 318.608C66.799 316.176 66.095 314.256 66.863 312.848C67.631 311.312 69.487 309.328 72.431 306.896C75.375 304.336 78.383 303.184 81.455 303.44C84.527 303.696 87.535 304.912 90.479 307.088C94.063 309.776 96.623 312.336 98.159 314.768C99.695 315.92 101.167 317.52 102.575 319.568L143.855 385.424C143.983 380.304 144.111 375.056 144.239 369.68C144.367 364.304 144.495 359.248 144.623 354.512C144.751 349.648 144.815 345.36 144.815 341.648C144.943 337.808 145.007 334.928 145.007 333.008C145.007 330.576 144.943 328.528 144.815 326.864C144.815 325.2 144.687 323.728 144.431 322.448C144.175 321.04 143.791 319.76 143.279 318.608C142.895 317.328 142.255 315.92 141.359 314.384C140.719 313.232 140.655 312.144 141.167 311.12C141.679 309.968 142.447 308.752 143.471 307.472C144.623 306.064 145.775 304.976 146.927 304.208C148.207 303.312 149.551 302.48 150.959 301.712C152.623 300.816 154.479 300.368 156.527 300.368C158.703 300.24 160.687 301.008 162.479 302.672C165.935 305.872 168.559 308.944 170.351 311.888C172.143 314.832 173.167 318.416 173.423 322.64Z" fill="black"/>
<defs>
<filter id="filter0_d_390_453" x="0" y="0" width="244" height="244" filterUnits="userSpaceOnUse" color-interpolation-filters="sRGB">
<feFlood flood-opacity="0" result="BackgroundImageFix"/>
<feColorMatrix in="SourceAlpha" type="matrix" values="0 0 0 0 0 0 0 0 0 0 0 0 0 0 0 0 0 0 127 0" result="hardAlpha"/>
<feOffset dy="2"/>
<feGaussianBlur stdDeviation="1"/>
<feComposite in2="hardAlpha" operator="out"/>
<feColorMatrix type="matrix" values="0 0 0 0 0 0 0 0 0 0 0 0 0 0 0 0 0 0 0.1 0"/>
<feBlend mode="normal" in2="BackgroundImageFix" result="effect1_dropShadow_390_453"/>
<feBlend mode="normal" in="SourceGraphic" in2="effect1_dropShadow_390_453" result="shape"/>
</filter>
<filter id="filter1_d_390_453" x="264" y="0" width="244" height="244" filterUnits="userSpaceOnUse" color-interpolation-filters="sRGB">
<feFlood flood-opacity="0" result="BackgroundImageFix"/>
<feColorMatrix in="SourceAlpha" type="matrix" values="0 0 0 0 0 0 0 0 0 0 0 0 0 0 0 0 0 0 127 0" result="hardAlpha"/>
<feOffset dy="2"/>
<feGaussianBlur stdDeviation="1"/>
<feComposite in2="hardAlpha" operator="out"/>
<feColorMatrix type="matrix" values="0 0 0 0 0 0 0 0 0 0 0 0 0 0 0 0 0 0 0.1 0"/>
<feBlend mode="normal" in2="BackgroundImageFix" result="effect1_dropShadow_390_453"/>
<feBlend mode="normal" in="SourceGraphic" in2="effect1_dropShadow_390_453" result="shape"/>
</filter>
<filter id="filter2_d_390_453" x="264" y="256" width="244" height="244" filterUnits="userSpaceOnUse" color-interpolation-filters="sRGB">
<feFlood flood-opacity="0" result="BackgroundImageFix"/>
<feColorMatrix in="SourceAlpha" type="matrix" values="0 0 0 0 0 0 0 0 0 0 0 0 0 0 0 0 0 0 127 0" result="hardAlpha"/>
<feOffset dy="2"/>
<feGaussianBlur stdDeviation="1"/>
<feComposite in2="hardAlpha" operator="out"/>
<feColorMatrix type="matrix" values="0 0 0 0 0 0 0 0 0 0 0 0 0 0 0 0 0 0 0.1 0"/>
<feBlend mode="normal" in2="BackgroundImageFix" result="effect1_dropShadow_390_453"/>
<feBlend mode="normal" in="SourceGraphic" in2="effect1_dropShadow_390_453" result="shape"/>
</filter>
<filter id="filter3_d_390_453" x="528" y="0" width="244" height="244" filterUnits="userSpaceOnUse" color-interpolation-filters="sRGB">
<feFlood flood-opacity="0" result="BackgroundImageFix"/>
<feColorMatrix in="SourceAlpha" type="matrix" values="0 0 0 0 0 0 0 0 0 0 0 0 0 0 0 0 0 0 127 0" result="hardAlpha"/>
<feOffset dy="2"/>
<feGaussianBlur stdDeviation="1"/>
<feComposite in2="hardAlpha" operator="out"/>
<feColorMatrix type="matrix" values="0 0 0 0 0 0 0 0 0 0 0 0 0 0 0 0 0 0 0.1 0"/>
<feBlend mode="normal" in2="BackgroundImageFix" result="effect1_dropShadow_390_453"/>
<feBlend mode="normal" in="SourceGraphic" in2="effect1_dropShadow_390_453" result="shape"/>
</filter>
<filter id="filter4_d_390_453" x="0" y="512" width="244" height="244" filterUnits="userSpaceOnUse" color-interpolation-filters="sRGB">
<feFlood flood-opacity="0" result="BackgroundImageFix"/>
<feColorMatrix in="SourceAlpha" type="matrix" values="0 0 0 0 0 0 0 0 0 0 0 0 0 0 0 0 0 0 127 0" result="hardAlpha"/>
<feOffset dy="2"/>
<feGaussianBlur stdDeviation="1"/>
<feComposite in2="hardAlpha" operator="out"/>
<feColorMatrix type="matrix" values="0 0 0 0 0 0 0 0 0 0 0 0 0 0 0 0 0 0 0.1 0"/>
<feBlend mode="normal" in2="BackgroundImageFix" result="effect1_dropShadow_390_453"/>
<feBlend mode="normal" in="SourceGraphic" in2="effect1_dropShadow_390_453" result="shape"/>
</filter>
<filter id="filter5_d_390_453" x="528" y="512" width="244" height="244" filterUnits="userSpaceOnUse" color-interpolation-filters="sRGB">
<feFlood flood-opacity="0" result="BackgroundImageFix"/>
<feColorMatrix in="SourceAlpha" type="matrix" values="0 0 0 0 0 0 0 0 0 0 0 0 0 0 0 0 0 0 127 0" result="hardAlpha"/>
<feOffset dy="2"/>
<feGaussianBlur stdDeviation="1"/>
<feComposite in2="hardAlpha" operator="out"/>
<feColorMatrix type="matrix" values="0 0 0 0 0 0 0 0 0 0 0 0 0 0 0 0 0 0 0.1 0"/>
<feBlend mode="normal" in2="BackgroundImageFix" result="effect1_dropShadow_390_453"/>
<feBlend mode="normal" in="SourceGraphic" in2="effect1_dropShadow_390_453" result="shape"/>
</filter>
<filter id="filter6_d_390_453" x="0" y="256" width="244" height="244" filterUnits="userSpaceOnUse" color-interpolation-filters="sRGB">
<feFlood flood-opacity="0" result="BackgroundImageFix"/>
<feColorMatrix in="SourceAlpha" type="matrix" values="0 0 0 0 0 0 0 0 0 0 0 0 0 0 0 0 0 0 127 0" result="hardAlpha"/>
<feOffset dy="2"/>
<feGaussianBlur stdDeviation="1"/>
<feComposite in2="hardAlpha" operator="out"/>
<feColorMatrix type="matrix" values="0 0 0 0 0 0 0 0 0 0 0 0 0 0 0 0 0 0 0.1 0"/>
<feBlend mode="normal" in2="BackgroundImageFix" result="effect1_dropShadow_390_453"/>
<feBlend mode="normal" in="SourceGraphic" in2="effect1_dropShadow_390_453" result="shape"/>
</filter>
<filter id="filter7_d_390_453" x="528" y="256" width="244" height="244" filterUnits="userSpaceOnUse" color-interpolation-filters="sRGB">
<feFlood flood-opacity="0" result="BackgroundImageFix"/>
<feColorMatrix in="SourceAlpha" type="matrix" values="0 0 0 0 0 0 0 0 0 0 0 0 0 0 0 0 0 0 127 0" result="hardAlpha"/>
<feOffset dy="2"/>
<feGaussianBlur stdDeviation="1"/>
<feComposite in2="hardAlpha" operator="out"/>
<feColorMatrix type="matrix" values="0 0 0 0 0 0 0 0 0 0 0 0 0 0 0 0 0 0 0.1 0"/>
<feBlend mode="normal" in2="BackgroundImageFix" result="effect1_dropShadow_390_453"/>
<feBlend mode="normal" in="SourceGraphic" in2="effect1_dropShadow_390_453" result="shape"/>
</filter>
<filter id="filter8_d_390_453" x="264" y="512" width="244" height="244" filterUnits="userSpaceOnUse" color-interpolation-filters="sRGB">
<feFlood flood-opacity="0" result="BackgroundImageFix"/>
<feColorMatrix in="SourceAlpha" type="matrix" values="0 0 0 0 0 0 0 0 0 0 0 0 0 0 0 0 0 0 127 0" result="hardAlpha"/>
<feOffset dy="2"/>
<feGaussianBlur stdDeviation="1"/>
<feComposite in2="hardAlpha" operator="out"/>
<feColorMatrix type="matrix" values="0 0 0 0 0 0 0 0 0 0 0 0 0 0 0 0 0 0 0.1 0"/>
<feBlend mode="normal" in2="BackgroundImageFix" result="effect1_dropShadow_390_453"/>
<feBlend mode="normal" in="SourceGraphic" in2="effect1_dropShadow_390_453" result="shape"/>
</filter>
</defs>
</svg>
