<svg width="306" height="298" viewBox="0 0 306 298" fill="none" xmlns="http://www.w3.org/2000/svg">
<path d="M256.338 185.064C253.232 187.435 251.938 191.488 253.085 195.222L260.392 219.064C268.565 245.738 255.712 266.791 240.938 277.604C226.178 288.404 202.232 294.311 179.272 278.458L158.752 264.284C155.538 262.071 151.285 262.084 148.085 264.324L127.658 278.644C104.818 294.658 80.8183 288.938 65.9783 278.231C51.1383 267.538 38.1249 246.578 46.0982 219.846L53.2316 195.94C54.3516 192.199 53.0182 188.156 49.8982 185.808L29.9783 170.816C7.68498 154.038 5.71157 129.447 11.2982 112.031C16.8849 94.6083 32.8049 75.755 60.6982 75.0844L85.6316 74.487C89.5382 74.3937 92.9649 71.879 94.2316 68.1857L102.338 44.5963C107.978 28.1763 119.898 16.3337 135.898 11.2523C141.378 9.515 147.045 8.63501 152.778 8.63501C164.085 8.63501 175.218 12.1723 184.125 18.599C192.792 24.8417 199.098 33.4644 202.885 44.2284L211.152 67.759C212.445 71.443 215.898 73.9323 219.805 73.9963L244.752 74.4137C256.152 74.603 266.325 77.867 274.992 84.1083C288.658 93.959 296.952 110.196 297.192 127.543C297.432 144.327 289.965 159.378 276.165 169.923L256.338 185.064ZM280.045 77.1017C269.925 69.8083 258.098 65.9963 244.885 65.7763L221.712 65.3897C220.365 65.367 219.165 64.5083 218.725 63.2377L211.032 41.3644C206.645 28.903 199.298 18.8857 189.178 11.5924C173.312 0.151035 152.418 -3.05434 133.285 3.019C114.618 8.94966 100.725 22.7177 94.1649 41.7883L86.6316 63.719C86.2049 64.9937 85.0183 65.8617 83.6717 65.8937L60.485 66.4484C28.0583 67.227 9.56501 89.143 3.07168 109.391C-3.42166 129.636 -1.1284 158.215 24.7916 177.716L43.3116 191.655C44.3916 192.467 44.8449 193.862 44.4583 195.152L37.8183 217.376C28.5516 248.444 43.6849 272.804 60.9249 285.244C71.6849 292.991 84.6583 297.271 97.4583 297.271C109.858 297.271 121.685 293.378 132.618 285.711L151.605 272.404C152.712 271.631 154.178 271.618 155.285 272.391L174.365 285.564C201.045 303.991 228.885 297.138 246.045 284.578C263.205 272.018 278.152 247.538 268.645 216.534L261.858 194.368C261.458 193.079 261.912 191.68 262.978 190.863L281.405 176.786C297.432 164.54 306.112 147.008 305.832 127.422C305.552 107.355 295.912 88.543 280.045 77.1017" />
<path d="M213.898 101.728L177.565 138.368C176.845 137.488 176.072 136.635 175.245 135.821C174.365 134.94 173.432 134.115 172.472 133.355L208.832 96.7015L213.898 101.728Z" />
<path d="M130.752 185.555L94.4182 222.195L89.3516 217.155L125.712 180.501C126.485 181.461 127.312 182.38 128.192 183.261C129.005 184.075 129.872 184.835 130.752 185.555" />
<path d="M155.058 126.288C153.898 126.182 152.752 126.128 151.578 126.128C150.352 126.128 149.125 126.208 147.925 126.342L147.712 74.6218L154.845 74.5951L155.058 126.288Z" />
<path d="M155.538 244.257L148.405 244.284L148.192 192.767C149.352 192.888 150.525 192.955 151.712 192.955H151.858C153.018 192.955 154.178 192.888 155.325 192.767L155.538 244.257" />
<path d="M130.645 133.607C129.725 134.355 128.845 135.155 127.992 136.008C127.152 136.861 126.352 137.755 125.605 138.675L88.8716 102.235L93.9116 97.1681L130.645 133.607Z" />
<path d="M214.378 216.648L209.338 221.728L172.778 185.461C173.698 184.728 174.592 183.915 175.445 183.061C176.285 182.208 177.085 181.315 177.818 180.395L214.378 216.648Z" />
<path d="M184.965 162.888C185.072 161.742 185.125 160.582 185.125 159.408C185.125 158.168 185.045 156.955 184.912 155.742L236.445 155.528L236.472 162.675L184.965 162.888" />
<path d="M118.512 163.155L66.805 163.368L66.7783 156.221L118.498 156.008C118.365 157.222 118.312 158.448 118.312 159.675C118.312 160.848 118.378 162.008 118.512 163.155Z" />
<path d="M204.152 94.5307C207.432 91.2294 212.765 91.2081 216.059 94.4814C219.365 97.7561 219.378 103.087 216.112 106.387C212.832 109.688 207.498 109.709 204.205 106.436C200.898 103.161 200.885 97.8307 204.152 94.5307" />
<path d="M87.1384 212.503C83.8717 215.804 83.885 221.135 87.1916 224.408C90.485 227.683 95.8183 227.66 99.0983 224.36C102.365 221.059 102.352 215.728 99.045 212.453C95.7517 209.18 90.4184 209.203 87.1384 212.503" />
<path d="M142.872 76.3988C142.845 71.7508 146.605 67.9654 151.245 67.9454C155.898 67.9281 159.685 71.6814 159.698 76.3294C159.725 80.9801 155.965 84.7654 151.325 84.7841C146.672 84.8028 142.885 81.0481 142.872 76.3988Z" />
<path d="M143.552 242.564C143.565 247.204 147.352 250.964 151.992 250.951C156.645 250.924 160.405 247.138 160.378 242.484C160.365 237.844 156.578 234.084 151.925 234.111C147.285 234.124 143.525 237.911 143.552 242.564Z" />
<path d="M86.7117 106.916C83.4051 103.641 83.3917 98.3107 86.6583 95.0094C89.9383 91.7094 95.2716 91.6867 98.565 94.9614C101.872 98.2347 101.885 103.567 98.6184 106.867C95.3384 110.167 90.0051 110.189 86.7117 106.916" />
<path d="M204.685 223.93C207.978 227.203 213.312 227.182 216.592 223.88C219.859 220.58 219.845 215.248 216.539 211.975C213.245 208.702 207.912 208.722 204.632 212.023C201.365 215.323 201.378 220.655 204.685 223.93" />
<path d="M68.5784 168.204C63.9251 168.221 60.1384 164.468 60.125 159.819C60.1117 155.169 63.8584 151.384 68.5118 151.365C73.1651 151.347 76.9383 155.1 76.965 159.749C76.9783 164.399 73.2318 168.184 68.5784 168.204Z" />
<path d="M234.739 167.525C239.392 167.505 243.139 163.72 243.125 159.071C243.112 154.423 239.325 150.668 234.672 150.687C230.019 150.707 226.272 154.491 226.285 159.14C226.299 163.789 230.085 167.543 234.739 167.525Z" />
<path d="M172.592 175.208C171.898 176.155 171.112 177.062 170.258 177.928C169.405 178.782 168.512 179.582 167.565 180.288C163.992 183.035 159.805 184.782 155.298 185.395C154.125 185.555 152.925 185.648 151.712 185.648C150.512 185.648 149.325 185.568 148.165 185.408C143.712 184.808 139.512 183.062 135.938 180.328C135.032 179.648 134.165 178.888 133.338 178.075C132.445 177.195 131.632 176.262 130.885 175.274C128.178 171.714 126.458 167.555 125.858 163.128C125.698 161.982 125.618 160.822 125.618 159.648C125.605 158.408 125.685 157.182 125.858 155.982C126.445 151.568 128.152 147.408 130.832 143.862C131.552 142.915 132.325 142.008 133.178 141.155C134.032 140.302 134.925 139.515 135.872 138.795C139.405 136.075 143.552 134.342 147.952 133.702C149.152 133.528 150.378 133.434 151.605 133.434H151.725C152.858 133.434 153.978 133.502 155.085 133.648C159.525 134.208 163.698 135.902 167.285 138.582C168.272 139.315 169.205 140.128 170.098 141.008C170.925 141.822 171.685 142.688 172.378 143.595C175.152 147.142 176.912 151.315 177.552 155.767C177.725 156.968 177.818 158.195 177.832 159.434C177.832 160.607 177.765 161.767 177.605 162.915C177.045 167.395 175.325 171.607 172.592 175.208V175.208ZM184.912 155.742C184.205 149.328 181.658 143.342 177.565 138.368C176.845 137.488 176.072 136.635 175.245 135.822C174.365 134.94 173.432 134.115 172.472 133.355C167.432 129.342 161.418 126.915 155.058 126.288C153.898 126.182 152.752 126.128 151.578 126.128C150.352 126.128 149.125 126.208 147.925 126.342C141.565 127.062 135.605 129.555 130.645 133.607C129.725 134.355 128.845 135.155 127.992 136.008C127.152 136.862 126.352 137.755 125.605 138.675C121.618 143.662 119.152 149.648 118.498 156.008C118.365 157.222 118.312 158.448 118.312 159.675C118.312 160.848 118.378 162.008 118.512 163.155C119.178 169.528 121.672 175.528 125.712 180.502C126.485 181.462 127.312 182.38 128.192 183.262C129.005 184.075 129.872 184.835 130.752 185.555C135.765 189.622 141.778 192.1 148.192 192.767C149.352 192.888 150.525 192.955 151.712 192.955H151.858C153.018 192.955 154.178 192.888 155.325 192.767C161.752 192.075 167.765 189.568 172.778 185.462C173.698 184.728 174.592 183.915 175.445 183.062C176.285 182.208 177.085 181.315 177.818 180.395C181.858 175.355 184.325 169.315 184.965 162.888C185.072 161.742 185.125 160.582 185.125 159.408C185.125 158.168 185.045 156.955 184.912 155.742" />
<path d="M160.645 168.388C155.752 173.316 147.792 173.348 142.872 168.462C137.938 163.574 137.912 155.618 142.792 150.69C147.685 145.763 155.645 145.73 160.565 150.618C165.498 155.504 165.525 163.462 160.645 168.388" />
</svg>
