<svg width="40" height="40" viewBox="0 0 40 40" fill="none" xmlns="http://www.w3.org/2000/svg">
<circle cx="20" cy="20" r="20" fill="#81D0AA"/>
<path d="M23.41 26.59C23.01 26.59 22.68 26.26 22.68 25.86C22.68 25.46 23.01 25.13 23.41 25.13C26.23 25.13 28.53 22.83 28.53 20.01C28.53 17.19 26.23 14.89 23.41 14.89C20.59 14.89 18.29 17.19 18.29 20.01C18.29 20.41 17.96 20.74 17.56 20.74C17.16 20.74 16.83 20.41 16.83 20.01C16.83 16.38 19.78 13.42 23.42 13.42C27.06 13.42 30 16.37 30 20C30 23.63 27.05 26.59 23.41 26.59Z" fill="white"/>
<path d="M16.59 13.41C16.99 13.41 17.32 13.74 17.32 14.14C17.32 14.54 16.99 14.87 16.59 14.87C13.77 14.87 11.47 17.17 11.47 19.99C11.47 22.81 13.77 25.11 16.59 25.11C19.41 25.11 21.71 22.81 21.71 19.99C21.71 19.59 22.04 19.26 22.44 19.26C22.84 19.26 23.17 19.59 23.17 19.99C23.17 23.62 20.22 26.58 16.58 26.58C12.94 26.58 10 23.63 10 20C10 16.37 12.95 13.41 16.59 13.41Z" fill="white"/>
</svg>
