<svg width="67" height="66" viewBox="0 0 67 66" fill="none" xmlns="http://www.w3.org/2000/svg">
<g filter="url(#filter0_d_127_469)">
<rect x="2" width="30" height="30" rx="10" fill="white"/>
<rect x="2.5" y="0.5" width="29" height="29" rx="9.5" stroke="#B3B3B3"/>
</g>
<g filter="url(#filter1_d_127_469)">
<rect x="35" width="30" height="30" rx="10" fill="white"/>
<rect x="35.5" y="0.5" width="29" height="29" rx="9.5" stroke="#B3B3B3"/>
</g>
<g filter="url(#filter2_d_127_469)">
<rect x="35" y="32" width="30" height="30" rx="10" fill="white"/>
<rect x="35.5" y="32.5" width="29" height="29" rx="9.5" stroke="#B3B3B3"/>
</g>
<g filter="url(#filter3_d_127_469)">
<rect x="2" y="32" width="30" height="30" rx="10" fill="white"/>
<rect x="2.5" y="32.5" width="29" height="29" rx="9.5" stroke="#B3B3B3"/>
</g>
<path d="M21.2708 10.864C21.5588 10.8 21.8948 10.744 22.2788 10.696C22.6628 10.648 22.9668 10.64 23.1908 10.672C23.3988 10.704 23.6388 10.824 23.9108 11.032C24.1828 11.24 24.3748 11.448 24.4868 11.656C24.5508 11.784 24.5908 11.92 24.6068 12.064C24.6388 12.208 24.5748 12.328 24.4148 12.424C24.2708 12.52 24.0788 12.584 23.8388 12.616C23.5988 12.648 23.3348 12.664 23.0468 12.664C22.7588 12.664 22.4628 12.656 22.1588 12.64C21.8548 12.608 21.5588 12.576 21.2708 12.544V12.784C21.2708 13.264 21.2228 13.8 21.1268 14.392C21.0308 14.968 20.9028 15.512 20.7428 16.024C20.5988 16.52 20.4228 16.944 20.2148 17.296C20.0068 17.632 19.7908 17.8 19.5668 17.8C19.3908 17.8 19.2708 17.464 19.2068 16.792C19.1428 16.104 19.1108 15.152 19.1108 13.936V6.376C19.0628 6.328 18.9588 6.248 18.7988 6.136C18.6388 6.008 18.4548 5.864 18.2468 5.704C18.0548 5.528 17.8548 5.344 17.6468 5.152C17.4548 4.96 17.2948 4.768 17.1668 4.576C17.1348 4.528 17.0868 4.384 17.0228 4.144C16.9588 3.904 16.9428 3.704 16.9748 3.544C16.9908 3.432 17.0308 3.36 17.0948 3.328C17.1748 3.296 17.2468 3.288 17.3108 3.304C17.9188 3.432 18.4788 3.648 18.9908 3.952C19.5188 4.24 20.0548 4.568 20.5988 4.936C20.8868 5.128 21.0708 5.312 21.1508 5.488C21.2308 5.664 21.2708 5.896 21.2708 6.184V10.864ZM15.3188 16.216C15.3828 16.184 15.4788 16.168 15.6068 16.168C15.7348 16.152 15.8628 16.152 15.9908 16.168C16.1348 16.184 16.2708 16.216 16.3988 16.264C16.5268 16.296 16.6228 16.344 16.6868 16.408C16.8468 16.552 17.0388 16.752 17.2628 17.008C17.4868 17.264 17.7028 17.536 17.9108 17.824C18.1188 18.112 18.2868 18.384 18.4148 18.64C18.5588 18.896 18.6148 19.096 18.5828 19.24C18.5028 19.56 18.3428 19.872 18.1028 20.176C17.8788 20.48 17.6628 20.744 17.4548 20.968C17.8068 21.288 18.1748 21.536 18.5588 21.712C18.9588 21.888 19.3348 22.024 19.6868 22.12C20.0388 22.216 20.3508 22.296 20.6228 22.36C20.8948 22.424 21.0868 22.488 21.1988 22.552C21.5188 22.744 21.7988 22.968 22.0388 23.224C22.2788 23.496 22.3748 23.712 22.3268 23.872C22.3108 23.92 22.2628 23.984 22.1828 24.064C22.1028 24.16 22.0068 24.248 21.8948 24.328C21.7988 24.424 21.6948 24.504 21.5828 24.568C21.4708 24.648 21.3748 24.688 21.2948 24.688C21.0708 24.704 20.8148 24.696 20.5268 24.664C20.2548 24.648 19.9748 24.608 19.6868 24.544C19.4148 24.496 19.1508 24.424 18.8948 24.328C18.6388 24.248 18.4308 24.16 18.2708 24.064C17.8868 23.84 17.5188 23.552 17.1668 23.2C16.8308 22.864 16.5188 22.504 16.2308 22.12C16.0868 22.296 15.9108 22.488 15.7028 22.696C15.4948 22.904 15.2788 23.104 15.0548 23.296C14.8468 23.488 14.6228 23.664 14.3828 23.824C14.1588 23.984 13.9508 24.112 13.7588 24.208C13.5188 24.304 13.1668 24.392 12.7028 24.472C12.2388 24.568 11.7988 24.616 11.3828 24.616C11.3508 24.616 11.2868 24.608 11.1908 24.592C11.0948 24.592 10.9908 24.584 10.8788 24.568C10.7828 24.552 10.6948 24.52 10.6148 24.472C10.5348 24.44 10.5028 24.384 10.5188 24.304C10.5508 24.208 10.6788 24.104 10.9028 23.992C11.1428 23.896 11.3508 23.784 11.5268 23.656C11.9268 23.4 12.3668 23.064 12.8468 22.648C13.3428 22.232 13.8148 21.808 14.2628 21.376C14.7268 20.928 15.1348 20.504 15.4868 20.104C15.8388 19.704 16.0628 19.376 16.1588 19.12C16.0948 18.992 16.0148 18.824 15.9188 18.616C15.8388 18.408 15.7508 18.2 15.6548 17.992C15.5748 17.768 15.4948 17.56 15.4148 17.368C15.3508 17.16 15.3028 16.984 15.2708 16.84C15.2388 16.696 15.2148 16.576 15.1988 16.48C15.1988 16.368 15.2388 16.28 15.3188 16.216ZM11.6708 9.88C11.5108 9.896 11.3748 9.912 11.2628 9.928C11.1668 9.928 11.0708 9.928 10.9748 9.928C10.8948 9.912 10.8068 9.888 10.7108 9.856C10.6148 9.824 10.5028 9.776 10.3748 9.712C10.3108 9.68 10.2068 9.608 10.0628 9.496C9.93484 9.384 9.79884 9.264 9.65484 9.136C9.51084 9.008 9.38284 8.88 9.27084 8.752C9.17484 8.624 9.11884 8.52 9.10284 8.44C9.08684 8.392 9.11084 8.32 9.17484 8.224C9.23884 8.112 9.31084 8.032 9.39084 7.984C9.45484 7.952 9.51084 7.936 9.55884 7.936C9.60684 7.936 9.66284 7.944 9.72684 7.96C9.93484 8.008 10.1908 8.04 10.4948 8.056C10.7988 8.072 11.1268 8.072 11.4788 8.056C12.2148 8.024 12.9028 7.96 13.5428 7.864C14.1828 7.768 14.7348 7.656 15.1988 7.528C15.4228 7.448 15.6548 7.448 15.8948 7.528C16.1348 7.608 16.4148 7.856 16.7348 8.272C16.8628 8.448 16.8708 8.664 16.7588 8.92C16.5668 9.368 16.3348 9.856 16.0628 10.384C15.8068 10.912 15.5188 11.44 15.1988 11.968C14.8948 12.496 14.5668 13.008 14.2148 13.504C13.8788 13.984 13.5348 14.4 13.1828 14.752C13.0708 14.864 12.8948 14.984 12.6548 15.112C12.4148 15.224 12.1588 15.336 11.8868 15.448C11.6148 15.56 11.3428 15.656 11.0708 15.736C10.7988 15.8 10.5668 15.84 10.3748 15.856C10.2468 15.872 10.0948 15.856 9.91884 15.808C9.75884 15.744 9.59884 15.672 9.43884 15.592C9.29484 15.496 9.15884 15.408 9.03084 15.328C8.91884 15.232 8.85484 15.152 8.83884 15.088C8.82284 15.04 8.83884 14.952 8.88684 14.824C8.95084 14.68 9.00684 14.608 9.05484 14.608C9.56684 14.576 10.0308 14.432 10.4468 14.176C10.8788 13.92 11.2068 13.688 11.4308 13.48C11.7508 13.176 12.0308 12.872 12.2708 12.568C12.5108 12.264 12.7348 11.952 12.9428 11.632C13.1508 11.296 13.3508 10.952 13.5428 10.6C13.7348 10.248 13.9428 9.88 14.1668 9.496C14.1188 9.528 14.0148 9.56 13.8548 9.592C13.7108 9.624 13.5188 9.664 13.2788 9.712C13.0548 9.744 12.7988 9.776 12.5108 9.808C12.2388 9.84 11.9588 9.864 11.6708 9.88Z" fill="black"/>
<path d="M52.9743 10.816H52.9983C53.1423 10.784 53.3423 10.768 53.5983 10.768C53.8703 10.768 54.1423 10.768 54.4143 10.768C54.3823 10.048 54.3503 9.368 54.3183 8.728C54.3023 8.088 54.2783 7.56 54.2463 7.144C54.2303 7.064 54.2143 6.984 54.1983 6.904C54.1983 6.808 54.1263 6.696 53.9823 6.568C53.8543 6.456 53.7263 6.344 53.5983 6.232C53.4863 6.12 53.3503 6 53.1903 5.872C53.0463 5.728 52.8783 5.56 52.6863 5.368C52.5103 5.176 52.2943 4.944 52.0383 4.672C51.9263 4.56 51.8303 4.36 51.7503 4.072C51.6863 3.768 51.6623 3.528 51.6783 3.352C51.6943 3.144 51.7743 3.048 51.9183 3.064C52.0143 3.064 52.1343 3.088 52.2783 3.136C52.4223 3.168 52.5663 3.216 52.7103 3.28C52.8543 3.328 52.9823 3.384 53.0943 3.448C53.2223 3.496 53.3183 3.536 53.3823 3.568C53.9583 3.888 54.4463 4.192 54.8463 4.48C55.2463 4.768 55.6543 5.112 56.0703 5.512C56.2143 5.656 56.3103 5.792 56.3583 5.92C56.4063 6.032 56.4303 6.24 56.4303 6.544C56.4303 7.392 56.4303 8.136 56.4303 8.776C56.4463 9.416 56.4543 10.016 56.4543 10.576C56.4543 11.136 56.4543 11.68 56.4543 12.208C56.4543 12.736 56.4543 13.312 56.4543 13.936C56.4383 15.024 56.3103 15.992 56.0703 16.84C55.8463 17.672 55.4863 18.408 54.9903 19.048C54.9263 19.112 54.8703 19.152 54.8223 19.168C54.9663 19.328 55.0943 19.488 55.2063 19.648C55.3343 19.808 55.4543 19.976 55.5663 20.152C55.6943 20.344 55.7903 20.512 55.8543 20.656C55.9183 20.8 55.9503 20.944 55.9503 21.088C55.9663 21.232 55.9503 21.392 55.9023 21.568C55.8703 21.728 55.8223 21.928 55.7583 22.168C55.5663 22.728 55.2783 23.224 54.8943 23.656C54.5103 24.104 54.0623 24.424 53.5503 24.616C53.3103 24.728 53.0623 24.8 52.8063 24.832C52.5503 24.88 52.2863 24.904 52.0143 24.904C51.4383 24.904 50.8783 24.792 50.3343 24.568C49.7903 24.344 49.3743 24 49.0863 23.536C48.8943 23.216 48.7503 22.888 48.6543 22.552C48.5583 22.232 48.5023 21.912 48.4863 21.592C48.4703 21.096 48.5583 20.632 48.7503 20.2C48.9583 19.768 49.2463 19.392 49.6143 19.072C49.9823 18.736 50.4143 18.472 50.9103 18.28C51.4223 18.072 51.9743 17.952 52.5663 17.92C52.9023 17.904 53.2223 17.976 53.5263 18.136C53.8303 18.28 54.1183 18.472 54.3903 18.712C54.3583 18.504 54.3423 18.256 54.3423 17.968C54.3583 17.664 54.3743 17.368 54.3903 17.08C54.4063 16.776 54.4223 16.504 54.4383 16.264C54.4543 16.024 54.4623 15.848 54.4623 15.736C54.4623 15.288 54.4623 14.792 54.4623 14.248C54.4623 13.704 54.4543 13.136 54.4383 12.544C53.9743 12.592 53.4863 12.568 52.9743 12.472C52.9743 12.616 52.9663 12.752 52.9503 12.88C52.9503 13.008 52.9503 13.136 52.9503 13.264C52.9343 13.632 52.8943 14 52.8303 14.368C52.7823 14.72 52.7103 15.056 52.6143 15.376C52.5183 15.696 52.4063 15.984 52.2783 16.24C52.1503 16.496 52.0143 16.696 51.8703 16.84C51.8063 16.904 51.7343 16.904 51.6543 16.84C51.5743 16.76 51.4943 16.656 51.4143 16.528C51.3503 16.384 51.2943 16.248 51.2463 16.12C51.1983 15.976 51.1743 15.864 51.1743 15.784C51.1743 15.4 51.1743 15.056 51.1743 14.752C51.1903 14.448 51.1983 14.168 51.1983 13.912C51.1983 13.656 51.1903 13.416 51.1743 13.192C51.1743 12.968 51.1743 12.744 51.1743 12.52C51.1583 12.056 51.1423 11.528 51.1263 10.936C51.1263 10.344 51.1023 9.568 51.0543 8.608C51.0383 8.432 51.0143 8.312 50.9823 8.248C50.9663 8.184 50.9103 8.104 50.8143 8.008C50.6383 7.816 50.4543 7.648 50.2623 7.504C50.0863 7.344 49.9103 7.184 49.7343 7.024C49.5743 6.848 49.4303 6.664 49.3023 6.472C49.1903 6.28 49.1263 6.064 49.1103 5.824C49.0943 5.696 49.1023 5.592 49.1343 5.512C49.1823 5.416 49.2223 5.352 49.2543 5.32C49.5103 5.4 49.7903 5.504 50.0943 5.632C50.4143 5.76 50.7183 5.896 51.0063 6.04C51.2943 6.184 51.5583 6.344 51.7983 6.52C52.0543 6.68 52.2543 6.832 52.3983 6.976C52.5583 7.136 52.6783 7.272 52.7583 7.384C52.8383 7.48 52.8943 7.584 52.9263 7.696C52.9583 7.792 52.9743 7.904 52.9743 8.032C52.9743 8.16 52.9743 8.336 52.9743 8.56V10.816ZM49.3023 9.088C49.3183 9.232 49.2783 9.416 49.1823 9.64C49.0863 9.864 48.9583 10.096 48.7983 10.336C48.6543 10.576 48.4943 10.808 48.3183 11.032C48.1423 11.256 47.9903 11.44 47.8623 11.584C48.0863 11.824 48.3263 12.088 48.5823 12.376C48.8543 12.648 49.1023 12.88 49.3263 13.072C49.4383 13.2 49.5743 13.344 49.7343 13.504C49.9103 13.648 50.0703 13.808 50.2143 13.984C50.3583 14.144 50.4703 14.304 50.5503 14.464C50.6463 14.624 50.6703 14.768 50.6223 14.896C50.5423 15.072 50.3743 15.168 50.1183 15.184C49.8783 15.2 49.6143 15.176 49.3263 15.112C49.0543 15.048 48.7903 14.96 48.5343 14.848C48.2783 14.736 48.1103 14.64 48.0303 14.56C47.7103 14.272 47.4303 14 47.1903 13.744C46.9663 13.488 46.7183 13.224 46.4463 12.952C46.2863 13.112 46.0863 13.296 45.8463 13.504C45.6063 13.696 45.3503 13.888 45.0783 14.08C44.8223 14.272 44.5583 14.448 44.2863 14.608C44.0303 14.768 43.8063 14.896 43.6143 14.992C43.5343 15.024 43.3823 15.072 43.1583 15.136C42.9343 15.184 42.7023 15.216 42.4623 15.232C42.2223 15.248 41.9983 15.24 41.7903 15.208C41.5823 15.176 41.4703 15.096 41.4543 14.968C41.4383 14.888 41.4783 14.8 41.5743 14.704C41.6703 14.592 41.7823 14.48 41.9103 14.368C42.0543 14.256 42.1983 14.152 42.3423 14.056C42.4863 13.96 42.6063 13.88 42.7023 13.816C43.0863 13.56 43.5183 13.232 43.9983 12.832C44.4783 12.416 44.9263 11.992 45.3423 11.56C45.7743 11.112 46.1343 10.688 46.4223 10.288C46.7263 9.872 46.8943 9.536 46.9263 9.28C46.8623 9.04 46.7663 8.76 46.6383 8.44C46.5103 8.104 46.4143 7.816 46.3503 7.576C46.3343 7.528 46.3343 7.456 46.3503 7.36C46.3663 7.248 46.3903 7.144 46.4223 7.048C46.4543 6.936 46.4863 6.84 46.5183 6.76C46.5663 6.68 46.6063 6.64 46.6383 6.64C46.7823 6.608 46.9903 6.688 47.2623 6.88C47.5503 7.072 47.8383 7.312 48.1263 7.6C48.4143 7.872 48.6703 8.152 48.8943 8.44C49.1343 8.712 49.2703 8.928 49.3023 9.088ZM50.4063 21.16C50.3423 21.4 50.3663 21.64 50.4783 21.88C50.5903 22.104 50.7423 22.304 50.9343 22.48C51.1423 22.656 51.3743 22.792 51.6303 22.888C51.9023 22.984 52.1503 23.016 52.3743 22.984C52.6943 22.952 53.0063 22.824 53.3103 22.6C53.6143 22.376 53.8383 22.088 53.9823 21.736C54.1903 21.288 54.1823 20.864 53.9583 20.464C53.7343 20.064 53.3743 19.8 52.8783 19.672C52.6383 19.624 52.3823 19.624 52.1103 19.672C51.8543 19.72 51.6063 19.808 51.3663 19.936C51.1423 20.064 50.9423 20.232 50.7663 20.44C50.5903 20.648 50.4703 20.888 50.4063 21.16Z" fill="black"/>
<path d="M55.3358 50.352C55.3358 50.816 55.3278 51.352 55.3118 51.96C55.2958 52.552 55.2398 53.144 55.1438 53.736C55.0478 54.312 54.8958 54.848 54.6878 55.344C54.4958 55.84 54.2158 56.216 53.8478 56.472C53.6718 56.6 53.5358 56.608 53.4398 56.496C53.3598 56.384 53.3198 56.288 53.3198 56.208C53.3358 55.616 53.3438 55.064 53.3438 54.552C53.3438 54.056 53.3438 53.584 53.3438 53.136C53.3438 52.688 53.3438 52.256 53.3438 51.84C53.3438 51.424 53.3438 51.008 53.3438 50.592V41.208C53.3438 41 53.3358 40.8 53.3198 40.608C53.3198 40.4 53.3118 40.192 53.2958 39.984C53.2958 39.888 53.2638 39.816 53.1998 39.768C52.9758 39.64 52.7358 39.472 52.4798 39.264C52.2238 39.056 51.9678 38.832 51.7118 38.592C51.4718 38.336 51.2398 38.08 51.0158 37.824C50.8078 37.568 50.6318 37.328 50.4878 37.104C50.4398 37.04 50.4318 36.96 50.4638 36.864C50.4958 36.784 50.5598 36.672 50.6558 36.528C50.7518 36.368 50.8878 36.288 51.0638 36.288C51.1918 36.304 51.3118 36.336 51.4238 36.384C51.5358 36.416 51.6478 36.456 51.7598 36.504C52.2078 36.696 52.6798 36.96 53.1758 37.296C53.6878 37.632 54.1438 37.944 54.5438 38.232C54.8158 38.424 55.0078 38.6 55.1198 38.76C55.2478 38.904 55.3198 39.144 55.3358 39.48V50.352ZM48.7118 44.208C48.6638 44.24 48.5518 44.28 48.3758 44.328C48.1998 44.36 47.9758 44.4 47.7038 44.448C47.4478 44.496 47.1598 44.544 46.8398 44.592C46.5358 44.624 46.2318 44.656 45.9278 44.688C45.6078 44.72 45.3678 44.728 45.2078 44.712C45.0638 44.696 44.8638 44.624 44.6078 44.496C44.5438 44.464 44.4398 44.392 44.2958 44.28C44.1678 44.168 44.0318 44.048 43.8878 43.92C43.7438 43.776 43.6158 43.64 43.5038 43.512C43.3918 43.384 43.3278 43.28 43.3118 43.2C43.2958 43.152 43.3198 43.08 43.3838 42.984C43.4478 42.872 43.5198 42.792 43.5998 42.744C43.6638 42.712 43.7198 42.696 43.7678 42.696C43.8158 42.696 43.8718 42.704 43.9358 42.72C44.1598 42.768 44.4238 42.8 44.7278 42.816C45.0318 42.832 45.3678 42.832 45.7358 42.816C46.4878 42.784 47.2238 42.72 47.9438 42.624C48.6798 42.528 49.2878 42.408 49.7678 42.264C49.9918 42.2 50.1838 42.208 50.3438 42.288C50.5198 42.352 50.7678 42.6 51.0878 43.032C51.2158 43.208 51.2238 43.432 51.1118 43.704C50.5998 44.904 50.0318 46.056 49.4078 47.16C48.7998 48.264 48.0318 49.28 47.1038 50.208C46.9918 50.32 46.8158 50.44 46.5758 50.568C46.3358 50.696 46.0718 50.816 45.7838 50.928C45.5118 51.024 45.2318 51.112 44.9438 51.192C44.6718 51.272 44.4398 51.32 44.2478 51.336C44.1198 51.352 43.9678 51.328 43.7918 51.264C43.6318 51.2 43.4718 51.128 43.3118 51.048C43.1518 50.968 43.0078 50.88 42.8798 50.784C42.7678 50.688 42.7038 50.608 42.6878 50.544C42.6718 50.496 42.6878 50.408 42.7358 50.28C42.7998 50.136 42.8558 50.064 42.9038 50.064C43.1598 50.048 43.4078 50 43.6478 49.92C43.8878 49.824 44.1118 49.72 44.3198 49.608C44.5438 49.496 44.7358 49.376 44.8958 49.248C45.0718 49.12 45.2158 49.008 45.3278 48.912C45.7118 48.576 46.0478 48.232 46.3358 47.88C46.6238 47.512 46.8958 47.136 47.1518 46.752C47.4238 46.352 47.6798 45.944 47.9198 45.528C48.1598 45.112 48.4238 44.672 48.7118 44.208Z" fill="black"/>
<path d="M13.9544 52.656C14.5944 52.64 15.3064 52.624 16.0904 52.608C16.8904 52.576 17.6664 52.544 18.4184 52.512C18.4344 52.368 18.4504 52.208 18.4664 52.032C18.4824 51.856 18.4904 51.688 18.4904 51.528C18.4904 51.352 18.4904 51.192 18.4904 51.048C18.4904 50.888 18.4904 50.768 18.4904 50.688C18.1544 50.688 17.6584 50.728 17.0024 50.808C16.3464 50.888 15.6824 50.968 15.0104 51.048C14.8984 51.064 14.7704 51.072 14.6264 51.072C14.4984 51.056 14.3544 50.992 14.1944 50.88C14.1304 50.832 14.0424 50.76 13.9304 50.664C13.8344 50.568 13.7384 50.472 13.6424 50.376C13.5464 50.264 13.4504 50.16 13.3544 50.064C13.2744 49.952 13.2264 49.864 13.2104 49.8C13.1304 49.56 13.1144 49.408 13.1624 49.344C13.1944 49.312 13.2504 49.296 13.3304 49.296C13.4104 49.28 13.5144 49.28 13.6424 49.296C13.8504 49.312 14.0744 49.32 14.3144 49.32C14.5544 49.32 14.7624 49.32 14.9384 49.32C15.2744 49.32 15.6504 49.304 16.0664 49.272C16.4984 49.24 16.9144 49.2 17.3144 49.152C17.7304 49.088 18.1144 49.024 18.4664 48.96C18.8344 48.896 19.1224 48.832 19.3304 48.768C19.4904 48.72 19.6664 48.744 19.8584 48.84C20.0504 48.92 20.2264 49.032 20.3864 49.176C20.5624 49.32 20.7064 49.48 20.8184 49.656C20.9304 49.832 20.9864 49.984 20.9864 50.112C20.9864 50.224 20.9544 50.392 20.8904 50.616C20.8264 50.824 20.7384 51.048 20.6264 51.288C20.5304 51.528 20.4184 51.768 20.2904 52.008C20.1624 52.248 20.0424 52.44 19.9304 52.584C19.9304 52.6 19.9464 52.608 19.9784 52.608C20.1544 52.768 20.2904 52.976 20.3864 53.232C20.4664 53.456 20.4744 53.608 20.4104 53.688C20.3624 53.768 20.2824 53.824 20.1704 53.856C20.0584 53.872 19.9304 53.896 19.7864 53.928C19.6424 53.944 19.3784 53.968 18.9944 54C18.6264 54.032 18.2184 54.064 17.7704 54.096C17.3384 54.128 16.9224 54.152 16.5224 54.168C16.1384 54.2 15.8664 54.216 15.7064 54.216C15.7384 54.232 15.7784 54.272 15.8264 54.336C15.8904 54.416 15.9304 54.464 15.9464 54.48C16.0104 54.624 16.0504 54.872 16.0664 55.224C16.0984 55.592 16.0824 55.912 16.0184 56.184C16.3064 56.184 16.6904 56.168 17.1704 56.136C17.6664 56.12 18.1704 56.096 18.6824 56.064C19.1944 56.032 19.6744 55.992 20.1224 55.944C20.5864 55.912 20.9464 55.872 21.2024 55.824C21.4584 55.776 21.6904 55.728 21.8984 55.68C22.1224 55.632 22.2824 55.624 22.3784 55.656C22.4424 55.672 22.4904 55.76 22.5224 55.92C22.5544 56.08 22.5544 56.208 22.5224 56.304C22.5064 56.384 22.4424 56.488 22.3304 56.616C22.2344 56.744 22.1144 56.864 21.9704 56.976C21.8424 57.104 21.6984 57.216 21.5384 57.312C21.3784 57.408 21.2424 57.472 21.1304 57.504C20.7624 57.616 20.3224 57.704 19.8104 57.768C19.3144 57.848 18.8024 57.912 18.2744 57.96C17.7464 58.008 17.2264 58.04 16.7144 58.056C16.2184 58.088 15.7944 58.104 15.4424 58.104C15.2824 58.104 15.1064 58.104 14.9144 58.104C14.7384 58.104 14.4904 58.088 14.1704 58.056C13.9944 58.024 13.8424 57.984 13.7144 57.936C13.5864 57.888 13.5144 57.752 13.4984 57.528C13.4824 57.32 13.4824 57.08 13.4984 56.808C13.5144 56.552 13.5784 56.352 13.6904 56.208C13.8184 56.064 13.9144 55.888 13.9784 55.68C14.0424 55.472 14.0744 55.248 14.0744 55.008C14.0904 54.784 14.0824 54.56 14.0504 54.336C14.0344 54.128 13.9944 53.952 13.9304 53.808C13.8024 53.744 13.6744 53.648 13.5464 53.52C13.4344 53.408 13.3704 53.28 13.3544 53.136C13.3384 52.976 13.3464 52.872 13.3784 52.824C13.4104 52.776 13.4584 52.744 13.5224 52.728C13.6024 52.696 13.7464 52.672 13.9544 52.656ZM13.0664 37.512C13.2424 37.464 13.4584 37.536 13.7144 37.728C13.9864 37.904 14.2424 38.12 14.4824 38.376C14.7384 38.616 14.9624 38.856 15.1544 39.096C15.3624 39.336 15.4904 39.504 15.5384 39.6C15.7464 39.968 15.8264 40.248 15.7784 40.44C15.7304 40.632 15.6584 40.816 15.5624 40.992C15.3864 41.328 15.2264 41.632 15.0824 41.904C14.9544 42.16 14.7624 42.448 14.5064 42.768C14.9384 43.2 15.3784 43.656 15.8264 44.136C16.2904 44.6 16.7384 45 17.1704 45.336C17.2504 45.4 17.3464 45.488 17.4584 45.6C17.5704 45.696 17.6664 45.8 17.7464 45.912C17.8424 46.024 17.9144 46.136 17.9624 46.248C18.0104 46.36 18.0104 46.464 17.9624 46.56C17.9144 46.72 17.7784 46.832 17.5544 46.896C17.3464 46.96 17.0984 46.984 16.8104 46.968C16.5224 46.936 16.2184 46.864 15.8984 46.752C15.5944 46.64 15.3224 46.48 15.0824 46.272C15.0504 46.24 14.9624 46.152 14.8184 46.008C14.6744 45.848 14.5064 45.664 14.3144 45.456C14.1224 45.248 13.9224 45.04 13.7144 44.832C13.5224 44.608 13.3624 44.416 13.2344 44.256C13.1384 44.384 12.9944 44.552 12.8024 44.76C12.6104 44.968 12.4104 45.184 12.2024 45.408C12.0104 45.632 11.8104 45.84 11.6024 46.032C11.4104 46.224 11.2504 46.352 11.1224 46.416C10.9784 46.496 10.8184 46.592 10.6424 46.704C10.4824 46.8 10.2824 46.888 10.0424 46.968C9.81838 47.032 9.56238 47.08 9.27438 47.112C8.98638 47.144 8.65838 47.12 8.29038 47.04C8.19438 47.024 8.13038 46.96 8.09838 46.848C8.06638 46.752 8.07438 46.68 8.12238 46.632C8.39438 46.376 8.64238 46.168 8.86638 46.008C9.09038 45.832 9.26638 45.696 9.39438 45.6C10.3064 44.816 11.0984 43.96 11.7704 43.032C12.4424 42.088 12.9304 41.24 13.2344 40.488C13.2824 40.408 13.2984 40.344 13.2824 40.296C13.2664 40.248 13.2504 40.184 13.2344 40.104C13.1704 39.784 13.0664 39.48 12.9224 39.192C12.7944 38.888 12.6904 38.608 12.6104 38.352C12.6264 38.192 12.6904 38.016 12.8024 37.824C12.9144 37.616 13.0024 37.512 13.0664 37.512ZM21.6584 42.168V42.216C21.8984 42.168 22.1544 42.128 22.4264 42.096C22.6984 42.048 22.9384 42.04 23.1464 42.072C23.3544 42.104 23.5944 42.224 23.8664 42.432C24.1384 42.64 24.3304 42.848 24.4424 43.056C24.5064 43.184 24.5464 43.32 24.5624 43.464C24.5944 43.608 24.5304 43.728 24.3704 43.824C24.0824 44 23.6824 44.08 23.1704 44.064C22.6584 44.048 22.1384 44.008 21.6104 43.944C21.5624 44.616 21.4424 45.264 21.2504 45.888C21.0584 46.496 20.7144 47.112 20.2184 47.736C20.0904 47.912 19.9784 48.016 19.8824 48.048C19.8024 48.064 19.7224 48.048 19.6424 48C19.5944 47.968 19.5304 47.888 19.4504 47.76C19.3864 47.616 19.3304 47.456 19.2824 47.28C19.2664 47.2 19.2744 47.08 19.3064 46.92C19.3384 46.76 19.3784 46.624 19.4264 46.512C19.4744 45.744 19.5064 44.976 19.5224 44.208C19.5384 43.44 19.5384 42.688 19.5224 41.952C19.5064 41.216 19.4824 40.528 19.4504 39.888C19.4344 39.232 19.4104 38.64 19.3784 38.112C19.3784 37.904 19.3144 37.76 19.1864 37.68C18.8664 37.488 18.5704 37.28 18.2984 37.056C18.0264 36.816 17.7784 36.536 17.5544 36.216C17.5224 36.168 17.4744 36.024 17.4104 35.784C17.3464 35.544 17.3304 35.344 17.3624 35.184C17.3784 35.072 17.4184 35 17.4824 34.968C17.5624 34.936 17.6344 34.928 17.6984 34.944C18.3064 35.072 18.8664 35.288 19.3784 35.592C19.9064 35.88 20.4424 36.208 20.9864 36.576C21.2744 36.768 21.4584 36.952 21.5384 37.128C21.6184 37.304 21.6584 37.536 21.6584 37.824V42.168Z" fill="black"/>
<defs>
<filter id="filter0_d_127_469" x="0" y="0" width="34" height="34" filterUnits="userSpaceOnUse" color-interpolation-filters="sRGB">
<feFlood flood-opacity="0" result="BackgroundImageFix"/>
<feColorMatrix in="SourceAlpha" type="matrix" values="0 0 0 0 0 0 0 0 0 0 0 0 0 0 0 0 0 0 127 0" result="hardAlpha"/>
<feOffset dy="2"/>
<feGaussianBlur stdDeviation="1"/>
<feComposite in2="hardAlpha" operator="out"/>
<feColorMatrix type="matrix" values="0 0 0 0 0 0 0 0 0 0 0 0 0 0 0 0 0 0 0.1 0"/>
<feBlend mode="normal" in2="BackgroundImageFix" result="effect1_dropShadow_127_469"/>
<feBlend mode="normal" in="SourceGraphic" in2="effect1_dropShadow_127_469" result="shape"/>
</filter>
<filter id="filter1_d_127_469" x="33" y="0" width="34" height="34" filterUnits="userSpaceOnUse" color-interpolation-filters="sRGB">
<feFlood flood-opacity="0" result="BackgroundImageFix"/>
<feColorMatrix in="SourceAlpha" type="matrix" values="0 0 0 0 0 0 0 0 0 0 0 0 0 0 0 0 0 0 127 0" result="hardAlpha"/>
<feOffset dy="2"/>
<feGaussianBlur stdDeviation="1"/>
<feComposite in2="hardAlpha" operator="out"/>
<feColorMatrix type="matrix" values="0 0 0 0 0 0 0 0 0 0 0 0 0 0 0 0 0 0 0.1 0"/>
<feBlend mode="normal" in2="BackgroundImageFix" result="effect1_dropShadow_127_469"/>
<feBlend mode="normal" in="SourceGraphic" in2="effect1_dropShadow_127_469" result="shape"/>
</filter>
<filter id="filter2_d_127_469" x="33" y="32" width="34" height="34" filterUnits="userSpaceOnUse" color-interpolation-filters="sRGB">
<feFlood flood-opacity="0" result="BackgroundImageFix"/>
<feColorMatrix in="SourceAlpha" type="matrix" values="0 0 0 0 0 0 0 0 0 0 0 0 0 0 0 0 0 0 127 0" result="hardAlpha"/>
<feOffset dy="2"/>
<feGaussianBlur stdDeviation="1"/>
<feComposite in2="hardAlpha" operator="out"/>
<feColorMatrix type="matrix" values="0 0 0 0 0 0 0 0 0 0 0 0 0 0 0 0 0 0 0.1 0"/>
<feBlend mode="normal" in2="BackgroundImageFix" result="effect1_dropShadow_127_469"/>
<feBlend mode="normal" in="SourceGraphic" in2="effect1_dropShadow_127_469" result="shape"/>
</filter>
<filter id="filter3_d_127_469" x="0" y="32" width="34" height="34" filterUnits="userSpaceOnUse" color-interpolation-filters="sRGB">
<feFlood flood-opacity="0" result="BackgroundImageFix"/>
<feColorMatrix in="SourceAlpha" type="matrix" values="0 0 0 0 0 0 0 0 0 0 0 0 0 0 0 0 0 0 127 0" result="hardAlpha"/>
<feOffset dy="2"/>
<feGaussianBlur stdDeviation="1"/>
<feComposite in2="hardAlpha" operator="out"/>
<feColorMatrix type="matrix" values="0 0 0 0 0 0 0 0 0 0 0 0 0 0 0 0 0 0 0.1 0"/>
<feBlend mode="normal" in2="BackgroundImageFix" result="effect1_dropShadow_127_469"/>
<feBlend mode="normal" in="SourceGraphic" in2="effect1_dropShadow_127_469" result="shape"/>
</filter>
</defs>
</svg>
