<svg width="256" height="252" viewBox="0 0 256 252" fill="none" xmlns="http://www.w3.org/2000/svg">
<g filter="url(#filter0_d_305_449)">
<rect x="2" width="120" height="120" rx="20" fill="white"/>
<rect x="3.5" y="1.5" width="117" height="117" rx="18.5" stroke="#E5E5E5" stroke-width="3"/>
</g>
<g filter="url(#filter1_d_305_449)">
<rect x="134" width="120" height="120" rx="20" fill="#F3F3F3"/>
<rect x="135.5" y="1.5" width="117" height="117" rx="18.5" stroke="#E5E5E5" stroke-width="3"/>
</g>
<g filter="url(#filter2_d_305_449)">
<rect x="134" y="128" width="120" height="120" rx="20" fill="white"/>
<rect x="135.5" y="129.5" width="117" height="117" rx="18.5" stroke="#E5E5E5" stroke-width="3"/>
</g>
<g filter="url(#filter3_d_305_449)">
<rect x="2" y="128" width="120" height="120" rx="20" fill="#F3F3F3"/>
<rect x="3.5" y="129.5" width="117" height="117" rx="18.5" stroke="#E5E5E5" stroke-width="3"/>
</g>
<path d="M94.8019 45.8C95.3139 46.248 95.8899 46.792 96.5299 47.432C97.1699 48.072 97.7459 48.744 98.2579 49.448C98.8339 50.088 99.3139 50.728 99.6979 51.368C100.082 52.008 100.274 52.552 100.274 53C100.274 53.768 100.018 54.504 99.5059 55.208C99.0579 55.848 98.4179 56.424 97.5859 56.936C96.7539 57.384 95.8259 57.768 94.8019 58.088C93.7779 58.344 92.7219 58.504 91.6339 58.568C90.8019 58.632 89.8739 58.664 88.8499 58.664C87.8259 58.664 86.8019 58.664 85.7779 58.664C85.7779 59.112 85.7779 59.528 85.7779 59.912C85.7779 60.296 85.7459 60.648 85.6819 60.968C85.5539 62.632 85.2339 64.328 84.7219 66.056C84.2099 67.784 83.5699 69.384 82.8019 70.856C82.0979 72.328 81.2659 73.64 80.3059 74.792C79.3459 75.88 78.3539 76.648 77.3299 77.096C76.4339 75.24 75.5059 73.448 74.5459 71.72C73.6499 69.992 72.9459 68.104 72.4339 66.056C71.9219 63.944 71.6339 61.896 71.5699 59.912C71.5059 57.864 71.5379 55.912 71.6659 54.056C71.9219 50.984 72.0819 47.496 72.1459 43.592C72.2739 39.624 72.3379 35.784 72.3379 32.072C72.3379 30.856 72.2099 29.832 71.9539 29C71.7619 28.168 71.4099 27.272 70.8979 26.312C70.6419 25.8 70.2899 25.224 69.8419 24.584C69.4579 23.88 69.1059 23.304 68.7859 22.856C68.5299 22.536 68.4659 22.12 68.5939 21.608C68.7219 21.032 68.9779 20.456 69.3619 19.88C69.6819 19.432 70.2259 18.888 70.9939 18.248C71.8259 17.544 72.5619 17.064 73.2019 16.808C73.9059 16.552 74.5779 16.488 75.2179 16.616C75.8579 16.68 76.4339 16.808 76.9459 17C77.6499 17.32 78.4819 17.768 79.4419 18.344C80.4019 18.856 81.2659 19.368 82.0339 19.88C83.3139 20.776 84.1779 21.928 84.6259 23.336C85.1379 24.68 85.4899 26.024 85.6819 27.368C85.8099 28.264 85.9059 29.384 85.9699 30.728C86.0979 32.008 86.1299 33.224 86.0659 34.376C85.9379 35.848 85.8739 37.48 85.8739 39.272C85.8739 41 85.8739 42.792 85.8739 44.648C86.3859 44.584 86.8979 44.52 87.4099 44.456C87.9859 44.328 88.4979 44.2 88.9459 44.072C90.2259 43.752 91.3459 43.816 92.3059 44.264C93.2659 44.712 94.0979 45.224 94.8019 45.8ZM29.7139 64.136C31.4419 62.984 33.2019 61.608 34.9939 60.008C36.7859 58.408 38.5139 56.68 40.1779 54.824C41.9059 52.968 43.4739 51.112 44.8819 49.256C46.3539 47.336 47.6019 45.512 48.6259 43.784C47.8579 43.784 46.9299 43.816 45.8419 43.88C44.7539 43.944 43.6659 44.008 42.5779 44.072C41.4899 44.072 40.4339 44.072 39.4099 44.072C38.3859 44.072 37.5859 44.04 37.0099 43.976C35.1539 43.848 33.5539 43.432 32.2099 42.728C30.9299 41.96 29.5219 40.744 27.9859 39.08C27.2819 38.376 26.9619 37.832 27.0259 37.448C27.0899 37 27.2499 36.52 27.5059 36.008C27.6339 35.752 27.8899 35.4 28.2739 34.952C28.6579 34.504 29.0739 34.056 29.5219 33.608C29.9699 33.096 30.3859 32.616 30.7699 32.168C31.2179 31.72 31.5699 31.4 31.8259 31.208C32.5299 30.696 33.1059 30.504 33.5539 30.632C34.0019 30.76 34.5779 30.984 35.2819 31.304C35.9859 31.624 36.6259 31.816 37.2019 31.88C37.7779 31.944 38.6099 31.976 39.6979 31.976C40.7219 31.976 41.9379 31.944 43.3459 31.88C44.8179 31.816 46.2899 31.752 47.7619 31.688C49.2979 31.56 50.7379 31.432 52.0819 31.304C53.4899 31.112 54.6419 30.92 55.5379 30.728C57.2019 30.344 58.5779 30.504 59.6659 31.208C60.8179 31.848 62.0339 33 63.3139 34.664C64.0179 35.56 64.4659 36.52 64.6579 37.544C64.9139 38.504 64.9779 39.368 64.8499 40.136C64.7859 40.456 64.5939 40.872 64.2739 41.384C64.0179 41.832 63.8259 42.28 63.6979 42.728C61.6499 47.336 59.2179 51.848 56.4019 56.264C53.6499 60.616 50.4499 64.488 46.8019 67.88C45.4579 69.16 43.8899 70.12 42.0979 70.76C40.3699 71.336 38.6739 71.624 37.0099 71.624C35.6019 71.624 34.1299 71.528 32.5939 71.336C31.1219 71.08 29.6819 70.76 28.2739 70.376C26.8659 69.928 25.5219 69.448 24.2419 68.936C23.0259 68.36 21.9699 67.784 21.0739 67.208C24.0179 67.016 26.8979 65.992 29.7139 64.136ZM83.7619 89.576C86.2579 90.536 87.9539 91.624 88.8499 92.84C89.8099 94.12 90.4179 95.912 90.6739 98.216C90.8019 99.176 90.7059 100.168 90.3859 101.192C90.1299 102.28 89.6819 103.08 89.0419 103.592C88.5299 103.976 87.5699 104.2 86.1619 104.264C84.7539 104.392 83.3139 104.36 81.8419 104.168C80.8819 104.04 79.7619 103.72 78.4819 103.208C77.2659 102.696 76.1459 102.088 75.1219 101.384C74.0339 100.616 72.8819 99.816 71.6659 98.984C70.5139 98.216 69.3299 97.416 68.1139 96.584C66.8979 95.752 65.7139 94.952 64.5619 94.184C63.4739 93.416 62.4499 92.744 61.4899 92.168C59.9539 93.896 58.4499 95.464 56.9779 96.872C55.5699 98.344 54.3219 99.496 53.2339 100.328C51.5059 101.672 49.9379 102.504 48.5299 102.824C47.1859 103.144 45.6179 103.304 43.8259 103.304C42.8659 103.304 41.7139 103.176 40.3699 102.92C39.0259 102.664 37.6179 102.312 36.1459 101.864C34.6739 101.416 33.2019 100.904 31.7299 100.328C30.2579 99.752 28.8499 99.176 27.5059 98.6C29.6819 98.088 32.0179 97.256 34.5139 96.104C37.0099 94.952 39.4739 93.608 41.9059 92.072C43.3779 91.112 44.8499 90.056 46.3219 88.904C47.8579 87.752 49.2979 86.568 50.6419 85.352C51.9859 84.072 53.2019 82.824 54.2899 81.608C55.4419 80.392 56.3699 79.24 57.0739 78.152C57.3939 77.704 57.6179 77.352 57.7459 77.096C57.9379 76.776 58.0659 76.488 58.1299 76.232C58.1939 75.976 58.1939 75.72 58.1299 75.464C58.0659 75.208 58.0019 74.856 57.9379 74.408C57.8099 74.024 57.6499 73.64 57.4579 73.256C57.3299 72.872 57.5859 72.36 58.2259 71.72C58.5459 71.4 59.0579 70.984 59.7619 70.472C60.4659 69.896 61.1379 69.48 61.7779 69.224C62.4179 68.968 63.0579 69.032 63.6979 69.416C64.9779 70.184 66.1619 70.984 67.2499 71.816C68.3379 72.648 69.2659 73.544 70.0339 74.504C70.4819 75.016 70.7699 75.912 70.8979 77.192C71.0259 78.408 70.8339 79.496 70.3219 80.456L68.4019 83.624C69.4899 84.008 70.6739 84.456 71.9539 84.968C73.2979 85.48 74.6419 85.992 75.9859 86.504C77.3299 87.016 78.6739 87.56 80.0179 88.136C81.3619 88.648 82.6099 89.128 83.7619 89.576Z" fill="black"/>
<path d="M223.98 28.232C224.108 30.024 224.236 32.136 224.364 34.568C224.492 36.936 224.588 39.464 224.652 42.152C224.716 44.776 224.716 47.496 224.652 50.312C224.588 53.064 224.46 55.752 224.268 58.376C223.948 61.768 223.244 64.904 222.156 67.784C221.132 70.664 219.532 73.48 217.356 76.232C218.7 77.704 219.756 79.368 220.524 81.224C221.292 83.08 221.676 85.064 221.676 87.176C221.676 89.864 221.068 92.232 219.852 94.28C218.636 96.392 217.004 98.152 214.956 99.56C212.972 100.968 210.636 102.024 207.948 102.728C205.324 103.496 202.54 103.88 199.596 103.88C196.524 103.88 193.42 103.56 190.284 102.92C187.212 102.28 184.332 101.32 181.644 100.04C179.02 98.76 176.78 97.16 174.924 95.24C173.132 93.32 172.012 91.08 171.564 88.52C171.372 87.624 171.308 86.792 171.372 86.024C171.436 85.256 171.532 84.616 171.66 84.104C171.852 83.464 172.076 82.92 172.332 82.472C173.292 80.552 174.668 78.856 176.46 77.384C178.316 75.848 180.364 74.568 182.604 73.544C184.908 72.52 187.308 71.752 189.804 71.24C192.364 70.664 194.796 70.312 197.1 70.184C196.588 69.096 196.108 67.944 195.66 66.728C195.276 65.512 195.052 64.296 194.988 63.08C194.924 61.352 194.892 59.304 194.892 56.936C194.892 54.504 194.924 52.008 194.988 49.448C195.052 46.824 195.084 44.232 195.084 41.672C195.148 39.112 195.18 36.776 195.18 34.664C195.18 33.896 195.148 33.288 195.084 32.84C195.084 32.328 194.988 31.88 194.796 31.496C194.668 31.112 194.476 30.76 194.22 30.44C193.964 30.056 193.644 29.608 193.26 29.096C192.492 28.136 192.14 27.272 192.204 26.504C192.332 25.672 192.844 24.808 193.74 23.912C193.868 23.784 194.22 23.464 194.796 22.952C195.436 22.376 195.948 22.024 196.332 21.896C196.844 21.704 197.42 21.672 198.06 21.8C198.7 21.864 199.468 22.152 200.364 22.664C201.26 23.176 202.092 23.848 202.86 24.68C203.628 25.448 204.268 26.088 204.78 26.6C205.868 27.88 206.508 29.256 206.7 30.728C206.956 32.136 207.116 33.672 207.18 35.336C207.18 36.296 207.18 37.608 207.18 39.272C207.244 40.936 207.308 42.728 207.372 44.648C208.14 44.52 208.908 44.424 209.676 44.36C210.444 44.232 211.18 44.168 211.884 44.168C211.884 41.48 211.852 39.048 211.788 36.872C211.788 34.632 211.788 32.456 211.788 30.344C211.788 29.448 211.724 28.68 211.596 28.04C211.468 27.4 211.244 26.824 210.924 26.312C210.668 25.736 210.316 25.16 209.868 24.584C209.42 24.008 208.876 23.304 208.236 22.472C207.916 22.024 207.724 21.512 207.66 20.936C207.596 20.296 207.756 19.72 208.14 19.208C208.332 18.952 208.716 18.6 209.292 18.152C209.868 17.704 210.316 17.384 210.636 17.192C211.404 16.744 212.044 16.488 212.556 16.424C213.132 16.36 213.868 16.424 214.764 16.616C215.788 16.808 216.844 17.352 217.932 18.248C219.02 19.08 219.852 19.816 220.428 20.456C221.452 21.544 222.252 22.76 222.828 24.104C223.468 25.384 223.852 26.76 223.98 28.232ZM172.62 64.808C171.66 65.896 170.7 66.76 169.74 67.4C168.844 67.976 167.884 68.424 166.86 68.744C165.9 69 164.844 69.16 163.692 69.224C162.54 69.288 161.292 69.288 159.948 69.224C158.348 69.16 156.684 68.84 154.956 68.264C153.292 67.624 151.692 66.696 150.156 65.48C151.628 65.352 153.004 64.936 154.284 64.232C155.628 63.528 156.812 62.664 157.836 61.64C159.052 60.424 160.3 58.984 161.58 57.32C162.924 55.656 164.14 53.96 165.228 52.232C166.38 50.44 167.372 48.648 168.204 46.856C169.1 45.064 169.772 43.4 170.22 41.864C170.604 40.52 170.828 39.464 170.892 38.696C170.956 37.864 170.668 37.096 170.028 36.392C169.132 35.304 168.876 34.312 169.26 33.416C169.452 32.904 169.836 32.232 170.412 31.4C171.052 30.504 171.66 29.8 172.236 29.288C172.94 28.712 173.58 28.456 174.156 28.52C174.796 28.52 175.628 28.68 176.652 29C177.676 29.32 178.732 29.768 179.82 30.344C180.908 30.92 181.9 31.656 182.796 32.552C184.076 33.832 184.684 35.272 184.62 36.872C184.556 38.408 184.268 40.296 183.756 42.536C183.308 44.52 182.572 46.664 181.548 48.968C182.316 49.48 183.116 50.056 183.948 50.696C184.78 51.336 185.58 51.976 186.348 52.616C187.18 53.192 187.916 53.768 188.556 54.344C189.26 54.856 189.772 55.272 190.092 55.592C191.564 57.064 192.46 58.408 192.78 59.624C193.1 60.84 193.132 62.056 192.876 63.272C192.556 64.744 191.788 65.928 190.572 66.824C189.42 67.72 188.012 68.104 186.348 67.976C184.94 67.848 183.628 67.368 182.412 66.536C181.196 65.704 180.044 64.648 178.956 63.368C178.508 62.856 178.06 62.28 177.612 61.64C177.228 60.936 176.78 60.232 176.268 59.528C174.86 61.832 173.644 63.592 172.62 64.808ZM204.972 66.344C204.652 66.856 204.332 67.336 204.012 67.784C203.692 68.232 203.372 68.712 203.052 69.224C204.908 69.352 206.7 69.704 208.428 70.28C210.156 70.856 211.756 71.656 213.228 72.68L212.46 68.648C212.14 66.6 211.916 64.584 211.788 62.6C211.724 60.552 211.724 58.536 211.788 56.552L207.468 56.264V58.184C207.34 61 206.508 63.72 204.972 66.344ZM197.292 91.4C198.636 91.4 199.916 91.336 201.132 91.208C202.412 91.08 203.532 90.824 204.492 90.44C205.452 90.056 206.22 89.576 206.796 89C207.372 88.36 207.66 87.592 207.66 86.696C207.66 85.032 207.052 83.688 205.836 82.664C204.684 81.64 203.436 80.968 202.092 80.648C201.388 80.456 200.78 80.264 200.268 80.072C199.756 79.88 199.244 79.56 198.732 79.112C197.644 79.112 196.46 79.304 195.18 79.688C193.964 80.008 192.748 80.456 191.532 81.032C190.38 81.608 189.228 82.28 188.076 83.048C186.988 83.752 186.06 84.52 185.292 85.352C186.06 87.272 187.596 88.744 189.9 89.768C192.204 90.792 194.668 91.336 197.292 91.4Z" fill="black"/>
<path d="M213.119 231.688C212.543 231.24 212.031 230.472 211.583 229.384C211.199 228.36 210.879 227.144 210.623 225.736C210.431 224.328 210.239 222.76 210.047 221.032C209.919 219.368 209.823 217.608 209.759 215.752C209.567 211.72 209.503 207.24 209.567 202.312C209.631 197.32 209.759 192.296 209.951 187.24C210.143 182.12 210.303 177.128 210.431 172.264C210.559 167.336 210.559 162.952 210.431 159.112C210.431 158.152 210.367 157.416 210.239 156.904C210.111 156.328 209.919 155.848 209.663 155.464C209.471 155.016 209.215 154.6 208.895 154.216C208.639 153.768 208.351 153.256 208.031 152.68C207.583 151.912 207.263 151.368 207.071 151.048C206.879 150.664 206.879 150.184 207.071 149.608C207.263 148.968 207.647 148.392 208.223 147.88C208.863 147.368 209.567 146.92 210.335 146.536C211.103 146.152 211.903 145.864 212.735 145.672C213.631 145.416 214.463 145.256 215.231 145.192C216.639 145.064 217.727 145.384 218.495 146.152C219.327 146.984 220.127 147.848 220.895 148.744C221.727 149.576 222.367 150.408 222.815 151.24C223.263 152.072 223.551 152.872 223.679 153.64C223.871 154.344 223.967 155.176 223.967 156.136C224.031 158.952 224.063 162.088 224.063 165.544C224.063 168.936 224.063 172.456 224.063 176.104C224.063 179.688 224.031 183.304 223.967 186.952C223.967 190.536 223.935 193.896 223.871 197.032C223.871 200.104 223.839 202.856 223.775 205.288C223.711 207.72 223.647 209.576 223.583 210.856C223.519 211.752 223.295 213.032 222.911 214.696C222.591 216.296 221.919 217.832 220.895 219.304C219.039 221.736 217.311 223.976 215.711 226.024C214.111 228.136 213.247 230.024 213.119 231.688ZM150.622 210.568C153.375 209.864 155.999 208.872 158.495 207.592C161.055 206.312 163.359 204.744 165.407 202.888C169.631 199.048 173.343 194.856 176.543 190.312C179.743 185.768 182.271 181 184.127 176.008C183.103 176.072 182.015 176.136 180.863 176.2C179.711 176.264 178.559 176.328 177.406 176.392C176.255 176.392 175.135 176.392 174.047 176.392C173.023 176.392 172.127 176.392 171.359 176.392C170.463 176.328 169.631 176.232 168.863 176.104C168.159 175.976 167.391 175.72 166.559 175.336C165.919 175.016 165.247 174.6 164.543 174.088C163.839 173.512 163.167 172.936 162.527 172.36C161.887 171.72 161.343 171.112 160.895 170.536C160.447 169.896 160.127 169.352 159.935 168.904C159.679 168.328 159.775 167.752 160.223 167.176C160.735 166.536 161.535 165.832 162.623 165.064C163.711 164.232 164.511 163.752 165.023 163.624C165.535 163.496 166.015 163.528 166.463 163.72C166.975 163.848 167.519 164.04 168.095 164.296C168.607 164.488 169.183 164.616 169.823 164.68C170.527 164.744 171.135 164.776 171.647 164.776C172.607 164.776 173.855 164.744 175.391 164.68C176.991 164.552 178.591 164.456 180.191 164.392C181.855 164.264 183.391 164.168 184.799 164.104C186.271 163.976 187.391 163.88 188.159 163.816C189.055 163.688 189.951 163.496 190.847 163.24C191.743 162.92 192.639 162.824 193.535 162.952C194.431 163.08 195.263 163.4 196.031 163.912C196.863 164.36 197.567 164.84 198.143 165.352C199.679 166.696 200.511 168.072 200.639 169.48C200.703 170.44 200.543 171.208 200.159 171.784C199.775 172.36 199.487 173 199.295 173.704C198.335 176.968 197.183 180.264 195.839 183.592C194.495 186.856 192.959 190.056 191.231 193.192C189.567 196.264 187.711 199.208 185.663 202.024C183.679 204.84 181.535 207.4 179.231 209.704C177.311 211.624 175.391 212.968 173.471 213.736C171.551 214.44 169.599 214.92 167.615 215.176C166.527 215.304 165.567 215.336 164.734 215.272C163.903 215.144 163.135 214.952 162.431 214.696C161.727 214.44 161.055 214.12 160.415 213.736C159.775 213.352 159.071 212.904 158.303 212.392C157.535 211.944 156.799 211.624 156.095 211.432C155.391 211.176 154.719 211.016 154.079 210.952C153.439 210.888 152.831 210.856 152.255 210.856C151.678 210.792 151.134 210.696 150.622 210.568Z" fill="black"/>
<path d="M89.1404 184.648C88.2444 184.712 87.2204 184.744 86.0684 184.744C84.9164 184.744 83.7964 184.744 82.7084 184.744C82.2604 186.408 81.6844 188.04 80.9804 189.64C80.2764 191.176 79.4764 192.552 78.5804 193.768C79.2844 194.088 79.8924 194.504 80.4044 195.016C80.9804 195.528 81.5244 196.072 82.0364 196.648C82.3564 197.096 82.7084 197.576 83.0924 198.088C83.4764 198.6 83.6684 199.08 83.6684 199.528C83.6684 200.232 83.2524 201.256 82.4204 202.6C82.2924 202.92 82.0684 203.56 81.7484 204.52C81.4284 205.48 81.0764 206.504 80.6924 207.592C80.3724 208.68 80.0524 209.704 79.7324 210.664C79.4764 211.56 79.3164 212.104 79.2524 212.296C78.8684 213.512 78.1644 214.28 77.1404 214.6C76.1804 214.856 74.9324 215.016 73.3964 215.08C72.7564 215.08 71.4764 215.08 69.5564 215.08C67.6364 215.08 65.4604 215.08 63.0284 215.08C60.5964 215.08 58.0364 215.08 55.3484 215.08C52.6604 215.016 50.2284 214.984 48.0524 214.984C48.5644 215.816 49.1084 216.584 49.6844 217.288C50.6444 218.44 51.6364 219.112 52.6604 219.304C53.7484 219.56 54.9324 219.752 56.2124 219.88C56.7884 219.944 57.8124 220.008 59.2844 220.072C60.8204 220.136 62.4524 220.168 64.1804 220.168C65.9084 220.232 67.6044 220.264 69.2684 220.264C70.9324 220.264 72.2444 220.264 73.2044 220.264C74.2284 220.264 75.3804 220.168 76.6604 219.976C77.9404 219.784 79.0924 219.56 80.1164 219.304C81.1404 219.048 82.0044 218.952 82.7084 219.016C83.4124 219.08 84.0524 219.272 84.6284 219.592C85.2684 219.912 85.8764 220.328 86.4524 220.84C87.0924 221.416 87.7964 222.088 88.5644 222.856C89.6524 223.944 89.9724 224.84 89.5244 225.544C89.0764 226.312 88.3724 227.112 87.4124 227.944C86.3244 228.904 85.2684 229.64 84.2444 230.152C83.2844 230.664 82.2924 231.048 81.2684 231.304C80.2444 231.56 79.1244 231.72 77.9084 231.784C76.7564 231.848 75.4444 231.88 73.9724 231.88C73.2684 231.88 71.8924 231.848 69.8444 231.784C67.7964 231.784 65.5884 231.752 63.2204 231.688C60.9164 231.688 58.7084 231.656 56.5964 231.592C54.4844 231.528 53.0124 231.496 52.1804 231.496C50.9004 231.432 49.7804 231.336 48.8204 231.208C47.8604 231.144 46.9964 230.952 46.2284 230.632C45.4604 230.376 44.7244 229.96 44.0204 229.384C43.3164 228.808 42.5804 228.008 41.8124 226.984C40.3404 225.128 39.1244 223.336 38.1644 221.608C37.2044 219.88 36.2444 218.344 35.2844 217C34.7724 216.296 34.0684 215.752 33.1724 215.368C32.3404 214.984 31.4764 214.504 30.5804 213.928C29.8124 213.416 29.3004 212.872 29.0444 212.296C28.7244 211.592 28.5644 210.888 28.5644 210.184C28.6284 209.48 28.9164 208.872 29.4284 208.36C29.9404 207.848 30.6764 207.4 31.6364 207.016C32.6604 206.568 33.6844 206.184 34.7084 205.864C35.9244 205.48 36.9484 205.192 37.7804 205C38.6124 204.808 39.3164 204.712 39.8924 204.712C40.4684 204.712 40.9804 204.872 41.4284 205.192C41.8764 205.448 42.2924 205.896 42.6764 206.536L42.9644 207.016L67.9244 206.728L68.1164 202.504C66.0684 202.44 63.7964 202.376 61.3004 202.312C58.8044 202.248 56.3084 202.216 53.8124 202.216C51.3164 202.216 48.8844 202.216 46.5164 202.216C44.2124 202.216 42.1964 202.216 40.4684 202.216C39.8284 202.216 39.2844 202.216 38.8364 202.216C38.3884 202.152 37.9404 202.056 37.4924 201.928C37.0444 201.8 36.5644 201.608 36.0524 201.352C35.6044 201.096 35.0284 200.712 34.3244 200.2C33.6204 199.688 33.0124 199.176 32.5004 198.664C31.9884 198.152 31.7004 197.608 31.6364 197.032C31.5724 196.456 31.6044 195.848 31.7324 195.208C31.9244 194.568 32.3404 193.896 32.9804 193.192C33.4284 192.68 33.8444 192.328 34.2284 192.136C34.6124 191.944 34.9964 191.848 35.3804 191.848C35.8284 191.848 36.3084 191.944 36.8204 192.136C37.3324 192.264 38.0044 192.424 38.8364 192.616C40.6284 193 42.6124 193.288 44.7884 193.48C47.6044 193.736 50.5164 193.832 53.5244 193.768C56.5324 193.64 59.1244 193.544 61.3004 193.48C62.7084 193.416 64.5324 193.32 66.7724 193.192C69.0764 193 71.1244 192.84 72.9164 192.712C72.3404 191.624 71.7964 190.536 71.2844 189.448C70.8364 188.36 70.4524 187.176 70.1324 185.896C69.6204 183.784 69.3324 181.736 69.2684 179.752C69.2044 177.704 69.2364 175.752 69.3644 173.896C69.4924 172.36 69.5884 171.016 69.6524 169.864C69.7804 168.648 69.8444 167.528 69.8444 166.504C69.9084 165.416 69.9404 164.36 69.9404 163.336C70.0044 162.312 70.0364 161.224 70.0364 160.072C70.0364 158.856 70.0044 157.864 69.9404 157.096C69.9404 156.264 69.7804 155.336 69.4604 154.312C69.3324 153.8 68.9164 153.224 68.2124 152.584C67.5084 151.88 66.9964 151.304 66.6764 150.856C66.4204 150.536 66.3564 150.12 66.4844 149.608C66.6124 149.032 66.8684 148.456 67.2524 147.88C67.5724 147.432 68.1164 146.888 68.8844 146.248C69.7164 145.608 70.4524 145.128 71.0924 144.808C72.3084 144.232 73.3964 144.136 74.3564 144.52C75.0604 144.84 75.9564 145.352 77.0444 146.056C78.1324 146.76 79.0284 147.432 79.7324 148.072C80.8844 149.032 81.7164 150.152 82.2284 151.432C82.8044 152.712 83.1884 154.024 83.3804 155.368C83.5084 156.264 83.6044 157.384 83.6684 158.728C83.7964 160.008 83.8284 161.224 83.7644 162.376C83.7004 163.848 83.6684 165.352 83.6684 166.888C83.6684 168.424 83.6684 169.96 83.6684 171.496L86.4524 170.92C87.7324 170.6 88.8524 170.664 89.8124 171.112C90.7724 171.56 91.6044 172.072 92.3084 172.648C92.8204 173.096 93.3964 173.64 94.0364 174.28C94.6764 174.856 95.2524 175.464 95.7644 176.104C96.3404 176.744 96.7884 177.384 97.1084 178.024C97.4924 178.6 97.6844 179.112 97.6844 179.56C97.6844 181.096 96.7884 182.312 94.9964 183.208C93.2684 184.104 91.3164 184.584 89.1404 184.648ZM45.9404 179.944C44.2764 182.056 42.7404 183.784 41.3324 185.128C39.0924 187.176 36.8204 188.52 34.5164 189.16C32.2124 189.736 29.7164 189.96 27.0284 189.832C25.5564 189.768 23.9244 189.384 22.1324 188.68C20.3404 187.976 18.6764 186.888 17.1404 185.416C18.6124 185.288 20.0204 184.904 21.3644 184.264C22.7084 183.624 23.9244 182.92 25.0124 182.152C26.3564 181.192 27.7644 180.072 29.2364 178.792C30.7724 177.448 32.2124 176.04 33.5564 174.568C34.9644 173.032 36.2124 171.496 37.3004 169.96C38.4524 168.36 39.3164 166.888 39.8924 165.544C40.4044 164.328 40.6604 163.304 40.6604 162.472C40.7244 161.576 40.4684 160.712 39.8924 159.88C39.2524 158.984 38.8684 158.344 38.7404 157.96C38.6764 157.576 38.8044 157.16 39.1244 156.712C39.5084 156.2 40.0524 155.592 40.7564 154.888C41.4604 154.12 42.0684 153.576 42.5804 153.256C43.2844 152.744 43.8604 152.488 44.3084 152.488C44.7564 152.488 45.4924 152.648 46.5164 152.968C47.5404 153.288 48.5324 153.768 49.4924 154.408C50.5164 154.984 51.5724 155.752 52.6604 156.712C53.3004 157.288 53.8124 157.864 54.1964 158.44C54.5804 158.952 54.8044 159.528 54.8684 160.168C54.9964 160.808 54.9964 161.512 54.8684 162.28C54.7404 163.048 54.5164 164.008 54.1964 165.16C53.6204 167.016 52.7884 168.968 51.7004 171.016C52.3404 171.4 53.1404 171.848 54.1004 172.36C55.0604 172.872 55.9884 173.416 56.8844 173.992C57.8444 174.504 58.7404 175.016 59.5724 175.528C60.4044 175.976 61.0124 176.328 61.3964 176.584C62.9964 177.736 64.1164 178.888 64.7564 180.04C65.3964 181.128 65.6844 182.504 65.6204 184.168C65.5564 185.832 65.0124 187.144 63.9884 188.104C63.0284 189.064 61.7164 189.576 60.0524 189.64C58.4524 189.704 56.9804 189.352 55.6364 188.584C54.2924 187.752 52.9804 186.792 51.7004 185.704C50.8684 185 49.9084 184.136 48.8204 183.112C47.7964 182.088 46.8364 181.032 45.9404 179.944Z" fill="black"/>
<defs>
<filter id="filter0_d_305_449" x="0" y="0" width="124" height="124" filterUnits="userSpaceOnUse" color-interpolation-filters="sRGB">
<feFlood flood-opacity="0" result="BackgroundImageFix"/>
<feColorMatrix in="SourceAlpha" type="matrix" values="0 0 0 0 0 0 0 0 0 0 0 0 0 0 0 0 0 0 127 0" result="hardAlpha"/>
<feOffset dy="2"/>
<feGaussianBlur stdDeviation="1"/>
<feComposite in2="hardAlpha" operator="out"/>
<feColorMatrix type="matrix" values="0 0 0 0 0 0 0 0 0 0 0 0 0 0 0 0 0 0 0.1 0"/>
<feBlend mode="normal" in2="BackgroundImageFix" result="effect1_dropShadow_305_449"/>
<feBlend mode="normal" in="SourceGraphic" in2="effect1_dropShadow_305_449" result="shape"/>
</filter>
<filter id="filter1_d_305_449" x="132" y="0" width="124" height="124" filterUnits="userSpaceOnUse" color-interpolation-filters="sRGB">
<feFlood flood-opacity="0" result="BackgroundImageFix"/>
<feColorMatrix in="SourceAlpha" type="matrix" values="0 0 0 0 0 0 0 0 0 0 0 0 0 0 0 0 0 0 127 0" result="hardAlpha"/>
<feOffset dy="2"/>
<feGaussianBlur stdDeviation="1"/>
<feComposite in2="hardAlpha" operator="out"/>
<feColorMatrix type="matrix" values="0 0 0 0 0 0 0 0 0 0 0 0 0 0 0 0 0 0 0.1 0"/>
<feBlend mode="normal" in2="BackgroundImageFix" result="effect1_dropShadow_305_449"/>
<feBlend mode="normal" in="SourceGraphic" in2="effect1_dropShadow_305_449" result="shape"/>
</filter>
<filter id="filter2_d_305_449" x="132" y="128" width="124" height="124" filterUnits="userSpaceOnUse" color-interpolation-filters="sRGB">
<feFlood flood-opacity="0" result="BackgroundImageFix"/>
<feColorMatrix in="SourceAlpha" type="matrix" values="0 0 0 0 0 0 0 0 0 0 0 0 0 0 0 0 0 0 127 0" result="hardAlpha"/>
<feOffset dy="2"/>
<feGaussianBlur stdDeviation="1"/>
<feComposite in2="hardAlpha" operator="out"/>
<feColorMatrix type="matrix" values="0 0 0 0 0 0 0 0 0 0 0 0 0 0 0 0 0 0 0.1 0"/>
<feBlend mode="normal" in2="BackgroundImageFix" result="effect1_dropShadow_305_449"/>
<feBlend mode="normal" in="SourceGraphic" in2="effect1_dropShadow_305_449" result="shape"/>
</filter>
<filter id="filter3_d_305_449" x="0" y="128" width="124" height="124" filterUnits="userSpaceOnUse" color-interpolation-filters="sRGB">
<feFlood flood-opacity="0" result="BackgroundImageFix"/>
<feColorMatrix in="SourceAlpha" type="matrix" values="0 0 0 0 0 0 0 0 0 0 0 0 0 0 0 0 0 0 127 0" result="hardAlpha"/>
<feOffset dy="2"/>
<feGaussianBlur stdDeviation="1"/>
<feComposite in2="hardAlpha" operator="out"/>
<feColorMatrix type="matrix" values="0 0 0 0 0 0 0 0 0 0 0 0 0 0 0 0 0 0 0.1 0"/>
<feBlend mode="normal" in2="BackgroundImageFix" result="effect1_dropShadow_305_449"/>
<feBlend mode="normal" in="SourceGraphic" in2="effect1_dropShadow_305_449" result="shape"/>
</filter>
</defs>
</svg>
