<svg width="256" height="252" viewBox="0 0 256 252" fill="none" xmlns="http://www.w3.org/2000/svg">
<g filter="url(#filter0_d_305_449)">
<rect x="2" width="120" height="120" rx="10" fill="white"/>
<rect x="2.5" y="0.5" width="119" height="119" rx="9.5" stroke="#B3B3B3"/>
</g>
<g filter="url(#filter1_d_305_449)">
<rect x="134" width="120" height="120" rx="10" fill="white"/>
<rect x="134.5" y="0.5" width="119" height="119" rx="9.5" stroke="#B3B3B3"/>
</g>
<g filter="url(#filter2_d_305_449)">
<rect x="134" y="128" width="120" height="120" rx="10" fill="white"/>
<rect x="134.5" y="128.5" width="119" height="119" rx="9.5" stroke="#B3B3B3"/>
</g>
<g filter="url(#filter3_d_305_449)">
<rect x="2" y="128" width="120" height="120" rx="10" fill="white"/>
<rect x="2.5" y="128.5" width="119" height="119" rx="9.5" stroke="#B3B3B3"/>
</g>
<path d="M79.0834 44.456C80.2354 44.2 81.5794 43.976 83.1154 43.784C84.6514 43.592 85.8674 43.56 86.7634 43.688C87.5954 43.816 88.5554 44.296 89.6434 45.128C90.7314 45.96 91.4994 46.792 91.9474 47.624C92.2034 48.136 92.3634 48.68 92.4274 49.256C92.5554 49.832 92.2994 50.312 91.6594 50.696C91.0834 51.08 90.3154 51.336 89.3554 51.464C88.3954 51.592 87.3394 51.656 86.1874 51.656C85.0354 51.656 83.8514 51.624 82.6354 51.56C81.4194 51.432 80.2354 51.304 79.0834 51.176V52.136C79.0834 54.056 78.8914 56.2 78.5074 58.568C78.1234 60.872 77.6114 63.048 76.9714 65.096C76.3954 67.08 75.6914 68.776 74.8594 70.184C74.0274 71.528 73.1634 72.2 72.2674 72.2C71.5634 72.2 71.0834 70.856 70.8274 68.168C70.5714 65.416 70.4434 61.608 70.4434 56.744V26.504C70.2514 26.312 69.8354 25.992 69.1954 25.544C68.5554 25.032 67.8194 24.456 66.9874 23.816C66.2194 23.112 65.4194 22.376 64.5874 21.608C63.8194 20.84 63.1794 20.072 62.6674 19.304C62.5394 19.112 62.3474 18.536 62.0914 17.576C61.8354 16.616 61.7714 15.816 61.8994 15.176C61.9634 14.728 62.1234 14.44 62.3794 14.312C62.6994 14.184 62.9874 14.152 63.2434 14.216C65.6754 14.728 67.9154 15.592 69.9634 16.808C72.0754 17.96 74.2194 19.272 76.3954 20.744C77.5474 21.512 78.2834 22.248 78.6034 22.952C78.9234 23.656 79.0834 24.584 79.0834 25.736V44.456ZM55.2754 65.864C55.5314 65.736 55.9154 65.672 56.4274 65.672C56.9394 65.608 57.4514 65.608 57.9634 65.672C58.5394 65.736 59.0834 65.864 59.5954 66.056C60.1074 66.184 60.4914 66.376 60.7474 66.632C61.3874 67.208 62.1554 68.008 63.0514 69.032C63.9474 70.056 64.8114 71.144 65.6434 72.296C66.4754 73.448 67.1474 74.536 67.6594 75.56C68.2354 76.584 68.4594 77.384 68.3314 77.96C68.0114 79.24 67.3714 80.488 66.4114 81.704C65.5154 82.92 64.6514 83.976 63.8194 84.872C65.2274 86.152 66.6994 87.144 68.2354 87.848C69.8354 88.552 71.3394 89.096 72.7474 89.48C74.1554 89.864 75.4034 90.184 76.4914 90.44C77.5794 90.696 78.3474 90.952 78.7954 91.208C80.0754 91.976 81.1954 92.872 82.1554 93.896C83.1154 94.984 83.4994 95.848 83.3074 96.488C83.2434 96.68 83.0514 96.936 82.7314 97.256C82.4114 97.64 82.0274 97.992 81.5794 98.312C81.1954 98.696 80.7794 99.016 80.3314 99.272C79.8834 99.592 79.4994 99.752 79.1794 99.752C78.2834 99.816 77.2594 99.784 76.1074 99.656C75.0194 99.592 73.8994 99.432 72.7474 99.176C71.6594 98.984 70.6034 98.696 69.5794 98.312C68.5554 97.992 67.7234 97.64 67.0834 97.256C65.5474 96.36 64.0754 95.208 62.6674 93.8C61.3234 92.456 60.0754 91.016 58.9234 89.48C58.3474 90.184 57.6434 90.952 56.8114 91.784C55.9794 92.616 55.1154 93.416 54.2194 94.184C53.3874 94.952 52.4914 95.656 51.5314 96.296C50.6354 96.936 49.8034 97.448 49.0354 97.832C48.0754 98.216 46.6674 98.568 44.8114 98.888C42.9554 99.272 41.1954 99.464 39.5314 99.464C39.4034 99.464 39.1474 99.432 38.7634 99.368C38.3794 99.368 37.9634 99.336 37.5154 99.272C37.1314 99.208 36.7794 99.08 36.4594 98.888C36.1394 98.76 36.0114 98.536 36.0754 98.216C36.2034 97.832 36.7154 97.416 37.6114 96.968C38.5714 96.584 39.4034 96.136 40.1074 95.624C41.7074 94.6 43.4674 93.256 45.3874 91.592C47.3714 89.928 49.2594 88.232 51.0514 86.504C52.9074 84.712 54.5394 83.016 55.9474 81.416C57.3554 79.816 58.2514 78.504 58.6354 77.48C58.3794 76.968 58.0594 76.296 57.6754 75.464C57.3554 74.632 57.0034 73.8 56.6194 72.968C56.2994 72.072 55.9794 71.24 55.6594 70.472C55.4034 69.64 55.2114 68.936 55.0834 68.36C54.9554 67.784 54.8594 67.304 54.7954 66.92C54.7954 66.472 54.9554 66.12 55.2754 65.864ZM40.6834 40.52C40.0434 40.584 39.4994 40.648 39.0514 40.712C38.6674 40.712 38.2834 40.712 37.8994 40.712C37.5794 40.648 37.2274 40.552 36.8434 40.424C36.4594 40.296 36.0114 40.104 35.4994 39.848C35.2434 39.72 34.8274 39.432 34.2514 38.984C33.7394 38.536 33.1954 38.056 32.6194 37.544C32.0434 37.032 31.5314 36.52 31.0834 36.008C30.6994 35.496 30.4754 35.08 30.4114 34.76C30.3474 34.568 30.4434 34.28 30.6994 33.896C30.9554 33.448 31.2434 33.128 31.5634 32.936C31.8194 32.808 32.0434 32.744 32.2354 32.744C32.4274 32.744 32.6514 32.776 32.9074 32.84C33.7394 33.032 34.7634 33.16 35.9794 33.224C37.1954 33.288 38.5074 33.288 39.9154 33.224C42.8594 33.096 45.6114 32.84 48.1714 32.456C50.7314 32.072 52.9394 31.624 54.7954 31.112C55.6914 30.792 56.6194 30.792 57.5794 31.112C58.5394 31.432 59.6594 32.424 60.9394 34.088C61.4514 34.792 61.4834 35.656 61.0354 36.68C60.2674 38.472 59.3394 40.424 58.2514 42.536C57.2274 44.648 56.0754 46.76 54.7954 48.872C53.5794 50.984 52.2674 53.032 50.8594 55.016C49.5154 56.936 48.1394 58.6 46.7314 60.008C46.2834 60.456 45.5794 60.936 44.6194 61.448C43.6594 61.896 42.6354 62.344 41.5474 62.792C40.4594 63.24 39.3714 63.624 38.2834 63.944C37.1954 64.2 36.2674 64.36 35.4994 64.424C34.9874 64.488 34.3794 64.424 33.6754 64.232C33.0354 63.976 32.3954 63.688 31.7554 63.368C31.1794 62.984 30.6354 62.632 30.1234 62.312C29.6754 61.928 29.4194 61.608 29.3554 61.352C29.2914 61.16 29.3554 60.808 29.5474 60.296C29.8034 59.72 30.0274 59.432 30.2194 59.432C32.2674 59.304 34.1234 58.728 35.7874 57.704C37.5154 56.68 38.8274 55.752 39.7234 54.92C41.0034 53.704 42.1234 52.488 43.0834 51.272C44.0434 50.056 44.9394 48.808 45.7714 47.528C46.6034 46.184 47.4034 44.808 48.1714 43.4C48.9394 41.992 49.7714 40.52 50.6674 38.984C50.4754 39.112 50.0594 39.24 49.4194 39.368C48.8434 39.496 48.0754 39.656 47.1154 39.848C46.2194 39.976 45.1954 40.104 44.0434 40.232C42.9554 40.36 41.8354 40.456 40.6834 40.52Z" fill="black"/>
<path d="M205.897 44.264H205.993C206.569 44.136 207.369 44.072 208.393 44.072C209.481 44.072 210.569 44.072 211.657 44.072C211.529 41.192 211.401 38.472 211.273 35.912C211.209 33.352 211.113 31.24 210.985 29.576C210.921 29.256 210.857 28.936 210.793 28.616C210.793 28.232 210.505 27.784 209.929 27.272C209.417 26.824 208.905 26.376 208.393 25.928C207.945 25.48 207.401 25 206.761 24.488C206.185 23.912 205.513 23.24 204.745 22.472C204.041 21.704 203.177 20.776 202.153 19.688C201.705 19.24 201.321 18.44 201.001 17.288C200.745 16.072 200.649 15.112 200.713 14.408C200.777 13.576 201.097 13.192 201.673 13.256C202.057 13.256 202.537 13.352 203.113 13.544C203.689 13.672 204.265 13.864 204.841 14.12C205.417 14.312 205.929 14.536 206.377 14.792C206.889 14.984 207.273 15.144 207.529 15.272C209.833 16.552 211.785 17.768 213.385 18.92C214.985 20.072 216.617 21.448 218.281 23.048C218.857 23.624 219.241 24.168 219.433 24.68C219.625 25.128 219.721 25.96 219.721 27.176C219.721 30.568 219.721 33.544 219.721 36.104C219.785 38.664 219.817 41.064 219.817 43.304C219.817 45.544 219.817 47.72 219.817 49.832C219.817 51.944 219.817 54.248 219.817 56.744C219.753 61.096 219.241 64.968 218.281 68.36C217.385 71.688 215.945 74.632 213.961 77.192C213.705 77.448 213.481 77.608 213.289 77.672C213.865 78.312 214.377 78.952 214.825 79.592C215.337 80.232 215.817 80.904 216.265 81.608C216.777 82.376 217.161 83.048 217.417 83.624C217.673 84.2 217.801 84.776 217.801 85.352C217.865 85.928 217.801 86.568 217.609 87.272C217.481 87.912 217.289 88.712 217.033 89.672C216.265 91.912 215.113 93.896 213.577 95.624C212.041 97.416 210.249 98.696 208.201 99.464C207.241 99.912 206.249 100.2 205.225 100.328C204.201 100.52 203.145 100.616 202.057 100.616C199.753 100.616 197.513 100.168 195.337 99.272C193.161 98.376 191.497 97 190.345 95.144C189.577 93.864 189.001 92.552 188.617 91.208C188.233 89.928 188.009 88.648 187.945 87.368C187.881 85.384 188.233 83.528 189.001 81.8C189.833 80.072 190.985 78.568 192.457 77.288C193.929 75.944 195.657 74.888 197.641 74.12C199.689 73.288 201.897 72.808 204.265 72.68C205.609 72.616 206.889 72.904 208.105 73.544C209.321 74.12 210.473 74.888 211.561 75.848C211.433 75.016 211.369 74.024 211.369 72.872C211.433 71.656 211.497 70.472 211.561 69.32C211.625 68.104 211.689 67.016 211.753 66.056C211.817 65.096 211.849 64.392 211.849 63.944C211.849 62.152 211.849 60.168 211.849 57.992C211.849 55.816 211.817 53.544 211.753 51.176C209.897 51.368 207.945 51.272 205.897 50.888C205.897 51.464 205.865 52.008 205.801 52.52C205.801 53.032 205.801 53.544 205.801 54.056C205.737 55.528 205.577 57 205.321 58.472C205.129 59.88 204.841 61.224 204.457 62.504C204.073 63.784 203.625 64.936 203.113 65.96C202.601 66.984 202.057 67.784 201.481 68.36C201.225 68.616 200.937 68.616 200.617 68.36C200.297 68.04 199.977 67.624 199.657 67.112C199.401 66.536 199.177 65.992 198.985 65.48C198.793 64.904 198.697 64.456 198.697 64.136C198.697 62.6 198.697 61.224 198.697 60.008C198.761 58.792 198.793 57.672 198.793 56.648C198.793 55.624 198.761 54.664 198.697 53.768C198.697 52.872 198.697 51.976 198.697 51.08C198.633 49.224 198.569 47.112 198.505 44.744C198.505 42.376 198.409 39.272 198.217 35.432C198.153 34.728 198.057 34.248 197.929 33.992C197.865 33.736 197.641 33.416 197.257 33.032C196.553 32.264 195.817 31.592 195.049 31.016C194.345 30.376 193.641 29.736 192.937 29.096C192.297 28.392 191.721 27.656 191.209 26.888C190.761 26.12 190.505 25.256 190.441 24.296C190.377 23.784 190.409 23.368 190.537 23.048C190.729 22.664 190.889 22.408 191.017 22.28C192.041 22.6 193.161 23.016 194.377 23.528C195.657 24.04 196.873 24.584 198.025 25.16C199.177 25.736 200.233 26.376 201.193 27.08C202.217 27.72 203.017 28.328 203.593 28.904C204.233 29.544 204.713 30.088 205.033 30.536C205.353 30.92 205.577 31.336 205.705 31.784C205.833 32.168 205.897 32.616 205.897 33.128C205.897 33.64 205.897 34.344 205.897 35.24V44.264ZM191.209 37.352C191.273 37.928 191.113 38.664 190.729 39.56C190.345 40.456 189.833 41.384 189.193 42.344C188.617 43.304 187.977 44.232 187.273 45.128C186.569 46.024 185.961 46.76 185.449 47.336C186.345 48.296 187.305 49.352 188.329 50.504C189.417 51.592 190.409 52.52 191.305 53.288C191.753 53.8 192.297 54.376 192.937 55.016C193.641 55.592 194.281 56.232 194.857 56.936C195.433 57.576 195.881 58.216 196.201 58.856C196.585 59.496 196.681 60.072 196.489 60.584C196.169 61.288 195.497 61.672 194.473 61.736C193.513 61.8 192.457 61.704 191.305 61.448C190.217 61.192 189.161 60.84 188.137 60.392C187.113 59.944 186.441 59.56 186.121 59.24C184.841 58.088 183.721 57 182.761 55.976C181.865 54.952 180.873 53.896 179.785 52.808C179.145 53.448 178.345 54.184 177.385 55.016C176.425 55.784 175.401 56.552 174.313 57.32C173.289 58.088 172.233 58.792 171.145 59.432C170.121 60.072 169.225 60.584 168.457 60.968C168.137 61.096 167.529 61.288 166.633 61.544C165.737 61.736 164.809 61.864 163.849 61.928C162.889 61.992 161.993 61.96 161.161 61.832C160.329 61.704 159.881 61.384 159.817 60.872C159.753 60.552 159.913 60.2 160.297 59.816C160.681 59.368 161.129 58.92 161.641 58.472C162.217 58.024 162.793 57.608 163.369 57.224C163.945 56.84 164.425 56.52 164.809 56.264C166.345 55.24 168.073 53.928 169.993 52.328C171.913 50.664 173.705 48.968 175.369 47.24C177.097 45.448 178.537 43.752 179.689 42.152C180.905 40.488 181.577 39.144 181.705 38.12C181.449 37.16 181.065 36.04 180.553 34.76C180.041 33.416 179.657 32.264 179.401 31.304C179.337 31.112 179.337 30.824 179.401 30.44C179.465 29.992 179.561 29.576 179.689 29.192C179.817 28.744 179.945 28.36 180.073 28.04C180.265 27.72 180.425 27.56 180.553 27.56C181.129 27.432 181.961 27.752 183.049 28.52C184.201 29.288 185.353 30.248 186.505 31.4C187.657 32.488 188.681 33.608 189.577 34.76C190.537 35.848 191.081 36.712 191.209 37.352ZM195.625 85.64C195.369 86.6 195.465 87.56 195.913 88.52C196.361 89.416 196.969 90.216 197.737 90.92C198.569 91.624 199.497 92.168 200.521 92.552C201.609 92.936 202.601 93.064 203.497 92.936C204.777 92.808 206.025 92.296 207.241 91.4C208.457 90.504 209.353 89.352 209.929 87.944C210.761 86.152 210.729 84.456 209.833 82.856C208.937 81.256 207.497 80.2 205.513 79.688C204.553 79.496 203.529 79.496 202.441 79.688C201.417 79.88 200.425 80.232 199.465 80.744C198.569 81.256 197.769 81.928 197.065 82.76C196.361 83.592 195.881 84.552 195.625 85.64Z" fill="black"/>
<path d="M215.343 202.408C215.343 204.264 215.311 206.408 215.247 208.84C215.183 211.208 214.959 213.576 214.575 215.944C214.191 218.248 213.583 220.392 212.751 222.376C211.983 224.36 210.863 225.864 209.391 226.888C208.687 227.4 208.143 227.432 207.759 226.984C207.439 226.536 207.279 226.152 207.279 225.832C207.343 223.464 207.375 221.256 207.375 219.208C207.375 217.224 207.375 215.336 207.375 213.544C207.375 211.752 207.375 210.024 207.375 208.36C207.375 206.696 207.375 205.032 207.375 203.368V165.832C207.375 165 207.343 164.2 207.279 163.432C207.279 162.6 207.247 161.768 207.183 160.936C207.183 160.552 207.055 160.264 206.799 160.072C205.903 159.56 204.943 158.888 203.919 158.056C202.895 157.224 201.871 156.328 200.847 155.368C199.887 154.344 198.959 153.32 198.063 152.296C197.231 151.272 196.527 150.312 195.951 149.416C195.759 149.16 195.727 148.84 195.855 148.456C195.983 148.136 196.239 147.688 196.623 147.112C197.007 146.472 197.551 146.152 198.255 146.152C198.767 146.216 199.247 146.344 199.695 146.536C200.143 146.664 200.591 146.824 201.039 147.016C202.831 147.784 204.719 148.84 206.703 150.184C208.751 151.528 210.575 152.776 212.175 153.928C213.263 154.696 214.031 155.4 214.479 156.04C214.991 156.616 215.279 157.576 215.343 158.92V202.408ZM188.847 177.832C188.655 177.96 188.207 178.12 187.503 178.312C186.799 178.44 185.903 178.6 184.815 178.792C183.791 178.984 182.639 179.176 181.359 179.368C180.143 179.496 178.927 179.624 177.711 179.752C176.431 179.88 175.471 179.912 174.831 179.848C174.255 179.784 173.455 179.496 172.431 178.984C172.175 178.856 171.759 178.568 171.183 178.12C170.671 177.672 170.127 177.192 169.551 176.68C168.975 176.104 168.463 175.56 168.015 175.048C167.567 174.536 167.311 174.12 167.247 173.8C167.183 173.608 167.279 173.32 167.535 172.936C167.791 172.488 168.079 172.168 168.399 171.976C168.655 171.848 168.879 171.784 169.071 171.784C169.263 171.784 169.487 171.816 169.743 171.88C170.639 172.072 171.695 172.2 172.911 172.264C174.127 172.328 175.471 172.328 176.943 172.264C179.951 172.136 182.895 171.88 185.775 171.496C188.719 171.112 191.151 170.632 193.071 170.056C193.967 169.8 194.735 169.832 195.375 170.152C196.079 170.408 197.071 171.4 198.351 173.128C198.863 173.832 198.895 174.728 198.447 175.816C196.399 180.616 194.127 185.224 191.631 189.64C189.199 194.056 186.127 198.12 182.415 201.832C181.967 202.28 181.263 202.76 180.303 203.272C179.343 203.784 178.287 204.264 177.135 204.712C176.047 205.096 174.927 205.448 173.775 205.768C172.687 206.088 171.759 206.28 170.991 206.344C170.479 206.408 169.871 206.312 169.167 206.056C168.527 205.8 167.887 205.512 167.247 205.192C166.607 204.872 166.031 204.52 165.519 204.136C165.071 203.752 164.815 203.432 164.751 203.176C164.687 202.984 164.751 202.632 164.943 202.12C165.199 201.544 165.423 201.256 165.615 201.256C166.639 201.192 167.631 201 168.591 200.68C169.551 200.296 170.447 199.88 171.279 199.432C172.175 198.984 172.943 198.504 173.583 197.992C174.287 197.48 174.863 197.032 175.311 196.648C176.847 195.304 178.191 193.928 179.343 192.52C180.495 191.048 181.583 189.544 182.607 188.008C183.695 186.408 184.719 184.776 185.679 183.112C186.639 181.448 187.695 179.688 188.847 177.832Z" fill="black"/>
<path d="M49.8175 211.624C52.3775 211.56 55.2255 211.496 58.3615 211.432C61.5615 211.304 64.6655 211.176 67.6735 211.048C67.7375 210.472 67.8015 209.832 67.8655 209.128C67.9295 208.424 67.9615 207.752 67.9615 207.112C67.9615 206.408 67.9615 205.768 67.9615 205.192C67.9615 204.552 67.9615 204.072 67.9615 203.752C66.6175 203.752 64.6335 203.912 62.0095 204.232C59.3855 204.552 56.7295 204.872 54.0415 205.192C53.5935 205.256 53.0815 205.288 52.5055 205.288C51.9935 205.224 51.4175 204.968 50.7775 204.52C50.5215 204.328 50.1695 204.04 49.7215 203.656C49.3375 203.272 48.9535 202.888 48.5695 202.504C48.1855 202.056 47.8015 201.64 47.4175 201.256C47.0975 200.808 46.9055 200.456 46.8415 200.2C46.5215 199.24 46.4575 198.632 46.6495 198.376C46.7775 198.248 47.0015 198.184 47.3215 198.184C47.6415 198.12 48.0575 198.12 48.5695 198.184C49.4015 198.248 50.2975 198.28 51.2575 198.28C52.2175 198.28 53.0495 198.28 53.7535 198.28C55.0975 198.28 56.6015 198.216 58.2655 198.088C59.9935 197.96 61.6575 197.8 63.2575 197.608C64.9215 197.352 66.4575 197.096 67.8655 196.84C69.3375 196.584 70.4895 196.328 71.3215 196.072C71.9615 195.88 72.6655 195.976 73.4335 196.36C74.2015 196.68 74.9055 197.128 75.5455 197.704C76.2495 198.28 76.8255 198.92 77.2735 199.624C77.7215 200.328 77.9455 200.936 77.9455 201.448C77.9455 201.896 77.8175 202.568 77.5615 203.464C77.3055 204.296 76.9535 205.192 76.5055 206.152C76.1215 207.112 75.6735 208.072 75.1615 209.032C74.6495 209.992 74.1695 210.76 73.7215 211.336C73.7215 211.4 73.7855 211.432 73.9135 211.432C74.6175 212.072 75.1615 212.904 75.5455 213.928C75.8655 214.824 75.8975 215.432 75.6415 215.752C75.4495 216.072 75.1295 216.296 74.6815 216.424C74.2335 216.488 73.7215 216.584 73.1455 216.712C72.5695 216.776 71.5135 216.872 69.9775 217C68.5055 217.128 66.8735 217.256 65.0815 217.384C63.3535 217.512 61.6895 217.608 60.0895 217.672C58.5535 217.8 57.4655 217.864 56.8255 217.864C56.9535 217.928 57.1135 218.088 57.3055 218.344C57.5615 218.664 57.7215 218.856 57.7855 218.92C58.0415 219.496 58.2015 220.488 58.2655 221.896C58.3935 223.368 58.3295 224.648 58.0735 225.736C59.2255 225.736 60.7615 225.672 62.6815 225.544C64.6655 225.48 66.6815 225.384 68.7295 225.256C70.7775 225.128 72.6975 224.968 74.4895 224.776C76.3455 224.648 77.7855 224.488 78.8095 224.296C79.8335 224.104 80.7615 223.912 81.5935 223.72C82.4895 223.528 83.1295 223.496 83.5135 223.624C83.7695 223.688 83.9615 224.04 84.0895 224.68C84.2175 225.32 84.2175 225.832 84.0895 226.216C84.0255 226.536 83.7695 226.952 83.3215 227.464C82.9375 227.976 82.4575 228.456 81.8815 228.904C81.3695 229.416 80.7935 229.864 80.1535 230.248C79.5135 230.632 78.9695 230.888 78.5215 231.016C77.0495 231.464 75.2895 231.816 73.2415 232.072C71.2575 232.392 69.2095 232.648 67.0975 232.84C64.9855 233.032 62.9055 233.16 60.8575 233.224C58.8735 233.352 57.1775 233.416 55.7695 233.416C55.1295 233.416 54.4255 233.416 53.6575 233.416C52.9535 233.416 51.9615 233.352 50.6815 233.224C49.9775 233.096 49.3695 232.936 48.8575 232.744C48.3455 232.552 48.0575 232.008 47.9935 231.112C47.9295 230.28 47.9295 229.32 47.9935 228.232C48.0575 227.208 48.3135 226.408 48.7615 225.832C49.2735 225.256 49.6575 224.552 49.9135 223.72C50.1695 222.888 50.2975 221.992 50.2975 221.032C50.3615 220.136 50.3295 219.24 50.2015 218.344C50.1375 217.512 49.9775 216.808 49.7215 216.232C49.2095 215.976 48.6975 215.592 48.1855 215.08C47.7375 214.632 47.4815 214.12 47.4175 213.544C47.3535 212.904 47.3855 212.488 47.5135 212.296C47.6415 212.104 47.8335 211.976 48.0895 211.912C48.4095 211.784 48.9855 211.688 49.8175 211.624ZM46.2655 151.048C46.9695 150.856 47.8335 151.144 48.8575 151.912C49.9455 152.616 50.9695 153.48 51.9295 154.504C52.9535 155.464 53.8495 156.424 54.6175 157.384C55.4495 158.344 55.9615 159.016 56.1535 159.4C56.9855 160.872 57.3055 161.992 57.1135 162.76C56.9215 163.528 56.6335 164.264 56.2495 164.968C55.5455 166.312 54.9055 167.528 54.3295 168.616C53.8175 169.64 53.0495 170.792 52.0255 172.072C53.7535 173.8 55.5135 175.624 57.3055 177.544C59.1615 179.4 60.9535 181 62.6815 182.344C63.0015 182.6 63.3855 182.952 63.8335 183.4C64.2815 183.784 64.6655 184.2 64.9855 184.648C65.3695 185.096 65.6575 185.544 65.8495 185.992C66.0415 186.44 66.0415 186.856 65.8495 187.24C65.6575 187.88 65.1135 188.328 64.2175 188.584C63.3855 188.84 62.3935 188.936 61.2415 188.872C60.0895 188.744 58.8735 188.456 57.5935 188.008C56.3775 187.56 55.2895 186.92 54.3295 186.088C54.2015 185.96 53.8495 185.608 53.2735 185.032C52.6975 184.392 52.0255 183.656 51.2575 182.824C50.4895 181.992 49.6895 181.16 48.8575 180.328C48.0895 179.432 47.4495 178.664 46.9375 178.024C46.5535 178.536 45.9775 179.208 45.2095 180.04C44.4415 180.872 43.6415 181.736 42.8095 182.632C42.0415 183.528 41.2415 184.36 40.4095 185.128C39.6415 185.896 39.0015 186.408 38.4895 186.664C37.9135 186.984 37.2735 187.368 36.5695 187.816C35.9295 188.2 35.1295 188.552 34.1695 188.872C33.2735 189.128 32.2495 189.32 31.0975 189.448C29.9455 189.576 28.6335 189.48 27.1615 189.16C26.7775 189.096 26.5215 188.84 26.3935 188.392C26.2655 188.008 26.2975 187.72 26.4895 187.528C27.5775 186.504 28.5695 185.672 29.4655 185.032C30.3615 184.328 31.0655 183.784 31.5775 183.4C35.2255 180.264 38.3935 176.84 41.0815 173.128C43.7695 169.352 45.7215 165.96 46.9375 162.952C47.1295 162.632 47.1935 162.376 47.1295 162.184C47.0655 161.992 47.0015 161.736 46.9375 161.416C46.6815 160.136 46.2655 158.92 45.6895 157.768C45.1775 156.552 44.7615 155.432 44.4415 154.408C44.5055 153.768 44.7615 153.064 45.2095 152.296C45.6575 151.464 46.0095 151.048 46.2655 151.048ZM80.6335 169.672V169.864C81.5935 169.672 82.6175 169.512 83.7055 169.384C84.7935 169.192 85.7535 169.16 86.5855 169.288C87.4175 169.416 88.3775 169.896 89.4655 170.728C90.5535 171.56 91.3215 172.392 91.7695 173.224C92.0255 173.736 92.1855 174.28 92.2495 174.856C92.3775 175.432 92.1215 175.912 91.4815 176.296C90.3295 177 88.7295 177.32 86.6815 177.256C84.6335 177.192 82.5535 177.032 80.4415 176.776C80.2495 179.464 79.7695 182.056 79.0015 184.552C78.2335 186.984 76.8575 189.448 74.8735 191.944C74.3615 192.648 73.9135 193.064 73.5295 193.192C73.2095 193.256 72.8895 193.192 72.5695 193C72.3775 192.872 72.1215 192.552 71.8015 192.04C71.5455 191.464 71.3215 190.824 71.1295 190.12C71.0655 189.8 71.0975 189.32 71.2255 188.68C71.3535 188.04 71.5135 187.496 71.7055 187.048C71.8975 183.976 72.0255 180.904 72.0895 177.832C72.1535 174.76 72.1535 171.752 72.0895 168.808C72.0255 165.864 71.9295 163.112 71.8015 160.552C71.7375 157.928 71.6415 155.56 71.5135 153.448C71.5135 152.616 71.2575 152.04 70.7455 151.72C69.4655 150.952 68.2815 150.12 67.1935 149.224C66.1055 148.264 65.1135 147.144 64.2175 145.864C64.0895 145.672 63.8975 145.096 63.6415 144.136C63.3855 143.176 63.3215 142.376 63.4495 141.736C63.5135 141.288 63.6735 141 63.9295 140.872C64.2495 140.744 64.5375 140.712 64.7935 140.776C67.2255 141.288 69.4655 142.152 71.5135 143.368C73.6255 144.52 75.7695 145.832 77.9455 147.304C79.0975 148.072 79.8335 148.808 80.1535 149.512C80.4735 150.216 80.6335 151.144 80.6335 152.296V169.672Z" fill="black"/>
<defs>
<filter id="filter0_d_305_449" x="0" y="0" width="124" height="124" filterUnits="userSpaceOnUse" color-interpolation-filters="sRGB">
<feFlood flood-opacity="0" result="BackgroundImageFix"/>
<feColorMatrix in="SourceAlpha" type="matrix" values="0 0 0 0 0 0 0 0 0 0 0 0 0 0 0 0 0 0 127 0" result="hardAlpha"/>
<feOffset dy="2"/>
<feGaussianBlur stdDeviation="1"/>
<feComposite in2="hardAlpha" operator="out"/>
<feColorMatrix type="matrix" values="0 0 0 0 0 0 0 0 0 0 0 0 0 0 0 0 0 0 0.1 0"/>
<feBlend mode="normal" in2="BackgroundImageFix" result="effect1_dropShadow_305_449"/>
<feBlend mode="normal" in="SourceGraphic" in2="effect1_dropShadow_305_449" result="shape"/>
</filter>
<filter id="filter1_d_305_449" x="132" y="0" width="124" height="124" filterUnits="userSpaceOnUse" color-interpolation-filters="sRGB">
<feFlood flood-opacity="0" result="BackgroundImageFix"/>
<feColorMatrix in="SourceAlpha" type="matrix" values="0 0 0 0 0 0 0 0 0 0 0 0 0 0 0 0 0 0 127 0" result="hardAlpha"/>
<feOffset dy="2"/>
<feGaussianBlur stdDeviation="1"/>
<feComposite in2="hardAlpha" operator="out"/>
<feColorMatrix type="matrix" values="0 0 0 0 0 0 0 0 0 0 0 0 0 0 0 0 0 0 0.1 0"/>
<feBlend mode="normal" in2="BackgroundImageFix" result="effect1_dropShadow_305_449"/>
<feBlend mode="normal" in="SourceGraphic" in2="effect1_dropShadow_305_449" result="shape"/>
</filter>
<filter id="filter2_d_305_449" x="132" y="128" width="124" height="124" filterUnits="userSpaceOnUse" color-interpolation-filters="sRGB">
<feFlood flood-opacity="0" result="BackgroundImageFix"/>
<feColorMatrix in="SourceAlpha" type="matrix" values="0 0 0 0 0 0 0 0 0 0 0 0 0 0 0 0 0 0 127 0" result="hardAlpha"/>
<feOffset dy="2"/>
<feGaussianBlur stdDeviation="1"/>
<feComposite in2="hardAlpha" operator="out"/>
<feColorMatrix type="matrix" values="0 0 0 0 0 0 0 0 0 0 0 0 0 0 0 0 0 0 0.1 0"/>
<feBlend mode="normal" in2="BackgroundImageFix" result="effect1_dropShadow_305_449"/>
<feBlend mode="normal" in="SourceGraphic" in2="effect1_dropShadow_305_449" result="shape"/>
</filter>
<filter id="filter3_d_305_449" x="0" y="128" width="124" height="124" filterUnits="userSpaceOnUse" color-interpolation-filters="sRGB">
<feFlood flood-opacity="0" result="BackgroundImageFix"/>
<feColorMatrix in="SourceAlpha" type="matrix" values="0 0 0 0 0 0 0 0 0 0 0 0 0 0 0 0 0 0 127 0" result="hardAlpha"/>
<feOffset dy="2"/>
<feGaussianBlur stdDeviation="1"/>
<feComposite in2="hardAlpha" operator="out"/>
<feColorMatrix type="matrix" values="0 0 0 0 0 0 0 0 0 0 0 0 0 0 0 0 0 0 0.1 0"/>
<feBlend mode="normal" in2="BackgroundImageFix" result="effect1_dropShadow_305_449"/>
<feBlend mode="normal" in="SourceGraphic" in2="effect1_dropShadow_305_449" result="shape"/>
</filter>
</defs>
</svg>
