<svg width="516" height="516" viewBox="0 0 516 516" fill="none" xmlns="http://www.w3.org/2000/svg">
<g filter="url(#filter0_d_440_475)">
<rect x="2" width="247.867" height="247.867" rx="20" fill="white"/>
<rect x="2.5" y="0.5" width="246.867" height="246.867" rx="19.5" stroke="#E5E5E5"/>
</g>
<path d="M185.936 89.6941C186.817 90.4649 187.808 91.4008 188.909 92.5018C190.01 93.6029 191.001 94.759 191.882 95.9702C192.873 97.0713 193.699 98.1723 194.359 99.2734C195.02 100.374 195.35 101.31 195.35 102.081C195.35 103.402 194.91 104.669 194.029 105.88C193.258 106.981 192.157 107.972 190.726 108.853C189.294 109.623 187.698 110.284 185.936 110.835C184.175 111.275 182.358 111.55 180.486 111.66C179.055 111.77 177.458 111.826 175.696 111.826C173.935 111.826 172.173 111.826 170.411 111.826C170.411 112.596 170.411 113.312 170.411 113.973C170.411 114.633 170.356 115.239 170.246 115.789C170.026 118.652 169.475 121.57 168.594 124.543C167.714 127.516 166.613 130.268 165.291 132.801C164.08 135.333 162.649 137.591 160.997 139.572C159.345 141.444 157.639 142.766 155.877 143.536C154.336 140.343 152.739 137.26 151.087 134.287C149.546 131.314 148.335 128.066 147.454 124.543C146.573 120.909 146.078 117.386 145.968 113.973C145.857 110.449 145.912 107.091 146.133 103.898C146.573 98.6127 146.848 92.6119 146.958 85.8954C147.179 79.0688 147.289 72.4624 147.289 66.0762C147.289 63.9842 147.069 62.2225 146.628 60.7911C146.298 59.3597 145.692 57.8182 144.811 56.1666C144.371 55.2858 143.765 54.2948 142.995 53.1938C142.334 51.9826 141.728 50.9916 141.178 50.2209C140.737 49.6703 140.627 48.9546 140.848 48.0738C141.068 47.0828 141.508 46.0919 142.169 45.1009C142.719 44.3302 143.655 43.3942 144.977 42.2932C146.408 41.082 147.674 40.2562 148.775 39.8158C149.986 39.3754 151.143 39.2653 152.244 39.4855C153.345 39.5956 154.336 39.8158 155.216 40.1461C156.428 40.6966 157.859 41.4674 159.511 42.4583C161.162 43.3392 162.649 44.2201 163.97 45.1009C166.172 46.6424 167.659 48.6243 168.429 51.0467C169.31 53.3589 169.916 55.6711 170.246 57.9834C170.466 59.5249 170.631 61.4517 170.742 63.764C170.962 65.9661 171.017 68.0581 170.907 70.0401C170.686 72.5725 170.576 75.3802 170.576 78.4632C170.576 81.4361 170.576 84.5191 170.576 87.7122C171.457 87.6021 172.338 87.492 173.219 87.3819C174.21 87.1617 175.091 86.9414 175.861 86.7212C178.064 86.1707 179.99 86.2808 181.642 87.0515C183.294 87.8223 184.725 88.7031 185.936 89.6941ZM73.9578 121.24C76.9306 119.258 79.9586 116.89 83.0416 114.138C86.1245 111.385 89.0974 108.412 91.9602 105.219C94.9331 102.026 97.6307 98.833 100.053 95.6399C102.585 92.3367 104.733 89.1986 106.494 86.2257C105.173 86.2257 103.576 86.2808 101.705 86.3909C99.8328 86.501 97.961 86.6111 96.0892 86.7212C94.2174 86.7212 92.4006 86.7212 90.6389 86.7212C88.8772 86.7212 87.5009 86.6662 86.5099 86.5561C83.3168 86.3359 80.5642 85.6202 78.2519 84.409C76.0498 83.0877 73.6274 80.9957 70.9849 78.1329C69.7737 76.9217 69.2232 75.9858 69.3333 75.3252C69.4434 74.5544 69.7186 73.7286 70.1591 72.8478C70.3793 72.4074 70.8197 71.8018 71.4804 71.031C72.141 70.2603 72.8567 69.4895 73.6274 68.7188C74.3982 67.8379 75.1139 67.0121 75.7745 66.2414C76.5453 65.4706 77.1508 64.9201 77.5913 64.5898C78.8024 63.7089 79.7934 63.3786 80.5642 63.5988C81.3349 63.819 82.3259 64.2044 83.537 64.7549C84.7482 65.3055 85.8493 65.6358 86.8402 65.7459C87.8312 65.856 89.2626 65.9111 91.1344 65.9111C92.8961 65.9111 94.9881 65.856 97.4105 65.7459C99.9429 65.6358 102.475 65.5257 105.008 65.4156C107.65 65.1954 110.128 64.9752 112.44 64.7549C114.862 64.4246 116.844 64.0943 118.386 63.764C121.249 63.1033 123.616 63.3786 125.488 64.5898C127.47 65.6909 129.562 67.6728 131.764 70.5355C132.975 72.077 133.746 73.7286 134.076 75.4903C134.516 77.1419 134.627 78.6284 134.406 79.9497C134.296 80.5002 133.966 81.2159 133.415 82.0967C132.975 82.8675 132.645 83.6382 132.424 84.409C128.901 92.3367 124.717 100.099 119.872 107.697C115.138 115.184 109.632 121.845 103.356 127.681C101.044 129.883 98.3464 131.535 95.2634 132.636C92.2905 133.627 89.3727 134.122 86.5099 134.122C84.0876 134.122 81.5551 133.957 78.9126 133.627C76.3801 133.186 73.9027 132.636 71.4804 131.975C69.058 131.204 66.7458 130.379 64.5436 129.498C62.4516 128.507 60.6348 127.516 59.0934 126.525C64.1583 126.194 69.1131 124.433 73.9578 121.24ZM166.943 165.007C171.237 166.659 174.155 168.53 175.696 170.623C177.348 172.825 178.394 175.908 178.834 179.871C179.055 181.523 178.889 183.23 178.339 184.991C177.898 186.863 177.128 188.24 176.027 189.12C175.146 189.781 173.494 190.166 171.072 190.277C168.649 190.497 166.172 190.442 163.64 190.111C161.988 189.891 160.061 189.341 157.859 188.46C155.767 187.579 153.84 186.533 152.078 185.322C150.207 184 148.225 182.624 146.133 181.193C144.151 179.871 142.114 178.495 140.022 177.064C137.93 175.632 135.893 174.256 133.911 172.935C132.039 171.613 130.277 170.457 128.626 169.466C125.983 172.439 123.396 175.137 120.863 177.559C118.441 180.092 116.294 182.074 114.422 183.505C111.449 185.817 108.751 187.249 106.329 187.799C104.017 188.35 101.319 188.625 98.2363 188.625C96.5847 188.625 94.6028 188.405 92.2905 187.964C89.9783 187.524 87.5559 186.918 85.0235 186.148C82.491 185.377 79.9586 184.496 77.4261 183.505C74.8937 182.514 72.4713 181.523 70.1591 180.532C73.9027 179.651 77.9216 178.22 82.2158 176.238C86.5099 174.256 90.749 171.944 94.9331 169.301C97.4655 167.65 99.998 165.833 102.53 163.851C105.173 161.869 107.65 159.832 109.963 157.74C112.275 155.538 114.367 153.391 116.239 151.299C118.221 149.207 119.817 147.225 121.028 145.353C121.579 144.582 121.964 143.977 122.184 143.536C122.515 142.986 122.735 142.49 122.845 142.05C122.955 141.609 122.955 141.169 122.845 140.729C122.735 140.288 122.625 139.683 122.515 138.912C122.295 138.251 122.019 137.591 121.689 136.93C121.469 136.269 121.909 135.388 123.01 134.287C123.561 133.737 124.442 133.021 125.653 132.14C126.864 131.149 128.02 130.434 129.121 129.993C130.222 129.553 131.323 129.663 132.424 130.323C134.627 131.645 136.664 133.021 138.535 134.452C140.407 135.884 142.004 137.425 143.325 139.077C144.096 139.958 144.591 141.499 144.811 143.701C145.032 145.793 144.701 147.665 143.82 149.317L140.517 154.767C142.389 155.428 144.426 156.199 146.628 157.079C148.94 157.96 151.253 158.841 153.565 159.722C155.877 160.603 158.189 161.539 160.502 162.53C162.814 163.411 164.961 164.236 166.943 165.007Z" fill="black"/>
<g filter="url(#filter1_d_440_475)">
<rect x="266.133" width="247.867" height="247.867" rx="20" fill="#F3F3F3"/>
<rect x="266.633" y="0.5" width="246.867" height="246.867" rx="19.5" stroke="#E5E5E5"/>
</g>
<g filter="url(#filter2_d_440_475)">
<rect x="266.133" y="264.133" width="247.867" height="247.867" rx="20" fill="white"/>
<rect x="266.633" y="264.633" width="246.867" height="246.867" rx="19.5" stroke="#E5E5E5"/>
</g>
<path d="M426.528 452.418C425.537 451.647 424.656 450.326 423.886 448.454C423.225 446.693 422.675 444.601 422.234 442.178C421.904 439.756 421.574 437.058 421.243 434.085C421.023 431.223 420.858 428.195 420.748 425.002C420.417 418.065 420.307 410.357 420.417 401.879C420.527 393.291 420.748 384.648 421.078 375.949C421.408 367.141 421.684 358.552 421.904 350.184C422.124 341.706 422.124 334.164 421.904 327.557C421.904 325.906 421.794 324.639 421.574 323.759C421.353 322.768 421.023 321.942 420.583 321.281C420.252 320.51 419.812 319.795 419.261 319.134C418.821 318.363 418.325 317.482 417.775 316.491C417.004 315.17 416.454 314.234 416.123 313.684C415.793 313.023 415.793 312.197 416.123 311.206C416.454 310.105 417.114 309.114 418.105 308.233C419.206 307.353 420.417 306.582 421.739 305.921C423.06 305.261 424.436 304.765 425.868 304.435C427.409 303.994 428.841 303.719 430.162 303.609C432.584 303.389 434.456 303.939 435.777 305.261C437.209 306.692 438.585 308.178 439.906 309.72C441.338 311.151 442.439 312.583 443.209 314.014C443.98 315.445 444.476 316.822 444.696 318.143C445.026 319.354 445.191 320.786 445.191 322.437C445.301 327.282 445.357 332.677 445.357 338.623C445.357 344.459 445.357 350.514 445.357 356.791C445.357 362.956 445.301 369.178 445.191 375.454C445.191 381.62 445.136 387.4 445.026 392.795C445.026 398.081 444.971 402.815 444.861 406.999C444.751 411.183 444.641 414.376 444.531 416.578C444.421 418.12 444.035 420.322 443.375 423.185C442.824 425.938 441.668 428.58 439.906 431.113C436.713 435.297 433.74 439.15 430.988 442.674C428.235 446.307 426.749 449.555 426.528 452.418ZM319.009 416.083C323.744 414.872 328.258 413.165 332.552 410.963C336.957 408.761 340.92 406.063 344.444 402.87C351.711 396.264 358.097 389.052 363.602 381.234C369.108 373.417 373.457 365.214 376.65 356.625C374.888 356.735 373.016 356.846 371.035 356.956C369.053 357.066 367.071 357.176 365.089 357.286C363.107 357.286 361.18 357.286 359.308 357.286C357.546 357.286 356.005 357.286 354.684 357.286C353.142 357.176 351.711 357.011 350.39 356.791C349.178 356.57 347.857 356.13 346.426 355.469C345.325 354.919 344.169 354.203 342.957 353.322C341.746 352.331 340.59 351.34 339.489 350.349C338.388 349.248 337.452 348.202 336.681 347.211C335.911 346.11 335.36 345.174 335.03 344.404C334.589 343.413 334.754 342.422 335.525 341.431C336.406 340.33 337.782 339.118 339.654 337.797C341.526 336.366 342.902 335.54 343.783 335.32C344.664 335.1 345.49 335.155 346.261 335.485C347.141 335.705 348.077 336.035 349.068 336.476C349.949 336.806 350.94 337.026 352.041 337.136C353.252 337.247 354.298 337.302 355.179 337.302C356.831 337.302 358.978 337.247 361.62 337.136C364.373 336.916 367.126 336.751 369.878 336.641C372.741 336.421 375.384 336.256 377.806 336.146C380.339 335.925 382.265 335.76 383.587 335.65C385.128 335.43 386.67 335.1 388.211 334.659C389.753 334.109 391.294 333.943 392.836 334.164C394.377 334.384 395.809 334.934 397.13 335.815C398.561 336.586 399.772 337.412 400.763 338.293C403.406 340.605 404.837 342.972 405.058 345.394C405.168 347.046 404.892 348.367 404.232 349.358C403.571 350.349 403.076 351.45 402.745 352.662C401.094 358.277 399.112 363.947 396.8 369.673C394.487 375.288 391.845 380.794 388.872 386.189C386.009 391.474 382.816 396.539 379.293 401.384C375.879 406.228 372.191 410.633 368.227 414.597C364.924 417.9 361.62 420.212 358.317 421.533C355.014 422.744 351.656 423.57 348.242 424.011C346.371 424.231 344.719 424.286 343.288 424.176C341.856 423.956 340.535 423.625 339.324 423.185C338.113 422.744 336.957 422.194 335.855 421.533C334.754 420.873 333.543 420.102 332.222 419.221C330.901 418.45 329.634 417.9 328.423 417.569C327.212 417.129 326.056 416.854 324.955 416.744C323.854 416.633 322.808 416.578 321.817 416.578C320.826 416.468 319.89 416.303 319.009 416.083Z" fill="black"/>
<g filter="url(#filter3_d_440_475)">
<rect x="2" y="264.133" width="247.867" height="247.867" rx="20" fill="#F3F3F3"/>
<rect x="2.5" y="264.633" width="246.867" height="246.867" rx="19.5" stroke="#E5E5E5"/>
</g>
<path d="M179.637 371.49C178.095 371.6 176.334 371.655 174.352 371.655C172.37 371.655 170.443 371.655 168.571 371.655C167.8 374.518 166.809 377.325 165.598 380.078C164.387 382.721 163.011 385.088 161.469 387.18C162.68 387.73 163.727 388.446 164.607 389.327C165.598 390.208 166.534 391.144 167.415 392.135C167.966 392.906 168.571 393.731 169.232 394.612C169.892 395.493 170.223 396.319 170.223 397.09C170.223 398.301 169.507 400.062 168.076 402.375C167.856 402.925 167.47 404.026 166.92 405.678C166.369 407.329 165.763 409.091 165.103 410.963C164.552 412.835 164.002 414.597 163.451 416.248C163.011 417.79 162.736 418.726 162.625 419.056C161.965 421.148 160.754 422.469 158.992 423.02C157.34 423.46 155.193 423.735 152.551 423.845C151.45 423.845 149.247 423.845 145.944 423.845C142.641 423.845 138.897 423.845 134.713 423.845C130.529 423.845 126.125 423.845 121.501 423.845C116.876 423.735 112.692 423.68 108.948 423.68C109.829 425.112 110.765 426.433 111.756 427.644C113.408 429.626 115.114 430.782 116.876 431.113C118.748 431.553 120.785 431.883 122.987 432.103C123.978 432.214 125.74 432.324 128.272 432.434C130.915 432.544 133.722 432.599 136.695 432.599C139.668 432.709 142.586 432.764 145.449 432.764C148.312 432.764 150.569 432.764 152.22 432.764C153.982 432.764 155.964 432.599 158.166 432.269C160.368 431.938 162.35 431.553 164.112 431.113C165.874 430.672 167.36 430.507 168.571 430.617C169.782 430.727 170.883 431.057 171.874 431.608C172.975 432.159 174.021 432.874 175.012 433.755C176.114 434.746 177.325 435.902 178.646 437.223C180.518 439.095 181.068 440.637 180.298 441.848C179.527 443.169 178.316 444.546 176.664 445.977C174.792 447.629 172.975 448.895 171.214 449.776C169.562 450.656 167.856 451.317 166.094 451.758C164.332 452.198 162.405 452.473 160.313 452.583C158.331 452.693 156.074 452.748 153.542 452.748C152.33 452.748 149.963 452.693 146.44 452.583C142.916 452.583 139.118 452.528 135.044 452.418C131.08 452.418 127.281 452.363 123.648 452.253C120.014 452.143 117.482 452.088 116.05 452.088C113.848 451.978 111.921 451.813 110.27 451.592C108.618 451.482 107.132 451.152 105.81 450.601C104.489 450.161 103.223 449.445 102.012 448.454C100.801 447.463 99.5343 446.087 98.213 444.325C95.6806 441.132 93.5886 438.049 91.937 435.076C90.2854 432.103 88.6338 429.461 86.9821 427.149C86.1013 425.938 84.8901 425.002 83.3486 424.341C81.9172 423.68 80.4308 422.855 78.8893 421.864C77.568 420.983 76.6872 420.047 76.2467 419.056C75.6962 417.845 75.4209 416.633 75.4209 415.422C75.5311 414.211 76.0265 413.165 76.9074 412.284C77.7882 411.403 79.0545 410.633 80.7061 409.972C82.4678 409.201 84.2295 408.541 85.9912 407.99C88.0832 407.329 89.8449 406.834 91.2763 406.504C92.7077 406.173 93.9189 406.008 94.9098 406.008C95.9008 406.008 96.7816 406.283 97.5524 406.834C98.3231 407.274 99.0388 408.045 99.6995 409.146L100.195 409.972L143.137 409.477L143.467 402.21C139.943 402.099 136.035 401.989 131.741 401.879C127.446 401.769 123.152 401.714 118.858 401.714C114.564 401.714 110.38 401.714 106.306 401.714C102.342 401.714 98.8737 401.714 95.9008 401.714C94.7997 401.714 93.8638 401.714 93.0931 401.714C92.3223 401.604 91.5516 401.439 90.7808 401.219C90.0101 400.998 89.1843 400.668 88.3034 400.228C87.5327 399.787 86.5417 399.127 85.3305 398.246C84.1194 397.365 83.0734 396.484 82.1925 395.603C81.3117 394.722 80.8162 393.786 80.7061 392.795C80.596 391.804 80.651 390.758 80.8712 389.657C81.2015 388.556 81.9172 387.4 83.0183 386.189C83.7891 385.308 84.5047 384.703 85.1654 384.372C85.826 384.042 86.4867 383.877 87.1473 383.877C87.9181 383.877 88.7439 384.042 89.6247 384.372C90.5056 384.592 91.6617 384.868 93.0931 385.198C96.1761 385.859 99.5894 386.354 103.333 386.684C108.178 387.125 113.188 387.29 118.363 387.18C123.538 386.96 127.997 386.795 131.741 386.684C134.163 386.574 137.301 386.409 141.155 386.189C145.118 385.859 148.642 385.583 151.725 385.363C150.734 383.491 149.798 381.62 148.917 379.748C148.146 377.876 147.486 375.839 146.935 373.637C146.054 370.003 145.559 366.48 145.449 363.067C145.339 359.543 145.394 356.185 145.614 352.992C145.834 350.349 145.999 348.037 146.109 346.055C146.33 343.963 146.44 342.036 146.44 340.275C146.55 338.403 146.605 336.586 146.605 334.824C146.715 333.063 146.77 331.191 146.77 329.209C146.77 327.117 146.715 325.41 146.605 324.089C146.605 322.657 146.33 321.061 145.779 319.299C145.559 318.418 144.843 317.427 143.632 316.326C142.421 315.115 141.54 314.124 140.989 313.353C140.549 312.803 140.439 312.087 140.659 311.206C140.879 310.215 141.32 309.224 141.98 308.233C142.531 307.463 143.467 306.527 144.788 305.426C146.22 304.325 147.486 303.499 148.587 302.948C150.679 301.957 152.551 301.792 154.202 302.453C155.413 303.003 156.955 303.884 158.827 305.095C160.699 306.307 162.24 307.463 163.451 308.564C165.433 310.215 166.865 312.142 167.745 314.344C168.736 316.547 169.397 318.804 169.727 321.116C169.948 322.657 170.113 324.584 170.223 326.897C170.443 329.099 170.498 331.191 170.388 333.173C170.278 335.705 170.223 338.293 170.223 340.935C170.223 343.578 170.223 346.22 170.223 348.863L175.012 347.872C177.215 347.321 179.141 347.431 180.793 348.202C182.445 348.973 183.876 349.854 185.087 350.845C185.968 351.616 186.959 352.551 188.06 353.652C189.161 354.643 190.152 355.689 191.033 356.791C192.024 357.892 192.795 358.993 193.345 360.094C194.006 361.085 194.336 361.966 194.336 362.736C194.336 365.379 192.795 367.471 189.712 369.012C186.739 370.554 183.381 371.38 179.637 371.49ZM105.315 363.397C102.452 367.03 99.8096 370.003 97.3872 372.316C93.5335 375.839 89.6247 378.151 85.6609 379.252C81.697 380.243 77.4029 380.629 72.7784 380.408C70.2459 380.298 67.4382 379.638 64.3552 378.426C61.2722 377.215 58.4095 375.343 55.7669 372.811C58.2994 372.591 60.7217 371.93 63.0339 370.829C65.3462 369.728 67.4382 368.517 69.31 367.196C71.6223 365.544 74.0446 363.617 76.5771 361.415C79.2196 359.103 81.697 356.68 84.0093 354.148C86.4316 351.505 88.5787 348.863 90.4505 346.22C92.4324 343.468 93.9189 340.935 94.9098 338.623C95.7907 336.531 96.2311 334.769 96.2311 333.338C96.3412 331.796 95.9008 330.31 94.9098 328.878C93.8088 327.337 93.1481 326.236 92.9279 325.575C92.8178 324.915 93.038 324.199 93.5885 323.428C94.2492 322.547 95.1851 321.501 96.3963 320.29C97.6074 318.969 98.6535 318.033 99.5343 317.482C100.745 316.602 101.736 316.161 102.507 316.161C103.278 316.161 104.544 316.436 106.306 316.987C108.068 317.537 109.774 318.363 111.426 319.464C113.188 320.455 115.004 321.777 116.876 323.428C117.977 324.419 118.858 325.41 119.519 326.401C120.179 327.282 120.565 328.273 120.675 329.374C120.895 330.475 120.895 331.686 120.675 333.007C120.455 334.329 120.069 335.98 119.519 337.962C118.528 341.155 117.096 344.514 115.225 348.037C116.326 348.698 117.702 349.468 119.354 350.349C121.005 351.23 122.602 352.166 124.143 353.157C125.795 354.038 127.336 354.919 128.768 355.8C130.199 356.57 131.245 357.176 131.906 357.616C134.658 359.598 136.585 361.58 137.686 363.562C138.787 365.434 139.283 367.801 139.173 370.664C139.063 373.527 138.127 375.784 136.365 377.436C134.713 379.087 132.456 379.968 129.593 380.078C126.841 380.188 124.308 379.583 121.996 378.261C119.684 376.83 117.427 375.178 115.225 373.307C113.793 372.095 112.142 370.609 110.27 368.847C108.508 367.085 106.856 365.269 105.315 363.397Z" fill="black"/>
<path d="M445.215 59.4698C445.435 62.5528 445.655 66.1863 445.875 70.3704C446.095 74.4443 446.261 78.7935 446.371 83.418C446.481 87.9324 446.481 92.6119 446.371 97.4566C446.261 102.191 446.04 106.816 445.71 111.33C445.16 117.166 443.948 122.561 442.077 127.516C440.315 132.471 437.562 137.315 433.819 142.05C436.131 144.582 437.948 147.445 439.269 150.638C440.59 153.831 441.251 157.245 441.251 160.878C441.251 165.503 440.205 169.577 438.113 173.1C436.021 176.733 433.213 179.761 429.69 182.184C426.276 184.606 422.257 186.423 417.633 187.634C413.119 188.955 408.329 189.616 403.264 189.616C397.979 189.616 392.639 189.065 387.243 187.964C381.958 186.863 377.004 185.212 372.379 183.01C367.865 180.807 364.011 178.055 360.818 174.752C357.735 171.448 355.808 167.595 355.037 163.19C354.707 161.649 354.597 160.217 354.707 158.896C354.817 157.575 354.982 156.474 355.202 155.593C355.533 154.492 355.918 153.556 356.359 152.785C358.01 149.482 360.377 146.564 363.46 144.032C366.654 141.389 370.177 139.187 374.031 137.425C377.995 135.664 382.124 134.342 386.418 133.462C390.822 132.471 395.006 131.865 398.97 131.645C398.089 129.773 397.263 127.791 396.492 125.699C395.832 123.607 395.446 121.515 395.336 119.423C395.226 116.45 395.171 112.927 395.171 108.853C395.171 104.669 395.226 100.374 395.336 95.9702C395.446 91.4558 395.501 86.9965 395.501 82.5922C395.612 78.188 395.667 74.1691 395.667 70.5355C395.667 69.2143 395.612 68.1683 395.501 67.3975C395.501 66.5166 395.336 65.7459 395.006 65.0853C394.786 64.4246 394.455 63.819 394.015 63.2685C393.575 62.6079 393.024 61.8371 392.363 60.9563C391.042 59.3047 390.437 57.8182 390.547 56.4969C390.767 55.0656 391.648 53.5791 393.189 52.0376C393.409 51.8174 394.015 51.2669 395.006 50.386C396.107 49.3951 396.988 48.7895 397.649 48.5693C398.529 48.2389 399.52 48.1839 400.621 48.4041C401.722 48.5142 403.044 49.0097 404.585 49.8905C406.127 50.7714 407.558 51.9275 408.879 53.3589C410.201 54.6802 411.302 55.7812 412.183 56.6621C414.054 58.8642 415.156 61.2315 415.486 63.764C415.926 66.1863 416.202 68.8289 416.312 71.6917C416.312 73.3433 416.312 75.6005 416.312 78.4632C416.422 81.326 416.532 84.409 416.642 87.7122C417.963 87.492 419.285 87.3268 420.606 87.2167C421.927 86.9965 423.193 86.8864 424.404 86.8864C424.404 82.2619 424.349 78.0779 424.239 74.3342C424.239 70.4805 424.239 66.7369 424.239 63.1034C424.239 61.5619 424.129 60.2406 423.909 59.1395C423.689 58.0384 423.303 57.0475 422.753 56.1666C422.312 55.1757 421.707 54.1847 420.936 53.1938C420.165 52.2028 419.229 50.9916 418.128 49.5602C417.578 48.7895 417.248 47.9086 417.137 46.9177C417.027 45.8166 417.303 44.8256 417.963 43.9448C418.294 43.5044 418.954 42.8988 419.945 42.128C420.936 41.3573 421.707 40.8067 422.257 40.4764C423.579 39.7057 424.68 39.2652 425.561 39.1551C426.552 39.045 427.818 39.1551 429.359 39.4855C431.121 39.8158 432.938 40.7517 434.81 42.2932C436.681 43.7246 438.113 44.9908 439.104 46.0919C440.865 47.9637 442.242 50.0557 443.233 52.3679C444.334 54.5701 444.994 56.9374 445.215 59.4698ZM356.854 122.396C355.202 124.268 353.551 125.754 351.899 126.855C350.358 127.846 348.706 128.617 346.944 129.167C345.293 129.608 343.476 129.883 341.494 129.993C339.512 130.103 337.365 130.103 335.053 129.993C332.3 129.883 329.437 129.333 326.465 128.342C323.602 127.24 320.849 125.644 318.207 123.552C320.739 123.332 323.106 122.616 325.308 121.405C327.621 120.194 329.658 118.707 331.419 116.946C333.511 114.853 335.658 112.376 337.861 109.513C340.173 106.651 342.265 103.733 344.137 100.76C346.119 97.6768 347.825 94.5939 349.257 91.5109C350.798 88.4279 351.954 85.5651 352.725 82.9225C353.386 80.6103 353.771 78.7935 353.881 77.4723C353.991 76.0409 353.496 74.7196 352.395 73.5084C350.853 71.6366 350.413 69.93 351.073 68.3885C351.404 67.5076 352.064 66.3515 353.055 64.9201C354.156 63.3786 355.202 62.1674 356.193 61.2866C357.405 60.2956 358.506 59.8552 359.497 59.9653C360.598 59.9653 362.029 60.2406 363.791 60.7911C365.552 61.3416 367.369 62.1124 369.241 63.1034C371.113 64.0943 372.819 65.3605 374.361 66.902C376.563 69.1042 377.609 71.5816 377.499 74.3342C377.389 76.9768 376.893 80.2249 376.013 84.0787C375.242 87.492 373.976 91.1805 372.214 95.1444C373.535 96.0252 374.912 97.0162 376.343 98.1173C377.774 99.2183 379.151 100.319 380.472 101.42C381.903 102.411 383.17 103.402 384.271 104.393C385.482 105.274 386.363 105.99 386.913 106.54C389.446 109.073 390.987 111.385 391.538 113.477C392.088 115.569 392.143 117.661 391.703 119.753C391.152 122.286 389.831 124.323 387.739 125.864C385.757 127.406 383.335 128.066 380.472 127.846C378.05 127.626 375.792 126.8 373.7 125.369C371.608 123.937 369.626 122.121 367.755 119.918C366.984 119.038 366.213 118.047 365.442 116.946C364.782 115.734 364.011 114.523 363.13 113.312C360.708 117.276 358.616 120.304 356.854 122.396ZM412.513 125.038C411.962 125.919 411.412 126.745 410.861 127.516C410.311 128.286 409.76 129.112 409.21 129.993C412.403 130.213 415.486 130.819 418.459 131.81C421.432 132.801 424.184 134.177 426.717 135.939L425.395 129.002C424.845 125.479 424.46 122.01 424.239 118.597C424.129 115.074 424.129 111.605 424.239 108.192L416.807 107.697V111C416.587 115.844 415.156 120.524 412.513 125.038ZM399.3 168.145C401.612 168.145 403.815 168.035 405.907 167.815C408.109 167.595 410.036 167.154 411.687 166.494C413.339 165.833 414.66 165.007 415.651 164.016C416.642 162.915 417.137 161.594 417.137 160.052C417.137 157.189 416.091 154.877 413.999 153.116C412.017 151.354 409.87 150.198 407.558 149.647C406.347 149.317 405.301 148.987 404.42 148.656C403.539 148.326 402.658 147.775 401.778 147.005C399.906 147.005 397.869 147.335 395.667 147.996C393.575 148.546 391.483 149.317 389.391 150.308C387.409 151.299 385.427 152.455 383.445 153.776C381.573 154.987 379.976 156.309 378.655 157.74C379.976 161.043 382.619 163.576 386.583 165.337C390.547 167.099 394.786 168.035 399.3 168.145Z" fill="black"/>
<defs>
<filter id="filter0_d_440_475" x="0" y="0" width="251.867" height="251.867" filterUnits="userSpaceOnUse" color-interpolation-filters="sRGB">
<feFlood flood-opacity="0" result="BackgroundImageFix"/>
<feColorMatrix in="SourceAlpha" type="matrix" values="0 0 0 0 0 0 0 0 0 0 0 0 0 0 0 0 0 0 127 0" result="hardAlpha"/>
<feOffset dy="2"/>
<feGaussianBlur stdDeviation="1"/>
<feComposite in2="hardAlpha" operator="out"/>
<feColorMatrix type="matrix" values="0 0 0 0 0 0 0 0 0 0 0 0 0 0 0 0 0 0 0.1 0"/>
<feBlend mode="normal" in2="BackgroundImageFix" result="effect1_dropShadow_440_475"/>
<feBlend mode="normal" in="SourceGraphic" in2="effect1_dropShadow_440_475" result="shape"/>
</filter>
<filter id="filter1_d_440_475" x="264.133" y="0" width="251.867" height="251.867" filterUnits="userSpaceOnUse" color-interpolation-filters="sRGB">
<feFlood flood-opacity="0" result="BackgroundImageFix"/>
<feColorMatrix in="SourceAlpha" type="matrix" values="0 0 0 0 0 0 0 0 0 0 0 0 0 0 0 0 0 0 127 0" result="hardAlpha"/>
<feOffset dy="2"/>
<feGaussianBlur stdDeviation="1"/>
<feComposite in2="hardAlpha" operator="out"/>
<feColorMatrix type="matrix" values="0 0 0 0 0 0 0 0 0 0 0 0 0 0 0 0 0 0 0.1 0"/>
<feBlend mode="normal" in2="BackgroundImageFix" result="effect1_dropShadow_440_475"/>
<feBlend mode="normal" in="SourceGraphic" in2="effect1_dropShadow_440_475" result="shape"/>
</filter>
<filter id="filter2_d_440_475" x="264.133" y="264.133" width="251.867" height="251.867" filterUnits="userSpaceOnUse" color-interpolation-filters="sRGB">
<feFlood flood-opacity="0" result="BackgroundImageFix"/>
<feColorMatrix in="SourceAlpha" type="matrix" values="0 0 0 0 0 0 0 0 0 0 0 0 0 0 0 0 0 0 127 0" result="hardAlpha"/>
<feOffset dy="2"/>
<feGaussianBlur stdDeviation="1"/>
<feComposite in2="hardAlpha" operator="out"/>
<feColorMatrix type="matrix" values="0 0 0 0 0 0 0 0 0 0 0 0 0 0 0 0 0 0 0.1 0"/>
<feBlend mode="normal" in2="BackgroundImageFix" result="effect1_dropShadow_440_475"/>
<feBlend mode="normal" in="SourceGraphic" in2="effect1_dropShadow_440_475" result="shape"/>
</filter>
<filter id="filter3_d_440_475" x="0" y="264.133" width="251.867" height="251.867" filterUnits="userSpaceOnUse" color-interpolation-filters="sRGB">
<feFlood flood-opacity="0" result="BackgroundImageFix"/>
<feColorMatrix in="SourceAlpha" type="matrix" values="0 0 0 0 0 0 0 0 0 0 0 0 0 0 0 0 0 0 127 0" result="hardAlpha"/>
<feOffset dy="2"/>
<feGaussianBlur stdDeviation="1"/>
<feComposite in2="hardAlpha" operator="out"/>
<feColorMatrix type="matrix" values="0 0 0 0 0 0 0 0 0 0 0 0 0 0 0 0 0 0 0.1 0"/>
<feBlend mode="normal" in2="BackgroundImageFix" result="effect1_dropShadow_440_475"/>
<feBlend mode="normal" in="SourceGraphic" in2="effect1_dropShadow_440_475" result="shape"/>
</filter>
</defs>
</svg>
