<svg width="1044" height="252" viewBox="0 0 1044 252" fill="none" xmlns="http://www.w3.org/2000/svg">
<g filter="url(#filter0_d_446_492)">
<rect x="2" width="247.867" height="247.867" rx="20" fill="white"/>
<rect x="2.5" y="0.5" width="246.867" height="246.867" rx="19.5" stroke="#E5E5E5"/>
</g>
<path d="M185.936 89.6941C186.817 90.4649 187.808 91.4008 188.909 92.5018C190.01 93.6029 191.001 94.759 191.882 95.9702C192.873 97.0713 193.699 98.1723 194.359 99.2734C195.02 100.374 195.35 101.31 195.35 102.081C195.35 103.402 194.91 104.669 194.029 105.88C193.258 106.981 192.157 107.972 190.726 108.853C189.295 109.623 187.698 110.284 185.936 110.835C184.175 111.275 182.358 111.55 180.486 111.66C179.055 111.77 177.458 111.826 175.696 111.826C173.935 111.826 172.173 111.826 170.411 111.826C170.411 112.596 170.411 113.312 170.411 113.973C170.411 114.633 170.356 115.239 170.246 115.789C170.026 118.652 169.475 121.57 168.594 124.543C167.714 127.516 166.613 130.268 165.291 132.801C164.08 135.333 162.649 137.591 160.997 139.572C159.346 141.444 157.639 142.766 155.877 143.536C154.336 140.343 152.739 137.26 151.088 134.287C149.546 131.314 148.335 128.066 147.454 124.543C146.573 120.909 146.078 117.386 145.968 113.973C145.857 110.449 145.912 107.091 146.133 103.898C146.573 98.6127 146.848 92.6119 146.959 85.8954C147.179 79.0688 147.289 72.4624 147.289 66.0762C147.289 63.9842 147.069 62.2225 146.628 60.7911C146.298 59.3597 145.692 57.8182 144.811 56.1666C144.371 55.2858 143.765 54.2948 142.995 53.1938C142.334 51.9826 141.728 50.9916 141.178 50.2209C140.737 49.6703 140.627 48.9546 140.848 48.0738C141.068 47.0828 141.508 46.0919 142.169 45.1009C142.719 44.3302 143.655 43.3942 144.977 42.2932C146.408 41.082 147.674 40.2562 148.775 39.8158C149.986 39.3754 151.143 39.2653 152.244 39.4855C153.345 39.5956 154.336 39.8158 155.217 40.1461C156.428 40.6966 157.859 41.4674 159.511 42.4583C161.162 43.3392 162.649 44.2201 163.97 45.1009C166.172 46.6424 167.659 48.6243 168.429 51.0467C169.31 53.3589 169.916 55.6711 170.246 57.9834C170.466 59.5249 170.631 61.4517 170.742 63.764C170.962 65.9661 171.017 68.0581 170.907 70.0401C170.686 72.5725 170.576 75.3802 170.576 78.4632C170.576 81.4361 170.576 84.5191 170.576 87.7122C171.457 87.6021 172.338 87.492 173.219 87.3819C174.21 87.1617 175.091 86.9414 175.862 86.7212C178.064 86.1707 179.991 86.2808 181.642 87.0515C183.294 87.8223 184.725 88.7031 185.936 89.6941ZM73.9578 121.24C76.9307 119.258 79.9586 116.89 83.0416 114.138C86.1246 111.385 89.0975 108.412 91.9602 105.219C94.9331 102.026 97.6307 98.833 100.053 95.6399C102.586 92.3367 104.733 89.1986 106.494 86.2257C105.173 86.2257 103.576 86.2808 101.705 86.3909C99.8329 86.501 97.961 86.6111 96.0892 86.7212C94.2174 86.7212 92.4007 86.7212 90.6389 86.7212C88.8772 86.7212 87.5009 86.6662 86.5099 86.5561C83.3169 86.3359 80.5642 85.6202 78.2519 84.409C76.0498 83.0877 73.6275 80.9957 70.9849 78.1329C69.7737 76.9217 69.2232 75.9858 69.3333 75.3252C69.4434 74.5544 69.7187 73.7286 70.1591 72.8478C70.3793 72.4074 70.8197 71.8018 71.4804 71.031C72.141 70.2603 72.8567 69.4895 73.6275 68.7188C74.3982 67.8379 75.1139 67.0121 75.7745 66.2414C76.5453 65.4706 77.1509 64.9201 77.5913 64.5898C78.8025 63.7089 79.7934 63.3786 80.5642 63.5988C81.3349 63.819 82.3259 64.2044 83.5371 64.7549C84.7482 65.3055 85.8493 65.6358 86.8403 65.7459C87.8312 65.856 89.2626 65.9111 91.1344 65.9111C92.8961 65.9111 94.9882 65.856 97.4105 65.7459C99.943 65.6358 102.475 65.5257 105.008 65.4156C107.65 65.1954 110.128 64.9752 112.44 64.7549C114.862 64.4246 116.844 64.0943 118.386 63.764C121.249 63.1033 123.616 63.3786 125.488 64.5898C127.47 65.6909 129.562 67.6728 131.764 70.5355C132.975 72.077 133.746 73.7286 134.076 75.4903C134.516 77.1419 134.627 78.6284 134.406 79.9497C134.296 80.5002 133.966 81.2159 133.415 82.0967C132.975 82.8675 132.645 83.6382 132.424 84.409C128.901 92.3367 124.717 100.099 119.872 107.697C115.138 115.184 109.632 121.845 103.356 127.681C101.044 129.883 98.3464 131.535 95.2634 132.636C92.2905 133.627 89.3727 134.122 86.5099 134.122C84.0876 134.122 81.5551 133.957 78.9126 133.627C76.3801 133.186 73.9027 132.636 71.4804 131.975C69.058 131.204 66.7458 130.379 64.5437 129.498C62.4516 128.507 60.6349 127.516 59.0934 126.525C64.1583 126.194 69.1131 124.433 73.9578 121.24ZM166.943 165.007C171.237 166.659 174.155 168.53 175.696 170.623C177.348 172.825 178.394 175.908 178.834 179.871C179.055 181.523 178.889 183.23 178.339 184.991C177.898 186.863 177.128 188.24 176.027 189.12C175.146 189.781 173.494 190.166 171.072 190.277C168.65 190.497 166.172 190.442 163.64 190.111C161.988 189.891 160.061 189.341 157.859 188.46C155.767 187.579 153.84 186.533 152.078 185.322C150.207 184 148.225 182.624 146.133 181.193C144.151 179.871 142.114 178.495 140.022 177.064C137.93 175.632 135.893 174.256 133.911 172.935C132.039 171.613 130.277 170.457 128.626 169.466C125.983 172.439 123.396 175.137 120.863 177.559C118.441 180.092 116.294 182.074 114.422 183.505C111.449 185.817 108.751 187.249 106.329 187.799C104.017 188.35 101.319 188.625 98.2363 188.625C96.5847 188.625 94.6028 188.405 92.2905 187.964C89.9783 187.524 87.556 186.918 85.0235 186.148C82.4911 185.377 79.9586 184.496 77.4261 183.505C74.8937 182.514 72.4713 181.523 70.1591 180.532C73.9027 179.651 77.9216 178.22 82.2158 176.238C86.5099 174.256 90.7491 171.944 94.9331 169.301C97.4656 167.65 99.998 165.833 102.53 163.851C105.173 161.869 107.65 159.832 109.963 157.74C112.275 155.538 114.367 153.391 116.239 151.299C118.221 149.207 119.817 147.225 121.028 145.353C121.579 144.582 121.964 143.977 122.185 143.536C122.515 142.986 122.735 142.49 122.845 142.05C122.955 141.609 122.955 141.169 122.845 140.729C122.735 140.288 122.625 139.683 122.515 138.912C122.295 138.251 122.019 137.591 121.689 136.93C121.469 136.269 121.909 135.388 123.01 134.287C123.561 133.737 124.442 133.021 125.653 132.14C126.864 131.149 128.02 130.434 129.121 129.993C130.222 129.553 131.323 129.663 132.424 130.323C134.627 131.645 136.664 133.021 138.535 134.452C140.407 135.884 142.004 137.425 143.325 139.077C144.096 139.958 144.591 141.499 144.811 143.701C145.032 145.793 144.701 147.665 143.82 149.317L140.517 154.767C142.389 155.428 144.426 156.199 146.628 157.079C148.94 157.96 151.253 158.841 153.565 159.722C155.877 160.603 158.189 161.539 160.502 162.53C162.814 163.411 164.961 164.236 166.943 165.007Z" fill="black"/>
<g filter="url(#filter1_d_446_492)">
<rect x="266.133" width="247.867" height="247.867" rx="20" fill="#F3F3F3"/>
<rect x="266.633" y="0.5" width="246.867" height="246.867" rx="19.5" stroke="#E5E5E5"/>
</g>
<g filter="url(#filter2_d_446_492)">
<rect x="794" width="247.867" height="247.867" rx="20" fill="#F3F3F3"/>
<rect x="794.5" y="0.5" width="246.867" height="246.867" rx="19.5" stroke="#E5E5E5"/>
</g>
<path d="M954.395 188.285C953.404 187.514 952.523 186.193 951.753 184.321C951.092 182.56 950.541 180.468 950.101 178.045C949.771 175.623 949.44 172.925 949.11 169.952C948.89 167.09 948.725 164.062 948.615 160.869C948.284 153.932 948.174 146.224 948.284 137.746C948.394 129.158 948.615 120.514 948.945 111.816C949.275 103.007 949.55 94.4192 949.771 86.0511C949.991 77.5728 949.991 70.0305 949.771 63.4241C949.771 61.7725 949.661 60.5063 949.44 59.6255C949.22 58.6345 948.89 57.8087 948.449 57.1481C948.119 56.3773 947.679 55.6616 947.128 55.001C946.688 54.2302 946.192 53.3494 945.642 52.3584C944.871 51.0371 944.32 50.1012 943.99 49.5507C943.66 48.8901 943.66 48.0643 943.99 47.0733C944.32 45.9722 944.981 44.9813 945.972 44.1004C947.073 43.2196 948.284 42.4488 949.605 41.7882C950.927 41.1275 952.303 40.6321 953.734 40.3017C955.276 39.8613 956.707 39.586 958.029 39.4759C960.451 39.2557 962.323 39.8063 963.644 41.1275C965.075 42.5589 966.452 44.0454 967.773 45.5869C969.204 47.0182 970.306 48.4496 971.076 49.881C971.847 51.3124 972.343 52.6887 972.563 54.01C972.893 55.2212 973.058 56.6526 973.058 58.3042C973.168 63.1489 973.223 68.5441 973.223 74.4899C973.223 80.3255 973.223 86.3814 973.223 92.6575C973.223 98.8234 973.168 105.044 973.058 111.321C973.058 117.487 973.003 123.267 972.893 128.662C972.893 133.947 972.838 138.682 972.728 142.866C972.618 147.05 972.508 150.243 972.398 152.445C972.287 153.987 971.902 156.189 971.241 159.052C970.691 161.804 969.535 164.447 967.773 166.979C964.58 171.164 961.607 175.017 958.854 178.541C956.102 182.174 954.615 185.422 954.395 188.285ZM846.876 151.95C851.611 150.739 856.125 149.032 860.419 146.83C864.823 144.628 868.787 141.93 872.311 138.737C879.578 132.131 885.964 124.919 891.469 117.101C896.974 109.284 901.324 101.081 904.517 92.4923C902.755 92.6024 900.883 92.7125 898.901 92.8226C896.919 92.9327 894.938 93.0428 892.956 93.1529C890.974 93.1529 889.047 93.1529 887.175 93.1529C885.413 93.1529 883.872 93.1529 882.551 93.1529C881.009 93.0428 879.578 92.8777 878.256 92.6575C877.045 92.4372 875.724 91.9968 874.293 91.3362C873.191 90.7856 872.035 90.07 870.824 89.1891C869.613 88.1981 868.457 87.2072 867.356 86.2162C866.255 85.1152 865.319 84.0691 864.548 83.0782C863.777 81.9771 863.227 81.0412 862.896 80.2705C862.456 79.2795 862.621 78.2885 863.392 77.2976C864.273 76.1965 865.649 74.9853 867.521 73.6641C869.393 72.2327 870.769 71.4069 871.65 71.1867C872.531 70.9664 873.357 71.0215 874.127 71.3518C875.008 71.572 875.944 71.9024 876.935 72.3428C877.816 72.6731 878.807 72.8933 879.908 73.0034C881.119 73.1135 882.165 73.1686 883.046 73.1686C884.698 73.1686 886.845 73.1135 889.487 73.0034C892.24 72.7832 894.993 72.618 897.745 72.5079C900.608 72.2877 903.251 72.1226 905.673 72.0125C908.205 71.7922 910.132 71.6271 911.454 71.517C912.995 71.2968 914.537 70.9664 916.078 70.526C917.62 69.9755 919.161 69.8103 920.702 70.0305C922.244 70.2507 923.675 70.8013 924.997 71.6821C926.428 72.4529 927.639 73.2787 928.63 74.1595C931.273 76.4718 932.704 78.8391 932.924 81.2614C933.034 82.913 932.759 84.2343 932.099 85.2253C931.438 86.2162 930.942 87.3173 930.612 88.5285C928.96 94.1439 926.979 99.8144 924.666 105.54C922.354 111.155 919.712 116.661 916.739 122.056C913.876 127.341 910.683 132.406 907.159 137.251C903.746 142.095 900.057 146.5 896.094 150.463C892.79 153.767 889.487 156.079 886.184 157.4C882.881 158.611 879.523 159.437 876.109 159.878C874.237 160.098 872.586 160.153 871.154 160.043C869.723 159.823 868.402 159.492 867.191 159.052C865.979 158.611 864.823 158.061 863.722 157.4C862.621 156.74 861.41 155.969 860.089 155.088C858.767 154.317 857.501 153.767 856.29 153.436C855.079 152.996 853.923 152.721 852.822 152.611C851.721 152.5 850.675 152.445 849.684 152.445C848.693 152.335 847.757 152.17 846.876 151.95Z" fill="black"/>
<g filter="url(#filter3_d_446_492)">
<rect x="530" width="247.867" height="247.867" rx="20" fill="white"/>
<rect x="530.5" y="0.5" width="246.867" height="246.867" rx="19.5" stroke="#E5E5E5"/>
</g>
<path d="M707.637 107.357C706.095 107.467 704.334 107.522 702.352 107.522C700.37 107.522 698.443 107.522 696.571 107.522C695.801 110.385 694.81 113.192 693.598 115.945C692.387 118.588 691.011 120.955 689.469 123.047C690.681 123.597 691.727 124.313 692.607 125.194C693.598 126.075 694.534 127.011 695.415 128.002C695.966 128.772 696.571 129.598 697.232 130.479C697.893 131.36 698.223 132.186 698.223 132.957C698.223 134.168 697.507 135.929 696.076 138.242C695.856 138.792 695.47 139.893 694.92 141.545C694.369 143.196 693.764 144.958 693.103 146.83C692.552 148.702 692.002 150.463 691.451 152.115C691.011 153.657 690.736 154.592 690.625 154.923C689.965 157.015 688.754 158.336 686.992 158.887C685.34 159.327 683.193 159.602 680.551 159.712C679.45 159.712 677.248 159.712 673.944 159.712C670.641 159.712 666.898 159.712 662.713 159.712C658.529 159.712 654.125 159.712 649.501 159.712C644.876 159.602 640.692 159.547 636.948 159.547C637.829 160.979 638.765 162.3 639.756 163.511C641.408 165.493 643.114 166.649 644.876 166.979C646.748 167.42 648.785 167.75 650.987 167.97C651.978 168.081 653.74 168.191 656.272 168.301C658.915 168.411 661.722 168.466 664.695 168.466C667.668 168.576 670.586 168.631 673.449 168.631C676.312 168.631 678.569 168.631 680.22 168.631C681.982 168.631 683.964 168.466 686.166 168.136C688.368 167.805 690.35 167.42 692.112 166.979C693.874 166.539 695.36 166.374 696.571 166.484C697.782 166.594 698.883 166.924 699.874 167.475C700.976 168.025 702.022 168.741 703.012 169.622C704.114 170.613 705.325 171.769 706.646 173.09C708.518 174.962 709.068 176.504 708.298 177.715C707.527 179.036 706.316 180.412 704.664 181.844C702.792 183.495 700.976 184.762 699.214 185.643C697.562 186.523 695.856 187.184 694.094 187.624C692.332 188.065 690.405 188.34 688.313 188.45C686.331 188.56 684.074 188.615 681.542 188.615C680.331 188.615 677.963 188.56 674.44 188.45C670.916 188.45 667.118 188.395 663.044 188.285C659.08 188.285 655.281 188.23 651.648 188.12C648.014 188.01 645.482 187.955 644.05 187.955C641.848 187.845 639.921 187.68 638.27 187.459C636.618 187.349 635.132 187.019 633.81 186.468C632.489 186.028 631.223 185.312 630.012 184.321C628.801 183.33 627.534 181.954 626.213 180.192C623.681 176.999 621.589 173.916 619.937 170.943C618.285 167.97 616.634 165.328 614.982 163.016C614.101 161.804 612.89 160.869 611.349 160.208C609.917 159.547 608.431 158.721 606.889 157.731C605.568 156.85 604.687 155.914 604.247 154.923C603.696 153.712 603.421 152.5 603.421 151.289C603.531 150.078 604.027 149.032 604.907 148.151C605.788 147.27 607.055 146.5 608.706 145.839C610.468 145.068 612.23 144.408 613.991 143.857C616.083 143.196 617.845 142.701 619.276 142.371C620.708 142.04 621.919 141.875 622.91 141.875C623.901 141.875 624.782 142.15 625.552 142.701C626.323 143.141 627.039 143.912 627.7 145.013L628.195 145.839L671.137 145.344L671.467 138.076C667.944 137.966 664.035 137.856 659.741 137.746C655.446 137.636 651.152 137.581 646.858 137.581C642.564 137.581 638.38 137.581 634.306 137.581C630.342 137.581 626.874 137.581 623.901 137.581C622.8 137.581 621.864 137.581 621.093 137.581C620.322 137.471 619.552 137.306 618.781 137.086C618.01 136.865 617.184 136.535 616.303 136.095C615.533 135.654 614.542 134.993 613.331 134.113C612.119 133.232 611.073 132.351 610.193 131.47C609.312 130.589 608.816 129.653 608.706 128.662C608.596 127.671 608.651 126.625 608.871 125.524C609.202 124.423 609.917 123.267 611.018 122.056C611.789 121.175 612.505 120.57 613.165 120.239C613.826 119.909 614.487 119.744 615.147 119.744C615.918 119.744 616.744 119.909 617.625 120.239C618.506 120.459 619.662 120.735 621.093 121.065C624.176 121.726 627.589 122.221 631.333 122.551C636.178 122.992 641.188 123.157 646.363 123.047C651.538 122.827 655.997 122.662 659.741 122.551C662.163 122.441 665.301 122.276 669.155 122.056C673.119 121.726 676.642 121.45 679.725 121.23C678.734 119.358 677.798 117.487 676.917 115.615C676.146 113.743 675.486 111.706 674.935 109.504C674.054 105.87 673.559 102.347 673.449 98.9335C673.339 95.4101 673.394 92.0519 673.614 88.8588C673.834 86.2162 673.999 83.904 674.109 81.9221C674.33 79.83 674.44 77.9032 674.44 76.1415C674.55 74.2696 674.605 72.4529 674.605 70.6912C674.715 68.9295 674.77 67.0577 674.77 65.0757C674.77 62.9837 674.715 61.2771 674.605 59.9558C674.605 58.5244 674.33 56.9278 673.779 55.1661C673.559 54.2853 672.843 53.2943 671.632 52.1933C670.421 50.9821 669.54 49.9911 668.99 49.2204C668.549 48.6698 668.439 47.9542 668.659 47.0733C668.879 46.0823 669.32 45.0914 669.98 44.1004C670.531 43.3297 671.467 42.3938 672.788 41.2927C674.22 40.1916 675.486 39.3658 676.587 38.8153C678.679 37.8243 680.551 37.6592 682.202 38.3198C683.414 38.8703 684.955 39.7512 686.827 40.9624C688.699 42.1735 690.24 43.3297 691.451 44.4307C693.433 46.0823 694.865 48.0092 695.745 50.2113C696.736 52.4135 697.397 54.6707 697.727 56.9829C697.948 58.5244 698.113 60.4513 698.223 62.7635C698.443 64.9656 698.498 67.0577 698.388 69.0396C698.278 71.572 698.223 74.1595 698.223 76.8021C698.223 79.4447 698.223 82.0872 698.223 84.7298L703.012 83.7388C705.215 83.1883 707.141 83.2984 708.793 84.0691C710.445 84.8399 711.876 85.7207 713.087 86.7117C713.968 87.4824 714.959 88.4184 716.06 89.5194C717.161 90.5104 718.152 91.5564 719.033 92.6575C720.024 93.7585 720.795 94.8596 721.345 95.9607C722.006 96.9516 722.336 97.8325 722.336 98.6032C722.336 101.246 720.795 103.338 717.712 104.879C714.739 106.421 711.381 107.247 707.637 107.357ZM633.315 99.2639C630.452 102.897 627.81 105.87 625.387 108.183C621.534 111.706 617.625 114.018 613.661 115.119C609.697 116.11 605.403 116.496 600.778 116.275C598.246 116.165 595.438 115.505 592.355 114.293C589.272 113.082 586.41 111.21 583.767 108.678C586.299 108.458 588.722 107.797 591.034 106.696C593.346 105.595 595.438 104.384 597.31 103.063C599.622 101.411 602.045 99.4841 604.577 97.2819C607.22 94.9697 609.697 92.5474 612.009 90.0149C614.432 87.3723 616.579 84.7298 618.451 82.0872C620.432 79.3346 621.919 76.8021 622.91 74.4899C623.791 72.3978 624.231 70.6361 624.231 69.2047C624.341 67.6632 623.901 66.1768 622.91 64.7454C621.809 63.2039 621.148 62.1029 620.928 61.4422C620.818 60.7816 621.038 60.0659 621.589 59.2951C622.249 58.4143 623.185 57.3683 624.396 56.1571C625.608 54.8358 626.654 53.8999 627.534 53.3494C628.746 52.4685 629.737 52.0281 630.507 52.0281C631.278 52.0281 632.544 52.3034 634.306 52.8539C636.068 53.4044 637.774 54.2302 639.426 55.3313C641.188 56.3223 643.004 57.6435 644.876 59.2951C645.977 60.2861 646.858 61.2771 647.519 62.268C648.179 63.1489 648.565 64.1398 648.675 65.2409C648.895 66.342 648.895 67.5531 648.675 68.8744C648.455 70.1957 648.069 71.8473 647.519 73.8292C646.528 77.0223 645.096 80.3806 643.225 83.904C644.326 84.5646 645.702 85.3354 647.354 86.2162C649.005 87.0971 650.602 88.033 652.143 89.0239C653.795 89.9048 655.336 90.7856 656.768 91.6665C658.199 92.4372 659.245 93.0428 659.906 93.4833C662.658 95.4652 664.585 97.4471 665.686 99.429C666.787 101.301 667.283 103.668 667.173 106.531C667.063 109.394 666.127 111.651 664.365 113.302C662.713 114.954 660.456 115.835 657.593 115.945C654.841 116.055 652.308 115.45 649.996 114.128C647.684 112.697 645.427 111.045 643.225 109.173C641.793 107.962 640.142 106.476 638.27 104.714C636.508 102.952 634.856 101.136 633.315 99.2639Z" fill="black"/>
<path d="M445.215 59.4698C445.435 62.5528 445.655 66.1863 445.875 70.3704C446.095 74.4443 446.261 78.7935 446.371 83.418C446.481 87.9324 446.481 92.6119 446.371 97.4566C446.261 102.191 446.04 106.816 445.71 111.33C445.16 117.166 443.948 122.561 442.077 127.516C440.315 132.471 437.562 137.315 433.819 142.05C436.131 144.582 437.948 147.445 439.269 150.638C440.59 153.831 441.251 157.245 441.251 160.878C441.251 165.503 440.205 169.577 438.113 173.1C436.021 176.733 433.213 179.761 429.69 182.184C426.276 184.606 422.257 186.423 417.633 187.634C413.119 188.955 408.329 189.616 403.264 189.616C397.979 189.616 392.639 189.065 387.243 187.964C381.958 186.863 377.004 185.212 372.379 183.01C367.865 180.807 364.011 178.055 360.818 174.752C357.735 171.448 355.808 167.595 355.037 163.19C354.707 161.649 354.597 160.217 354.707 158.896C354.817 157.575 354.982 156.474 355.202 155.593C355.533 154.492 355.918 153.556 356.359 152.785C358.01 149.482 360.377 146.564 363.46 144.032C366.653 141.389 370.177 139.187 374.031 137.425C377.994 135.664 382.123 134.342 386.418 133.462C390.822 132.471 395.006 131.865 398.97 131.645C398.089 129.773 397.263 127.791 396.492 125.699C395.832 123.607 395.446 121.515 395.336 119.423C395.226 116.45 395.171 112.927 395.171 108.853C395.171 104.669 395.226 100.374 395.336 95.9702C395.446 91.4558 395.501 86.9965 395.501 82.5922C395.612 78.188 395.667 74.1691 395.667 70.5355C395.667 69.2143 395.612 68.1683 395.501 67.3975C395.501 66.5166 395.336 65.7459 395.006 65.0853C394.786 64.4246 394.455 63.819 394.015 63.2685C393.575 62.6079 393.024 61.8371 392.363 60.9563C391.042 59.3047 390.437 57.8182 390.547 56.4969C390.767 55.0656 391.648 53.5791 393.189 52.0376C393.409 51.8174 394.015 51.2669 395.006 50.386C396.107 49.3951 396.988 48.7895 397.649 48.5693C398.529 48.2389 399.52 48.1839 400.621 48.4041C401.722 48.5142 403.044 49.0097 404.585 49.8905C406.127 50.7714 407.558 51.9275 408.879 53.3589C410.201 54.6802 411.302 55.7812 412.183 56.6621C414.054 58.8642 415.155 61.2315 415.486 63.764C415.926 66.1863 416.201 68.8289 416.312 71.6917C416.312 73.3433 416.312 75.6005 416.312 78.4632C416.422 81.326 416.532 84.409 416.642 87.7122C417.963 87.492 419.284 87.3268 420.606 87.2167C421.927 86.9965 423.193 86.8864 424.404 86.8864C424.404 82.2619 424.349 78.0779 424.239 74.3342C424.239 70.4805 424.239 66.7369 424.239 63.1034C424.239 61.5619 424.129 60.2406 423.909 59.1395C423.689 58.0384 423.303 57.0475 422.753 56.1666C422.312 55.1757 421.707 54.1847 420.936 53.1938C420.165 52.2028 419.229 50.9916 418.128 49.5602C417.578 48.7895 417.248 47.9086 417.137 46.9177C417.027 45.8166 417.303 44.8256 417.963 43.9448C418.294 43.5044 418.954 42.8988 419.945 42.128C420.936 41.3573 421.707 40.8067 422.257 40.4764C423.579 39.7057 424.68 39.2652 425.561 39.1551C426.552 39.045 427.818 39.1551 429.359 39.4855C431.121 39.8158 432.938 40.7517 434.81 42.2932C436.681 43.7246 438.113 44.9908 439.104 46.0919C440.865 47.9637 442.242 50.0557 443.233 52.3679C444.334 54.5701 444.994 56.9374 445.215 59.4698ZM356.854 122.396C355.202 124.268 353.551 125.754 351.899 126.855C350.358 127.846 348.706 128.617 346.944 129.167C345.293 129.608 343.476 129.883 341.494 129.993C339.512 130.103 337.365 130.103 335.053 129.993C332.3 129.883 329.437 129.333 326.465 128.342C323.602 127.24 320.849 125.644 318.207 123.552C320.739 123.332 323.106 122.616 325.308 121.405C327.621 120.194 329.658 118.707 331.419 116.946C333.511 114.853 335.658 112.376 337.861 109.513C340.173 106.651 342.265 103.733 344.137 100.76C346.119 97.6768 347.825 94.5939 349.257 91.5109C350.798 88.4279 351.954 85.5651 352.725 82.9225C353.386 80.6103 353.771 78.7935 353.881 77.4723C353.991 76.0409 353.496 74.7196 352.395 73.5084C350.853 71.6366 350.413 69.93 351.073 68.3885C351.404 67.5076 352.064 66.3515 353.055 64.9201C354.156 63.3786 355.202 62.1674 356.193 61.2866C357.405 60.2956 358.506 59.8552 359.497 59.9653C360.598 59.9653 362.029 60.2406 363.791 60.7911C365.552 61.3416 367.369 62.1124 369.241 63.1034C371.113 64.0943 372.819 65.3605 374.361 66.902C376.563 69.1042 377.609 71.5816 377.499 74.3342C377.389 76.9768 376.893 80.2249 376.013 84.0787C375.242 87.492 373.976 91.1805 372.214 95.1444C373.535 96.0252 374.911 97.0162 376.343 98.1173C377.774 99.2183 379.151 100.319 380.472 101.42C381.903 102.411 383.169 103.402 384.271 104.393C385.482 105.274 386.363 105.99 386.913 106.54C389.446 109.073 390.987 111.385 391.538 113.477C392.088 115.569 392.143 117.661 391.703 119.753C391.152 122.286 389.831 124.323 387.739 125.864C385.757 127.406 383.335 128.066 380.472 127.846C378.05 127.626 375.792 126.8 373.7 125.369C371.608 123.937 369.626 122.121 367.755 119.918C366.984 119.038 366.213 118.047 365.442 116.946C364.782 115.734 364.011 114.523 363.13 113.312C360.708 117.276 358.616 120.304 356.854 122.396ZM412.513 125.038C411.962 125.919 411.412 126.745 410.861 127.516C410.311 128.286 409.76 129.112 409.21 129.993C412.403 130.213 415.486 130.819 418.459 131.81C421.432 132.801 424.184 134.177 426.717 135.939L425.395 129.002C424.845 125.479 424.459 122.01 424.239 118.597C424.129 115.074 424.129 111.605 424.239 108.192L416.807 107.697V111C416.587 115.844 415.155 120.524 412.513 125.038ZM399.3 168.145C401.612 168.145 403.814 168.035 405.907 167.815C408.109 167.595 410.036 167.154 411.687 166.494C413.339 165.833 414.66 165.007 415.651 164.016C416.642 162.915 417.137 161.594 417.137 160.052C417.137 157.189 416.091 154.877 413.999 153.116C412.017 151.354 409.87 150.198 407.558 149.647C406.347 149.317 405.301 148.987 404.42 148.656C403.539 148.326 402.658 147.775 401.778 147.005C399.906 147.005 397.869 147.335 395.667 147.996C393.575 148.546 391.483 149.317 389.391 150.308C387.409 151.299 385.427 152.455 383.445 153.776C381.573 154.987 379.976 156.309 378.655 157.74C379.976 161.043 382.619 163.576 386.583 165.337C390.547 167.099 394.786 168.035 399.3 168.145Z" fill="black"/>
<defs>
<filter id="filter0_d_446_492" x="0" y="0" width="251.867" height="251.867" filterUnits="userSpaceOnUse" color-interpolation-filters="sRGB">
<feFlood flood-opacity="0" result="BackgroundImageFix"/>
<feColorMatrix in="SourceAlpha" type="matrix" values="0 0 0 0 0 0 0 0 0 0 0 0 0 0 0 0 0 0 127 0" result="hardAlpha"/>
<feOffset dy="2"/>
<feGaussianBlur stdDeviation="1"/>
<feComposite in2="hardAlpha" operator="out"/>
<feColorMatrix type="matrix" values="0 0 0 0 0 0 0 0 0 0 0 0 0 0 0 0 0 0 0.1 0"/>
<feBlend mode="normal" in2="BackgroundImageFix" result="effect1_dropShadow_446_492"/>
<feBlend mode="normal" in="SourceGraphic" in2="effect1_dropShadow_446_492" result="shape"/>
</filter>
<filter id="filter1_d_446_492" x="264.133" y="0" width="251.867" height="251.867" filterUnits="userSpaceOnUse" color-interpolation-filters="sRGB">
<feFlood flood-opacity="0" result="BackgroundImageFix"/>
<feColorMatrix in="SourceAlpha" type="matrix" values="0 0 0 0 0 0 0 0 0 0 0 0 0 0 0 0 0 0 127 0" result="hardAlpha"/>
<feOffset dy="2"/>
<feGaussianBlur stdDeviation="1"/>
<feComposite in2="hardAlpha" operator="out"/>
<feColorMatrix type="matrix" values="0 0 0 0 0 0 0 0 0 0 0 0 0 0 0 0 0 0 0.1 0"/>
<feBlend mode="normal" in2="BackgroundImageFix" result="effect1_dropShadow_446_492"/>
<feBlend mode="normal" in="SourceGraphic" in2="effect1_dropShadow_446_492" result="shape"/>
</filter>
<filter id="filter2_d_446_492" x="792" y="0" width="251.867" height="251.867" filterUnits="userSpaceOnUse" color-interpolation-filters="sRGB">
<feFlood flood-opacity="0" result="BackgroundImageFix"/>
<feColorMatrix in="SourceAlpha" type="matrix" values="0 0 0 0 0 0 0 0 0 0 0 0 0 0 0 0 0 0 127 0" result="hardAlpha"/>
<feOffset dy="2"/>
<feGaussianBlur stdDeviation="1"/>
<feComposite in2="hardAlpha" operator="out"/>
<feColorMatrix type="matrix" values="0 0 0 0 0 0 0 0 0 0 0 0 0 0 0 0 0 0 0.1 0"/>
<feBlend mode="normal" in2="BackgroundImageFix" result="effect1_dropShadow_446_492"/>
<feBlend mode="normal" in="SourceGraphic" in2="effect1_dropShadow_446_492" result="shape"/>
</filter>
<filter id="filter3_d_446_492" x="528" y="0" width="251.867" height="251.867" filterUnits="userSpaceOnUse" color-interpolation-filters="sRGB">
<feFlood flood-opacity="0" result="BackgroundImageFix"/>
<feColorMatrix in="SourceAlpha" type="matrix" values="0 0 0 0 0 0 0 0 0 0 0 0 0 0 0 0 0 0 127 0" result="hardAlpha"/>
<feOffset dy="2"/>
<feGaussianBlur stdDeviation="1"/>
<feComposite in2="hardAlpha" operator="out"/>
<feColorMatrix type="matrix" values="0 0 0 0 0 0 0 0 0 0 0 0 0 0 0 0 0 0 0.1 0"/>
<feBlend mode="normal" in2="BackgroundImageFix" result="effect1_dropShadow_446_492"/>
<feBlend mode="normal" in="SourceGraphic" in2="effect1_dropShadow_446_492" result="shape"/>
</filter>
</defs>
</svg>
