<?xml version="1.0" standalone="no"?>
<!DOCTYPE svg PUBLIC "-//W3C//DTD SVG 20010904//EN"
 "http://www.w3.org/TR/2001/REC-SVG-20010904/DTD/svg10.dtd">
<svg version="1.0" xmlns="http://www.w3.org/2000/svg"
 width="158.000000pt" height="158.000000pt" viewBox="0 0 158.000000 158.000000"
 preserveAspectRatio="xMidYMid meet">
<metadata>
Created by potrace 1.14, written by Peter Selinger 2001-2017
</metadata>
<g transform="translate(0.000000,158.000000) scale(0.100000,-0.100000)"
fill="#000000" stroke="none">
<path d="M643 1495 c-122 -32 -182 -58 -278 -121 -148 -97 -246 -218 -302
-372 -35 -95 -37 -106 -38 -217 0 -108 6 -149 26 -186 7 -13 11 -24 10 -24 -3
0 17 -53 35 -90 30 -64 184 -235 211 -235 6 0 21 -9 35 -19 40 -32 200 -109
241 -116 20 -4 37 -12 37 -17 0 -6 -11 -7 -27 -3 -26 6 -27 5 -8 -8 20 -15 45
-12 45 6 0 5 9 2 19 -7 10 -10 21 -13 25 -8 3 4 31 7 63 5 32 -2 70 -4 86 -3
15 0 27 -4 27 -10 0 -6 -15 -8 -35 -5 -19 2 -35 0 -35 -4 0 -5 23 -8 50 -8 44
0 50 2 50 21 0 16 3 17 9 7 6 -9 10 -10 16 -2 3 7 15 9 25 6 12 -4 22 1 29 12
6 10 11 13 11 7 0 -16 47 -24 47 -9 0 7 -8 10 -19 7 -10 -2 -18 1 -18 7 0 7
10 10 25 7 15 -3 25 0 25 7 0 7 4 6 10 -3 6 -9 5 -17 -3 -22 -8 -5 -9 -8 -1
-8 6 0 18 8 25 17 10 11 10 14 2 9 -7 -4 -13 -2 -13 3 0 6 7 11 15 11 8 0 15
5 15 11 0 5 5 7 10 4 8 -5 7 -11 -1 -21 -8 -10 -8 -14 0 -14 6 0 11 4 11 10 0
5 3 9 8 8 4 0 18 4 32 10 14 6 18 11 9 11 -8 1 -20 -4 -26 -10 -7 -7 -12 -6
-16 5 -4 10 -1 13 8 10 7 -3 23 4 34 15 22 22 37 28 26 12 -7 -12 32 -5 62 10
12 7 20 15 18 19 -3 4 3 14 12 21 14 12 16 12 8 -1 -8 -13 -6 -13 8 -1 9 7 14
18 10 24 -4 6 -1 7 6 2 8 -4 25 6 46 29 18 20 30 36 28 36 -3 0 6 9 21 21 14
11 24 24 21 29 -3 5 4 15 15 23 11 7 17 16 14 19 -3 3 9 27 26 52 18 26 33 52
34 59 2 7 8 24 14 39 24 58 40 170 38 270 -3 112 -26 196 -90 327 -33 68 -182
231 -211 231 -8 0 -15 4 -15 8 0 14 -89 58 -175 87 -117 39 -293 43 -422 10z
m424 -110 c0 -6 -13 -10 -31 -8 -17 2 13 -12 67 -30 103 -36 115 -43 102 -54
-4 -5 -10 -2 -12 5 -3 6 -12 12 -21 12 -9 0 12 -19 48 -42 36 -23 68 -45 71
-50 3 -6 15 -9 25 -8 11 1 24 2 31 1 17 -2 85 -99 78 -111 -4 -6 -1 -9 7 -8 8
2 13 -6 12 -19 -1 -13 2 -23 7 -23 4 0 7 -8 7 -17 -1 -10 4 -37 11 -60 17 -63
15 -158 -5 -226 -3 -10 0 -25 7 -33 9 -12 9 -13 -3 -9 -10 4 -21 -11 -38 -52
-97 -237 -336 -416 -607 -453 -140 -18 -212 -15 -299 15 -149 51 -207 86 -264
162 -17 21 -33 43 -37 48 -57 73 -78 150 -77 280 1 123 6 154 36 209 7 14 6
21 -4 27 -10 7 -9 9 4 9 11 0 15 5 12 14 -3 8 2 27 11 43 9 15 14 20 11 10 -3
-11 -2 -15 4 -12 6 3 10 15 10 26 0 10 5 19 10 19 6 0 10 6 10 13 0 7 9 18 20
25 12 7 18 17 15 22 -3 6 -1 10 5 10 6 0 8 5 5 10 -4 6 -1 9 6 8 7 -2 13 4 14
12 1 8 6 14 13 12 7 -1 20 6 30 15 10 10 31 27 47 38 15 11 47 36 69 55 23 19
34 26 26 16 -15 -19 -14 -19 20 0 19 10 37 19 40 19 21 6 48 21 63 37 15 15
22 16 40 6 21 -11 21 -10 7 7 -14 17 -14 18 9 6 14 -8 26 -9 30 -4 11 17 41
23 41 8 0 -10 7 -12 28 -6 15 5 38 7 52 5 14 -1 19 0 13 2 -7 3 -13 10 -13 15
0 6 4 8 8 5 4 -2 13 -2 19 2 19 12 210 9 210 -3z m-280 -11 c-3 -3 -12 -4 -19
-1 -8 3 -5 6 6 6 11 1 17 -2 13 -5z m-182 -34 c3 -5 1 -10 -4 -10 -6 0 -11 5
-11 10 0 6 2 10 4 10 3 0 8 -4 11 -10z m619 -52 c-5 -7 0 -9 14 -6 13 4 27 -1
38 -13 9 -10 23 -19 30 -19 14 0 29 -18 21 -26 -2 -3 -20 4 -38 14 -19 10 -44
24 -57 31 -19 10 -23 31 -6 31 3 0 2 -5 -2 -12z m-844 -62 c0 -2 -8 -10 -17
-17 -16 -13 -17 -12 -4 4 13 16 21 21 21 13z m-324 -544 c1 -26 -2 -39 -7 -31
-4 7 -6 16 -3 20 2 4 0 18 -5 31 -6 17 -6 25 2 25 7 0 13 -18 13 -45z m1414
-16 c0 -3 -4 -8 -10 -11 -5 -3 -10 -1 -10 4 0 6 5 11 10 11 6 0 10 -2 10 -4z
m-220 -309 c0 -2 -10 -12 -22 -23 l-23 -19 19 23 c18 21 26 27 26 19z m60 -51
c0 -2 -8 -10 -17 -17 -16 -13 -17 -12 -4 4 13 16 21 21 21 13z m-363 -201 c0
-8 -4 -12 -9 -9 -5 3 -6 10 -3 15 9 13 12 11 12 -6z"/>
<path d="M765 1175 c-16 -8 -56 -26 -87 -40 -32 -14 -63 -35 -69 -47 -17 -31
-4 -224 21 -317 5 -19 8 -36 7 -36 -1 -1 -42 -23 -90 -49 -121 -65 -236 -160
-252 -209 -4 -11 7 -31 34 -59 22 -24 36 -45 31 -48 -4 -3 16 -6 45 -6 39 -1
56 3 60 13 3 8 12 13 20 10 9 -4 12 -1 9 7 -7 17 78 57 128 61 21 2 45 10 53
19 8 8 24 13 35 11 11 -2 19 1 17 7 -1 6 4 13 12 16 10 3 12 0 8 -11 -5 -13 3
-12 51 5 31 11 60 24 63 30 3 5 9 9 13 9 28 -4 57 1 68 12 7 6 20 13 28 13 28
3 65 13 105 28 39 14 39 15 10 15 -16 0 -49 -8 -72 -18 -32 -15 -41 -16 -36
-6 3 8 20 17 39 21 19 3 34 9 34 13 0 3 24 6 53 5 34 0 59 5 71 15 11 9 16 10
12 4 -9 -15 10 -18 19 -3 4 6 10 8 15 5 4 -3 13 2 20 10 7 8 15 13 19 11 14
-9 97 41 113 69 18 32 30 126 18 144 -10 17 -64 30 -107 25 -21 -2 -73 -12
-116 -21 -89 -19 -68 -33 -169 111 -112 158 -146 196 -176 196 -15 0 -40 -7
-57 -15z m436 -512 c11 -15 11 -16 -1 -6 -10 9 -17 10 -27 2 -9 -8 -13 -8 -13
-1 0 6 6 13 13 15 6 3 13 6 13 6 1 1 8 -7 15 -16z m-47 -24 c8 -9 8 -10 -1 -5
-20 11 -53 16 -53 7 0 -4 -7 -8 -15 -8 -21 0 -19 15 3 20 25 5 54 -1 66 -14z"/>
<path d="M558 429 c-21 -11 -38 -22 -38 -24 0 -3 13 1 29 9 16 9 31 13 33 10
3 -3 8 2 11 11 4 8 5 15 4 15 -1 -1 -19 -10 -39 -21z"/>
<path d="M616 442 c-3 -5 1 -9 9 -9 8 0 12 4 9 9 -3 4 -7 8 -9 8 -2 0 -6 -4
-9 -8z"/>
<path d="M339 216 c13 -16 51 -41 51 -33 0 2 -15 14 -32 27 -21 15 -28 17 -19
6z"/>
</g>
</svg>
