<svg width="40" height="40" viewBox="0 0 40 40" fill="none" xmlns="http://www.w3.org/2000/svg">
<circle cx="20" cy="20" r="20" fill="#BB9B72"/>
<g clip-path="url(#clip0_448_507)">
<path d="M13.1075 28.0434C10.7787 25.7146 10.7787 21.9458 13.1075 19.617L21.1508 11.5737C22.8437 9.88075 25.5861 9.88075 27.2791 11.5737C28.972 13.2666 28.972 16.009 27.2791 17.7019L20.7678 24.2132C19.7107 25.2703 17.9948 25.2703 16.9376 24.2132C15.8805 23.1561 15.8805 21.4402 16.9376 20.3831L22.6829 14.6378L24.2149 16.1699L18.4007 21.9841C17.9794 22.4054 18.7455 23.1714 19.1668 22.7501L25.747 16.1699C26.5896 15.3272 26.5896 13.9484 25.747 13.1057C24.9044 12.2631 23.5255 12.2631 22.6829 13.1057L14.6395 21.1491C13.1611 22.6275 13.1611 25.0329 14.6395 26.5113C16.118 27.9898 18.5233 27.9898 20.0018 26.5113L27.2791 19.234L28.8111 20.7661L21.5338 28.0434C19.2051 30.3721 15.4362 30.3721 13.1075 28.0434Z" fill="white"/>
</g>
<defs>
<clipPath id="clip0_448_507">
<rect width="26" height="26" fill="white" transform="translate(2 20) rotate(-45)"/>
</clipPath>
</defs>
</svg>
