<svg width="216" height="49" viewBox="0 0 216 49" fill="none" xmlns="http://www.w3.org/2000/svg">
<rect width="216" height="49" rx="6" fill="white"/>
<path fill-rule="evenodd" clip-rule="evenodd" d="M33.64 24.2046C33.64 23.5664 33.5827 22.9527 33.4764 22.3636H25V25.845H29.8436C29.635 26.97 29.0009 27.9232 28.0477 28.5614V30.8196H30.9564C32.6582 29.2527 33.64 26.9455 33.64 24.2046Z" fill="#4285F4"/>
<path fill-rule="evenodd" clip-rule="evenodd" d="M25 33C27.43 33 29.4673 32.1941 30.9564 30.8195L28.0478 28.5613C27.2419 29.1013 26.2109 29.4204 25 29.4204C22.6559 29.4204 20.6719 27.8372 19.9641 25.71H16.9573V28.0418C18.4382 30.9831 21.4819 33 25 33Z" fill="#34A853"/>
<path fill-rule="evenodd" clip-rule="evenodd" d="M19.9641 25.7099C19.7841 25.1699 19.6818 24.5931 19.6818 23.9999C19.6818 23.4068 19.7841 22.8299 19.9641 22.2899V19.9581H16.9573C16.3477 21.1731 16 22.5477 16 23.9999C16 25.4522 16.3477 26.8268 16.9573 28.0418L19.9641 25.7099Z" fill="#FBBC05"/>
<path fill-rule="evenodd" clip-rule="evenodd" d="M25 18.5795C26.3214 18.5795 27.5078 19.0336 28.4405 19.9255L31.0219 17.3441C29.4632 15.8918 27.4259 15 25 15C21.4819 15 18.4382 17.0168 16.9573 19.9582L19.9641 22.29C20.6719 20.1627 22.6559 18.5795 25 18.5795Z" fill="#EA4335"/>
<path d="M66.6543 23.9141V27.7148C66.513 27.9017 66.292 28.1068 65.9912 28.3301C65.695 28.5488 65.3008 28.738 64.8086 28.8975C64.3164 29.057 63.7035 29.1367 62.9697 29.1367C62.3454 29.1367 61.7734 29.0319 61.2539 28.8223C60.7344 28.6081 60.2855 28.2959 59.9072 27.8857C59.5335 27.4756 59.2441 26.9766 59.0391 26.3887C58.834 25.7962 58.7314 25.1217 58.7314 24.3652V23.6748C58.7314 22.9229 58.8249 22.2529 59.0117 21.665C59.2031 21.0726 59.4766 20.5713 59.832 20.1611C60.1875 19.751 60.6159 19.4411 61.1172 19.2314C61.623 19.0173 62.195 18.9102 62.833 18.9102C63.6488 18.9102 64.3232 19.0469 64.8564 19.3203C65.3942 19.5892 65.8089 19.9629 66.1006 20.4414C66.3923 20.9199 66.5768 21.4668 66.6543 22.082H64.9727C64.918 21.7357 64.8109 21.4258 64.6514 21.1523C64.4964 20.8789 64.2731 20.6647 63.9814 20.5098C63.6943 20.3503 63.3206 20.2705 62.8604 20.2705C62.4639 20.2705 62.1152 20.3457 61.8145 20.4961C61.5137 20.6465 61.263 20.8675 61.0625 21.1592C60.8665 21.4508 60.7184 21.8063 60.6182 22.2256C60.5179 22.6449 60.4678 23.1234 60.4678 23.6611V24.3652C60.4678 24.9121 60.5247 25.3975 60.6387 25.8213C60.7572 26.2451 60.9258 26.6029 61.1445 26.8945C61.3678 27.1862 61.639 27.4072 61.958 27.5576C62.277 27.7035 62.637 27.7764 63.0381 27.7764C63.43 27.7764 63.7513 27.7445 64.002 27.6807C64.2526 27.6123 64.4508 27.5326 64.5967 27.4414C64.7471 27.3457 64.8633 27.2546 64.9453 27.168V25.1924H62.874V23.9141H66.6543ZM68.0762 25.3838V25.2266C68.0762 24.6934 68.1536 24.1989 68.3086 23.7432C68.4635 23.2829 68.6868 22.8841 68.9785 22.5469C69.2747 22.2051 69.6348 21.9408 70.0586 21.7539C70.487 21.5625 70.9701 21.4668 71.5078 21.4668C72.0501 21.4668 72.5332 21.5625 72.957 21.7539C73.3854 21.9408 73.7477 22.2051 74.0439 22.5469C74.3402 22.8841 74.5658 23.2829 74.7207 23.7432C74.8757 24.1989 74.9531 24.6934 74.9531 25.2266V25.3838C74.9531 25.917 74.8757 26.4115 74.7207 26.8672C74.5658 27.3229 74.3402 27.7217 74.0439 28.0635C73.7477 28.4007 73.3877 28.665 72.9639 28.8564C72.54 29.0433 72.0592 29.1367 71.5215 29.1367C70.9792 29.1367 70.4938 29.0433 70.0654 28.8564C69.6416 28.665 69.2816 28.4007 68.9854 28.0635C68.6891 27.7217 68.4635 27.3229 68.3086 26.8672C68.1536 26.4115 68.0762 25.917 68.0762 25.3838ZM69.7236 25.2266V25.3838C69.7236 25.7165 69.7578 26.0309 69.8262 26.3271C69.8945 26.6234 70.0016 26.8831 70.1475 27.1064C70.2933 27.3298 70.4801 27.5052 70.708 27.6328C70.9359 27.7604 71.207 27.8242 71.5215 27.8242C71.8268 27.8242 72.0911 27.7604 72.3145 27.6328C72.5423 27.5052 72.7292 27.3298 72.875 27.1064C73.0208 26.8831 73.1279 26.6234 73.1963 26.3271C73.2692 26.0309 73.3057 25.7165 73.3057 25.3838V25.2266C73.3057 24.8984 73.2692 24.5885 73.1963 24.2969C73.1279 24.0007 73.0186 23.7386 72.8682 23.5107C72.7223 23.2829 72.5355 23.1051 72.3076 22.9775C72.0843 22.8454 71.8177 22.7793 71.5078 22.7793C71.1979 22.7793 70.929 22.8454 70.7012 22.9775C70.4779 23.1051 70.2933 23.2829 70.1475 23.5107C70.0016 23.7386 69.8945 24.0007 69.8262 24.2969C69.7578 24.5885 69.7236 24.8984 69.7236 25.2266ZM76.0195 25.3838V25.2266C76.0195 24.6934 76.097 24.1989 76.252 23.7432C76.4069 23.2829 76.6302 22.8841 76.9219 22.5469C77.2181 22.2051 77.5781 21.9408 78.002 21.7539C78.4303 21.5625 78.9134 21.4668 79.4512 21.4668C79.9935 21.4668 80.4766 21.5625 80.9004 21.7539C81.3288 21.9408 81.6911 22.2051 81.9873 22.5469C82.2835 22.8841 82.5091 23.2829 82.6641 23.7432C82.819 24.1989 82.8965 24.6934 82.8965 25.2266V25.3838C82.8965 25.917 82.819 26.4115 82.6641 26.8672C82.5091 27.3229 82.2835 27.7217 81.9873 28.0635C81.6911 28.4007 81.3311 28.665 80.9072 28.8564C80.4834 29.0433 80.0026 29.1367 79.4648 29.1367C78.9225 29.1367 78.4372 29.0433 78.0088 28.8564C77.585 28.665 77.2249 28.4007 76.9287 28.0635C76.6325 27.7217 76.4069 27.3229 76.252 26.8672C76.097 26.4115 76.0195 25.917 76.0195 25.3838ZM77.667 25.2266V25.3838C77.667 25.7165 77.7012 26.0309 77.7695 26.3271C77.8379 26.6234 77.945 26.8831 78.0908 27.1064C78.2367 27.3298 78.4235 27.5052 78.6514 27.6328C78.8792 27.7604 79.1504 27.8242 79.4648 27.8242C79.7702 27.8242 80.0345 27.7604 80.2578 27.6328C80.4857 27.5052 80.6725 27.3298 80.8184 27.1064C80.9642 26.8831 81.0713 26.6234 81.1396 26.3271C81.2126 26.0309 81.249 25.7165 81.249 25.3838V25.2266C81.249 24.8984 81.2126 24.5885 81.1396 24.2969C81.0713 24.0007 80.9619 23.7386 80.8115 23.5107C80.6657 23.2829 80.4788 23.1051 80.251 22.9775C80.0277 22.8454 79.7611 22.7793 79.4512 22.7793C79.1413 22.7793 78.8724 22.8454 78.6445 22.9775C78.4212 23.1051 78.2367 23.2829 78.0908 23.5107C77.945 23.7386 77.8379 24.0007 77.7695 24.2969C77.7012 24.5885 77.667 24.8984 77.667 25.2266ZM89.0146 21.6035H90.5117V28.7949C90.5117 29.4603 90.3704 30.0254 90.0879 30.4902C89.8053 30.9551 89.4111 31.3083 88.9053 31.5498C88.3994 31.7959 87.8138 31.9189 87.1484 31.9189C86.8659 31.9189 86.5514 31.8779 86.2051 31.7959C85.8633 31.7139 85.5306 31.5817 85.207 31.3994C84.888 31.2217 84.6214 30.987 84.4072 30.6953L85.1797 29.7246C85.444 30.0391 85.7357 30.2692 86.0547 30.415C86.3737 30.5609 86.7087 30.6338 87.0596 30.6338C87.4378 30.6338 87.7591 30.5632 88.0234 30.4219C88.2923 30.2852 88.4997 30.0824 88.6455 29.8135C88.7913 29.5446 88.8643 29.2165 88.8643 28.8291V23.2783L89.0146 21.6035ZM83.9902 25.3838V25.2402C83.9902 24.6797 84.0586 24.1693 84.1953 23.709C84.332 23.2441 84.528 22.8454 84.7832 22.5127C85.0384 22.1755 85.3483 21.918 85.7129 21.7402C86.0775 21.5579 86.4899 21.4668 86.9502 21.4668C87.4287 21.4668 87.8366 21.5534 88.1738 21.7266C88.5156 21.8997 88.8005 22.1481 89.0283 22.4717C89.2562 22.7907 89.4339 23.1735 89.5615 23.6201C89.6937 24.0622 89.7917 24.5544 89.8555 25.0967V25.5547C89.7962 26.0833 89.696 26.5664 89.5547 27.0039C89.4134 27.4414 89.2266 27.8197 88.9941 28.1387C88.7617 28.4577 88.4746 28.7038 88.1328 28.877C87.7956 29.0501 87.3968 29.1367 86.9365 29.1367C86.4854 29.1367 86.0775 29.0433 85.7129 28.8564C85.3529 28.6696 85.043 28.4076 84.7832 28.0703C84.528 27.7331 84.332 27.3366 84.1953 26.8809C84.0586 26.4206 83.9902 25.9215 83.9902 25.3838ZM85.6377 25.2402V25.3838C85.6377 25.721 85.6696 26.0355 85.7334 26.3271C85.8018 26.6188 85.9043 26.8763 86.041 27.0996C86.1823 27.3184 86.36 27.4915 86.5742 27.6191C86.793 27.7422 87.0505 27.8037 87.3467 27.8037C87.734 27.8037 88.0508 27.7217 88.2969 27.5576C88.5475 27.3936 88.7389 27.1725 88.8711 26.8945C89.0078 26.612 89.1035 26.2975 89.1582 25.9512V24.7139C89.1309 24.445 89.0739 24.1943 88.9873 23.9619C88.9053 23.7295 88.7936 23.5267 88.6523 23.3535C88.5111 23.1758 88.3333 23.0391 88.1191 22.9434C87.9049 22.8431 87.652 22.793 87.3604 22.793C87.0641 22.793 86.8066 22.8568 86.5879 22.9844C86.3691 23.112 86.1891 23.2874 86.0479 23.5107C85.9111 23.734 85.8086 23.9938 85.7402 24.29C85.6719 24.5863 85.6377 24.903 85.6377 25.2402ZM93.9844 18.5V29H92.3301V18.5H93.9844ZM99.0498 29.1367C98.5029 29.1367 98.0085 29.0479 97.5664 28.8701C97.1289 28.6878 96.7552 28.4349 96.4453 28.1113C96.14 27.7878 95.9053 27.4072 95.7412 26.9697C95.5771 26.5322 95.4951 26.0605 95.4951 25.5547V25.2812C95.4951 24.7025 95.5794 24.1784 95.748 23.709C95.9167 23.2396 96.1514 22.8385 96.4521 22.5059C96.7529 22.1686 97.1084 21.9111 97.5186 21.7334C97.9287 21.5557 98.373 21.4668 98.8516 21.4668C99.3802 21.4668 99.8428 21.5557 100.239 21.7334C100.636 21.9111 100.964 22.1618 101.224 22.4854C101.488 22.8044 101.684 23.1849 101.812 23.627C101.944 24.069 102.01 24.5566 102.01 25.0898V25.7939H96.2949V24.6113H100.383V24.4814C100.374 24.1852 100.314 23.9072 100.205 23.6475C100.1 23.3877 99.9385 23.1781 99.7197 23.0186C99.501 22.859 99.2093 22.7793 98.8447 22.7793C98.5713 22.7793 98.3275 22.8385 98.1133 22.957C97.9036 23.071 97.7282 23.2373 97.5869 23.4561C97.4456 23.6748 97.3363 23.9391 97.2588 24.249C97.1859 24.5544 97.1494 24.8984 97.1494 25.2812V25.5547C97.1494 25.8783 97.1927 26.179 97.2793 26.457C97.3704 26.7305 97.5026 26.9697 97.6758 27.1748C97.849 27.3799 98.0586 27.5417 98.3047 27.6602C98.5508 27.7741 98.8311 27.8311 99.1455 27.8311C99.542 27.8311 99.8952 27.7513 100.205 27.5918C100.515 27.4323 100.784 27.2067 101.012 26.915L101.88 27.7559C101.72 27.9883 101.513 28.2116 101.258 28.4258C101.003 28.6354 100.69 28.8063 100.321 28.9385C99.9567 29.0706 99.5329 29.1367 99.0498 29.1367ZM111.534 20.95V21.888H114.348V20.95H111.534ZM111.436 24.128V25.066H114.32V24.128H111.436ZM116.266 17.436V30.092H117.386V17.436H116.266ZM113.732 17.758V29.448H114.824V17.758H113.732ZM110.904 19.032V19.242C110.904 22.224 109.574 24.744 106.62 26.536L107.292 27.362C110.694 25.332 112.024 22.35 112.024 19.032H110.904ZM107.18 19.032V19.984H111.366V19.032H107.18ZM126.261 20.712V21.678H129.117V20.712H126.261ZM128.753 17.436V24.982H129.915V17.436H128.753ZM125.757 25.36C123.139 25.36 121.529 26.242 121.529 27.726C121.529 29.224 123.139 30.078 125.757 30.078C128.361 30.078 129.971 29.224 129.971 27.726C129.971 26.242 128.361 25.36 125.757 25.36ZM125.757 26.27C127.661 26.27 128.823 26.802 128.823 27.726C128.823 28.636 127.661 29.168 125.757 29.168C123.853 29.168 122.691 28.636 122.691 27.726C122.691 26.802 123.853 26.27 125.757 26.27ZM122.733 18.71V19.732C122.733 21.552 121.431 23.246 119.555 23.932L120.157 24.856C122.257 24.072 123.685 22.07 123.685 19.732V18.71H122.733ZM122.957 18.71V19.732C122.957 21.86 124.315 23.764 126.373 24.506L126.961 23.582C125.127 22.938 123.895 21.37 123.895 19.732V18.71H122.957ZM119.905 18.36V19.312H126.667V18.36H119.905ZM138.103 18.234C135.471 18.234 133.497 19.634 133.497 21.734C133.497 23.848 135.471 25.234 138.103 25.234C140.735 25.234 142.695 23.848 142.695 21.734C142.695 19.634 140.735 18.234 138.103 18.234ZM138.103 19.186C140.105 19.186 141.589 20.208 141.589 21.734C141.589 23.246 140.105 24.282 138.103 24.282C136.101 24.282 134.617 23.246 134.617 21.734C134.617 20.208 136.101 19.186 138.103 19.186ZM132.391 27.446V28.426H143.857V27.446H132.391ZM145.27 27.572V28.538H156.736V27.572H145.27ZM150.394 24.856V27.978H151.556V24.856H150.394ZM146.656 18.374V19.312H154.174V21.272H146.698V24.744H147.846V22.21H155.322V18.374H146.656ZM146.698 24.254V25.206H155.616V24.254H146.698ZM161.636 27.572V28.538H173.102V27.572H161.636ZM166.76 24.856V27.978H167.922V24.856H166.76ZM163.022 18.374V19.312H170.54V21.272H163.064V24.744H164.212V22.21H171.688V18.374H163.022ZM163.064 24.254V25.206H171.982V24.254H163.064ZM175.746 18.78V19.718H183.894V18.78H175.746ZM174.514 27.278V28.244H185.952V27.278H174.514ZM183.278 18.78V20.04C183.278 21.608 183.278 23.498 182.774 26.088L183.936 26.2C184.412 23.47 184.412 21.664 184.412 20.04V18.78H183.278ZM196.591 17.45V26.69H197.767V17.45H196.591ZM189.633 28.86V29.812H198.145V28.86H189.633ZM189.633 25.738V29.182H190.781V25.738H189.633ZM190.977 18.318C189.087 18.318 187.673 19.606 187.673 21.44C187.673 23.26 189.087 24.562 190.977 24.562C192.867 24.562 194.267 23.26 194.267 21.44C194.267 19.606 192.867 18.318 190.977 18.318ZM190.977 19.326C192.209 19.326 193.147 20.194 193.147 21.44C193.147 22.672 192.209 23.54 190.977 23.54C189.745 23.54 188.807 22.672 188.807 21.44C188.807 20.194 189.745 19.326 190.977 19.326Z" fill="black"/>
</svg>
