<svg width="220" height="54" viewBox="0 0 220 54" fill="none" xmlns="http://www.w3.org/2000/svg">
<g filter="url(#filter0_dd_410_499)">
<rect x="2" y="1" width="216" height="49" rx="6" fill="white"/>
</g>
<path fill-rule="evenodd" clip-rule="evenodd" d="M35.64 25.2046C35.64 24.5664 35.5827 23.9527 35.4764 23.3636H27V26.845H31.8436C31.635 27.97 31.0009 28.9232 30.0477 29.5614V31.8196H32.9564C34.6582 30.2527 35.64 27.9455 35.64 25.2046Z" fill="#4285F4"/>
<path fill-rule="evenodd" clip-rule="evenodd" d="M27 34C29.43 34 31.4673 33.1941 32.9564 31.8195L30.0478 29.5613C29.2419 30.1013 28.2109 30.4204 27 30.4204C24.6559 30.4204 22.6719 28.8372 21.9641 26.71H18.9573V29.0418C20.4382 31.9831 23.4819 34 27 34Z" fill="#34A853"/>
<path fill-rule="evenodd" clip-rule="evenodd" d="M21.9641 26.7099C21.7841 26.1699 21.6818 25.5931 21.6818 24.9999C21.6818 24.4068 21.7841 23.8299 21.9641 23.2899V20.9581H18.9573C18.3477 22.1731 18 23.5477 18 24.9999C18 26.4522 18.3477 27.8268 18.9573 29.0418L21.9641 26.7099Z" fill="#FBBC05"/>
<path fill-rule="evenodd" clip-rule="evenodd" d="M27 19.5795C28.3214 19.5795 29.5078 20.0336 30.4405 20.9255L33.0219 18.3441C31.4632 16.8918 29.4259 16 27 16C23.4819 16 20.4382 18.0168 18.9573 20.9582L21.9641 23.29C22.6719 21.1627 24.6559 19.5795 27 19.5795Z" fill="#EA4335"/>
<path d="M68.6543 24.9141V28.7148C68.513 28.9017 68.292 29.1068 67.9912 29.3301C67.695 29.5488 67.3008 29.738 66.8086 29.8975C66.3164 30.057 65.7035 30.1367 64.9697 30.1367C64.3454 30.1367 63.7734 30.0319 63.2539 29.8223C62.7344 29.6081 62.2855 29.2959 61.9072 28.8857C61.5335 28.4756 61.2441 27.9766 61.0391 27.3887C60.834 26.7962 60.7314 26.1217 60.7314 25.3652V24.6748C60.7314 23.9229 60.8249 23.2529 61.0117 22.665C61.2031 22.0726 61.4766 21.5713 61.832 21.1611C62.1875 20.751 62.6159 20.4411 63.1172 20.2314C63.623 20.0173 64.195 19.9102 64.833 19.9102C65.6488 19.9102 66.3232 20.0469 66.8564 20.3203C67.3942 20.5892 67.8089 20.9629 68.1006 21.4414C68.3923 21.9199 68.5768 22.4668 68.6543 23.082H66.9727C66.918 22.7357 66.8109 22.4258 66.6514 22.1523C66.4964 21.8789 66.2731 21.6647 65.9814 21.5098C65.6943 21.3503 65.3206 21.2705 64.8604 21.2705C64.4639 21.2705 64.1152 21.3457 63.8145 21.4961C63.5137 21.6465 63.263 21.8675 63.0625 22.1592C62.8665 22.4508 62.7184 22.8063 62.6182 23.2256C62.5179 23.6449 62.4678 24.1234 62.4678 24.6611V25.3652C62.4678 25.9121 62.5247 26.3975 62.6387 26.8213C62.7572 27.2451 62.9258 27.6029 63.1445 27.8945C63.3678 28.1862 63.639 28.4072 63.958 28.5576C64.277 28.7035 64.637 28.7764 65.0381 28.7764C65.43 28.7764 65.7513 28.7445 66.002 28.6807C66.2526 28.6123 66.4508 28.5326 66.5967 28.4414C66.7471 28.3457 66.8633 28.2546 66.9453 28.168V26.1924H64.874V24.9141H68.6543ZM70.0762 26.3838V26.2266C70.0762 25.6934 70.1536 25.1989 70.3086 24.7432C70.4635 24.2829 70.6868 23.8841 70.9785 23.5469C71.2747 23.2051 71.6348 22.9408 72.0586 22.7539C72.487 22.5625 72.9701 22.4668 73.5078 22.4668C74.0501 22.4668 74.5332 22.5625 74.957 22.7539C75.3854 22.9408 75.7477 23.2051 76.0439 23.5469C76.3402 23.8841 76.5658 24.2829 76.7207 24.7432C76.8757 25.1989 76.9531 25.6934 76.9531 26.2266V26.3838C76.9531 26.917 76.8757 27.4115 76.7207 27.8672C76.5658 28.3229 76.3402 28.7217 76.0439 29.0635C75.7477 29.4007 75.3877 29.665 74.9639 29.8564C74.54 30.0433 74.0592 30.1367 73.5215 30.1367C72.9792 30.1367 72.4938 30.0433 72.0654 29.8564C71.6416 29.665 71.2816 29.4007 70.9854 29.0635C70.6891 28.7217 70.4635 28.3229 70.3086 27.8672C70.1536 27.4115 70.0762 26.917 70.0762 26.3838ZM71.7236 26.2266V26.3838C71.7236 26.7165 71.7578 27.0309 71.8262 27.3271C71.8945 27.6234 72.0016 27.8831 72.1475 28.1064C72.2933 28.3298 72.4801 28.5052 72.708 28.6328C72.9359 28.7604 73.207 28.8242 73.5215 28.8242C73.8268 28.8242 74.0911 28.7604 74.3145 28.6328C74.5423 28.5052 74.7292 28.3298 74.875 28.1064C75.0208 27.8831 75.1279 27.6234 75.1963 27.3271C75.2692 27.0309 75.3057 26.7165 75.3057 26.3838V26.2266C75.3057 25.8984 75.2692 25.5885 75.1963 25.2969C75.1279 25.0007 75.0186 24.7386 74.8682 24.5107C74.7223 24.2829 74.5355 24.1051 74.3076 23.9775C74.0843 23.8454 73.8177 23.7793 73.5078 23.7793C73.1979 23.7793 72.929 23.8454 72.7012 23.9775C72.4779 24.1051 72.2933 24.2829 72.1475 24.5107C72.0016 24.7386 71.8945 25.0007 71.8262 25.2969C71.7578 25.5885 71.7236 25.8984 71.7236 26.2266ZM78.0195 26.3838V26.2266C78.0195 25.6934 78.097 25.1989 78.252 24.7432C78.4069 24.2829 78.6302 23.8841 78.9219 23.5469C79.2181 23.2051 79.5781 22.9408 80.002 22.7539C80.4303 22.5625 80.9134 22.4668 81.4512 22.4668C81.9935 22.4668 82.4766 22.5625 82.9004 22.7539C83.3288 22.9408 83.6911 23.2051 83.9873 23.5469C84.2835 23.8841 84.5091 24.2829 84.6641 24.7432C84.819 25.1989 84.8965 25.6934 84.8965 26.2266V26.3838C84.8965 26.917 84.819 27.4115 84.6641 27.8672C84.5091 28.3229 84.2835 28.7217 83.9873 29.0635C83.6911 29.4007 83.3311 29.665 82.9072 29.8564C82.4834 30.0433 82.0026 30.1367 81.4648 30.1367C80.9225 30.1367 80.4372 30.0433 80.0088 29.8564C79.585 29.665 79.2249 29.4007 78.9287 29.0635C78.6325 28.7217 78.4069 28.3229 78.252 27.8672C78.097 27.4115 78.0195 26.917 78.0195 26.3838ZM79.667 26.2266V26.3838C79.667 26.7165 79.7012 27.0309 79.7695 27.3271C79.8379 27.6234 79.945 27.8831 80.0908 28.1064C80.2367 28.3298 80.4235 28.5052 80.6514 28.6328C80.8792 28.7604 81.1504 28.8242 81.4648 28.8242C81.7702 28.8242 82.0345 28.7604 82.2578 28.6328C82.4857 28.5052 82.6725 28.3298 82.8184 28.1064C82.9642 27.8831 83.0713 27.6234 83.1396 27.3271C83.2126 27.0309 83.249 26.7165 83.249 26.3838V26.2266C83.249 25.8984 83.2126 25.5885 83.1396 25.2969C83.0713 25.0007 82.9619 24.7386 82.8115 24.5107C82.6657 24.2829 82.4788 24.1051 82.251 23.9775C82.0277 23.8454 81.7611 23.7793 81.4512 23.7793C81.1413 23.7793 80.8724 23.8454 80.6445 23.9775C80.4212 24.1051 80.2367 24.2829 80.0908 24.5107C79.945 24.7386 79.8379 25.0007 79.7695 25.2969C79.7012 25.5885 79.667 25.8984 79.667 26.2266ZM91.0146 22.6035H92.5117V29.7949C92.5117 30.4603 92.3704 31.0254 92.0879 31.4902C91.8053 31.9551 91.4111 32.3083 90.9053 32.5498C90.3994 32.7959 89.8138 32.9189 89.1484 32.9189C88.8659 32.9189 88.5514 32.8779 88.2051 32.7959C87.8633 32.7139 87.5306 32.5817 87.207 32.3994C86.888 32.2217 86.6214 31.987 86.4072 31.6953L87.1797 30.7246C87.444 31.0391 87.7357 31.2692 88.0547 31.415C88.3737 31.5609 88.7087 31.6338 89.0596 31.6338C89.4378 31.6338 89.7591 31.5632 90.0234 31.4219C90.2923 31.2852 90.4997 31.0824 90.6455 30.8135C90.7913 30.5446 90.8643 30.2165 90.8643 29.8291V24.2783L91.0146 22.6035ZM85.9902 26.3838V26.2402C85.9902 25.6797 86.0586 25.1693 86.1953 24.709C86.332 24.2441 86.528 23.8454 86.7832 23.5127C87.0384 23.1755 87.3483 22.918 87.7129 22.7402C88.0775 22.5579 88.4899 22.4668 88.9502 22.4668C89.4287 22.4668 89.8366 22.5534 90.1738 22.7266C90.5156 22.8997 90.8005 23.1481 91.0283 23.4717C91.2562 23.7907 91.4339 24.1735 91.5615 24.6201C91.6937 25.0622 91.7917 25.5544 91.8555 26.0967V26.5547C91.7962 27.0833 91.696 27.5664 91.5547 28.0039C91.4134 28.4414 91.2266 28.8197 90.9941 29.1387C90.7617 29.4577 90.4746 29.7038 90.1328 29.877C89.7956 30.0501 89.3968 30.1367 88.9365 30.1367C88.4854 30.1367 88.0775 30.0433 87.7129 29.8564C87.3529 29.6696 87.043 29.4076 86.7832 29.0703C86.528 28.7331 86.332 28.3366 86.1953 27.8809C86.0586 27.4206 85.9902 26.9215 85.9902 26.3838ZM87.6377 26.2402V26.3838C87.6377 26.721 87.6696 27.0355 87.7334 27.3271C87.8018 27.6188 87.9043 27.8763 88.041 28.0996C88.1823 28.3184 88.36 28.4915 88.5742 28.6191C88.793 28.7422 89.0505 28.8037 89.3467 28.8037C89.734 28.8037 90.0508 28.7217 90.2969 28.5576C90.5475 28.3936 90.7389 28.1725 90.8711 27.8945C91.0078 27.612 91.1035 27.2975 91.1582 26.9512V25.7139C91.1309 25.445 91.0739 25.1943 90.9873 24.9619C90.9053 24.7295 90.7936 24.5267 90.6523 24.3535C90.5111 24.1758 90.3333 24.0391 90.1191 23.9434C89.9049 23.8431 89.652 23.793 89.3604 23.793C89.0641 23.793 88.8066 23.8568 88.5879 23.9844C88.3691 24.112 88.1891 24.2874 88.0479 24.5107C87.9111 24.734 87.8086 24.9938 87.7402 25.29C87.6719 25.5863 87.6377 25.903 87.6377 26.2402ZM95.9844 19.5V30H94.3301V19.5H95.9844ZM101.05 30.1367C100.503 30.1367 100.008 30.0479 99.5664 29.8701C99.1289 29.6878 98.7552 29.4349 98.4453 29.1113C98.14 28.7878 97.9053 28.4072 97.7412 27.9697C97.5771 27.5322 97.4951 27.0605 97.4951 26.5547V26.2812C97.4951 25.7025 97.5794 25.1784 97.748 24.709C97.9167 24.2396 98.1514 23.8385 98.4521 23.5059C98.7529 23.1686 99.1084 22.9111 99.5186 22.7334C99.9287 22.5557 100.373 22.4668 100.852 22.4668C101.38 22.4668 101.843 22.5557 102.239 22.7334C102.636 22.9111 102.964 23.1618 103.224 23.4854C103.488 23.8044 103.684 24.1849 103.812 24.627C103.944 25.069 104.01 25.5566 104.01 26.0898V26.7939H98.2949V25.6113H102.383V25.4814C102.374 25.1852 102.314 24.9072 102.205 24.6475C102.1 24.3877 101.938 24.1781 101.72 24.0186C101.501 23.859 101.209 23.7793 100.845 23.7793C100.571 23.7793 100.327 23.8385 100.113 23.957C99.9036 24.071 99.7282 24.2373 99.5869 24.4561C99.4456 24.6748 99.3363 24.9391 99.2588 25.249C99.1859 25.5544 99.1494 25.8984 99.1494 26.2812V26.5547C99.1494 26.8783 99.1927 27.179 99.2793 27.457C99.3704 27.7305 99.5026 27.9697 99.6758 28.1748C99.849 28.3799 100.059 28.5417 100.305 28.6602C100.551 28.7741 100.831 28.8311 101.146 28.8311C101.542 28.8311 101.895 28.7513 102.205 28.5918C102.515 28.4323 102.784 28.2067 103.012 27.915L103.88 28.7559C103.72 28.9883 103.513 29.2116 103.258 29.4258C103.003 29.6354 102.69 29.8063 102.321 29.9385C101.957 30.0706 101.533 30.1367 101.05 30.1367ZM113.534 21.95V22.888H116.348V21.95H113.534ZM113.436 25.128V26.066H116.32V25.128H113.436ZM118.266 18.436V31.092H119.386V18.436H118.266ZM115.732 18.758V30.448H116.824V18.758H115.732ZM112.904 20.032V20.242C112.904 23.224 111.574 25.744 108.62 27.536L109.292 28.362C112.694 26.332 114.024 23.35 114.024 20.032H112.904ZM109.18 20.032V20.984H113.366V20.032H109.18ZM128.261 21.712V22.678H131.117V21.712H128.261ZM130.753 18.436V25.982H131.915V18.436H130.753ZM127.757 26.36C125.139 26.36 123.529 27.242 123.529 28.726C123.529 30.224 125.139 31.078 127.757 31.078C130.361 31.078 131.971 30.224 131.971 28.726C131.971 27.242 130.361 26.36 127.757 26.36ZM127.757 27.27C129.661 27.27 130.823 27.802 130.823 28.726C130.823 29.636 129.661 30.168 127.757 30.168C125.853 30.168 124.691 29.636 124.691 28.726C124.691 27.802 125.853 27.27 127.757 27.27ZM124.733 19.71V20.732C124.733 22.552 123.431 24.246 121.555 24.932L122.157 25.856C124.257 25.072 125.685 23.07 125.685 20.732V19.71H124.733ZM124.957 19.71V20.732C124.957 22.86 126.315 24.764 128.373 25.506L128.961 24.582C127.127 23.938 125.895 22.37 125.895 20.732V19.71H124.957ZM121.905 19.36V20.312H128.667V19.36H121.905ZM140.103 19.234C137.471 19.234 135.497 20.634 135.497 22.734C135.497 24.848 137.471 26.234 140.103 26.234C142.735 26.234 144.695 24.848 144.695 22.734C144.695 20.634 142.735 19.234 140.103 19.234ZM140.103 20.186C142.105 20.186 143.589 21.208 143.589 22.734C143.589 24.246 142.105 25.282 140.103 25.282C138.101 25.282 136.617 24.246 136.617 22.734C136.617 21.208 138.101 20.186 140.103 20.186ZM134.391 28.446V29.426H145.857V28.446H134.391ZM147.27 28.572V29.538H158.736V28.572H147.27ZM152.394 25.856V28.978H153.556V25.856H152.394ZM148.656 19.374V20.312H156.174V22.272H148.698V25.744H149.846V23.21H157.322V19.374H148.656ZM148.698 25.254V26.206H157.616V25.254H148.698ZM163.636 28.572V29.538H175.102V28.572H163.636ZM168.76 25.856V28.978H169.922V25.856H168.76ZM165.022 19.374V20.312H172.54V22.272H165.064V25.744H166.212V23.21H173.688V19.374H165.022ZM165.064 25.254V26.206H173.982V25.254H165.064ZM177.746 19.78V20.718H185.894V19.78H177.746ZM176.514 28.278V29.244H187.952V28.278H176.514ZM185.278 19.78V21.04C185.278 22.608 185.278 24.498 184.774 27.088L185.936 27.2C186.412 24.47 186.412 22.664 186.412 21.04V19.78H185.278ZM198.591 18.45V27.69H199.767V18.45H198.591ZM191.633 29.86V30.812H200.145V29.86H191.633ZM191.633 26.738V30.182H192.781V26.738H191.633ZM192.977 19.318C191.087 19.318 189.673 20.606 189.673 22.44C189.673 24.26 191.087 25.562 192.977 25.562C194.867 25.562 196.267 24.26 196.267 22.44C196.267 20.606 194.867 19.318 192.977 19.318ZM192.977 20.326C194.209 20.326 195.147 21.194 195.147 22.44C195.147 23.672 194.209 24.54 192.977 24.54C191.745 24.54 190.807 23.672 190.807 22.44C190.807 21.194 191.745 20.326 192.977 20.326Z" fill="black"/>
<defs>
<filter id="filter0_dd_410_499" x="0" y="0" width="220" height="54" filterUnits="userSpaceOnUse" color-interpolation-filters="sRGB">
<feFlood flood-opacity="0" result="BackgroundImageFix"/>
<feColorMatrix in="SourceAlpha" type="matrix" values="0 0 0 0 0 0 0 0 0 0 0 0 0 0 0 0 0 0 127 0" result="hardAlpha"/>
<feOffset/>
<feGaussianBlur stdDeviation="0.5"/>
<feComposite in2="hardAlpha" operator="out"/>
<feColorMatrix type="matrix" values="0 0 0 0 0 0 0 0 0 0 0 0 0 0 0 0 0 0 0.24 0"/>
<feBlend mode="normal" in2="BackgroundImageFix" result="effect1_dropShadow_410_499"/>
<feColorMatrix in="SourceAlpha" type="matrix" values="0 0 0 0 0 0 0 0 0 0 0 0 0 0 0 0 0 0 127 0" result="hardAlpha"/>
<feOffset dy="2"/>
<feGaussianBlur stdDeviation="1"/>
<feComposite in2="hardAlpha" operator="out"/>
<feColorMatrix type="matrix" values="0 0 0 0 0 0 0 0 0 0 0 0 0 0 0 0 0 0 0.24 0"/>
<feBlend mode="normal" in2="effect1_dropShadow_410_499" result="effect2_dropShadow_410_499"/>
<feBlend mode="normal" in="SourceGraphic" in2="effect2_dropShadow_410_499" result="shape"/>
</filter>
</defs>
</svg>
