<svg width="216" height="49" viewBox="0 0 216 49" fill="none" xmlns="http://www.w3.org/2000/svg">
<rect width="216" height="49" rx="6" fill="#FEE500"/>
<path d="M83.076 18.752V18.878C83.076 22.322 81.816 25.15 77.812 27.124L78.442 28.02C82.978 25.766 84.21 22.406 84.21 18.752H83.076ZM78.498 18.752V19.69H83.762V18.752H78.498ZM82.894 21.888L77.868 22.224L78.05 23.26L82.894 22.784V21.888ZM86.254 17.422V30.092H87.43V17.422H86.254ZM87.108 22.56V23.526H89.446V22.56H87.108ZM95.9549 18.752V18.878C95.9549 22.322 94.6949 25.15 90.6909 27.124L91.3209 28.02C95.8569 25.766 97.0889 22.406 97.0889 18.752H95.9549ZM91.3769 18.752V19.69H96.6409V18.752H91.3769ZM95.7729 21.888L90.7469 22.224L90.9289 23.26L95.7729 22.784V21.888ZM99.1329 17.422V30.092H100.309V17.422H99.1329ZM99.9869 22.56V23.526H102.325V22.56H99.9869ZM108.582 24.59V27.74H109.744V24.59H108.582ZM109.17 18.262C106.496 18.262 104.564 19.564 104.564 21.58C104.564 23.596 106.496 24.898 109.17 24.898C111.844 24.898 113.762 23.596 113.762 21.58C113.762 19.564 111.844 18.262 109.17 18.262ZM109.17 19.186C111.172 19.186 112.642 20.138 112.642 21.58C112.642 23.022 111.172 23.974 109.17 23.974C107.154 23.974 105.684 23.022 105.684 21.58C105.684 20.138 107.154 19.186 109.17 19.186ZM103.458 27.516V28.482H114.924V27.516H103.458ZM119.823 27.572V28.538H131.289V27.572H119.823ZM124.947 24.856V27.978H126.109V24.856H124.947ZM121.209 18.374V19.312H128.727V21.272H121.251V24.744H122.399V22.21H129.875V18.374H121.209ZM121.251 24.254V25.206H130.169V24.254H121.251ZM133.934 18.78V19.718H142.082V18.78H133.934ZM132.702 27.278V28.244H144.14V27.278H132.702ZM141.466 18.78V20.04C141.466 21.608 141.466 23.498 140.962 26.088L142.124 26.2C142.6 23.47 142.6 21.664 142.6 20.04V18.78H141.466ZM154.779 17.45V26.69H155.955V17.45H154.779ZM147.821 28.86V29.812H156.333V28.86H147.821ZM147.821 25.738V29.182H148.969V25.738H147.821ZM149.165 18.318C147.275 18.318 145.861 19.606 145.861 21.44C145.861 23.26 147.275 24.562 149.165 24.562C151.055 24.562 152.455 23.26 152.455 21.44C152.455 19.606 151.055 18.318 149.165 18.318ZM149.165 19.326C150.397 19.326 151.335 20.194 151.335 21.44C151.335 22.672 150.397 23.54 149.165 23.54C147.933 23.54 146.995 22.672 146.995 21.44C146.995 20.194 147.933 19.326 149.165 19.326Z" fill="black" fill-opacity="0.85"/>
<path d="M25.6923 15C20.3394 15 16 18.4429 16 22.6898C16 25.4355 17.8141 27.8447 20.5431 29.2052C20.3946 29.7204 19.589 32.5196 19.557 32.7396C19.557 32.7396 19.5377 32.9048 19.644 32.9678C19.7504 33.0308 19.8754 32.9819 19.8754 32.9819C20.1804 32.939 23.4115 30.6552 23.9708 30.2586C24.5295 30.3382 25.1048 30.3795 25.6923 30.3795C31.0453 30.3795 35.3846 26.9368 35.3846 22.6898C35.3846 18.4429 31.0453 15 25.6923 15Z" fill="#181600"/>
</svg>
